STARTFONT 2.1
COMMENT
COMMENT Converted from OpenType font "JF-Dot-Shinonome16B.ttf" by "otf2bdf 3.0".
COMMENT
FONT -FreeType-JF Dot Shinonome Gothic 16-Bold-R-Normal--17-120-100-100-P-162-ISO10646-1
SIZE 12 100 100
FONTBOUNDINGBOX 16 16 0 -2
STARTPROPERTIES 19
FOUNDRY "FreeType"
FAMILY_NAME "JF Dot Shinonome Gothic 16"
WEIGHT_NAME "Bold"
SLANT "R"
SETWIDTH_NAME "Normal"
ADD_STYLE_NAME ""
PIXEL_SIZE 17
POINT_SIZE 120
RESOLUTION_X 100
RESOLUTION_Y 100
SPACING "P"
AVERAGE_WIDTH 162
CHARSET_REGISTRY "ISO10646"
CHARSET_ENCODING "1"
FONT_ASCENT 13
FONT_DESCENT 2
COPYRIGHT "-FreeType-JF Dot Shinonome Gothic 16-Bold-R-Normal--17-120-100-100-P-162-ISO10646-1"
_OTF_FONTFILE "JF-Dot-Shinonome16B.ttf"
_OTF_PSNAME "JF-Dot-Shinonome-16-Bold"
ENDPROPERTIES
CHARS 7146
STARTCHAR 0020
ENCODING 32
SWIDTH 480 0
DWIDTH 8 0
BBX 8 16 0 -2
BITMAP
00
00
00
00
00
00
00
00
00
00
00
00
00
00
00
00
ENDCHAR
STARTCHAR 0021
ENCODING 33
SWIDTH 480 0
DWIDTH 8 0
BBX 8 16 0 -2
BITMAP
00
1C
1C
1C
1C
18
18
18
18
18
18
00
00
18
18
00
ENDCHAR
STARTCHAR 0022
ENCODING 34
SWIDTH 480 0
DWIDTH 8 0
BBX 8 16 0 -2
BITMAP
76
36
36
6C
00
00
00
00
00
00
00
00
00
00
00
00
ENDCHAR
STARTCHAR 0023
ENCODING 35
SWIDTH 480 0
DWIDTH 8 0
BBX 8 16 0 -2
BITMAP
00
1B
1B
1B
7F
36
36
36
36
36
FF
6C
6C
6C
6C
00
ENDCHAR
STARTCHAR 0024
ENCODING 36
SWIDTH 480 0
DWIDTH 8 0
BBX 8 16 0 -2
BITMAP
18
3C
6A
DB
DB
D8
68
3C
1A
1B
DB
DB
6A
3C
18
18
ENDCHAR
STARTCHAR 0025
ENCODING 37
SWIDTH 480 0
DWIDTH 8 0
BBX 8 16 0 -2
BITMAP
01
71
DB
DB
DA
DA
74
0C
18
1B
35
35
6D
6D
C7
C0
ENDCHAR
STARTCHAR 0026
ENCODING 38
SWIDTH 480 0
DWIDTH 8 0
BBX 8 16 0 -2
BITMAP
00
3C
66
66
66
34
18
38
6D
CD
C6
C6
6D
39
00
00
ENDCHAR
STARTCHAR 0027
ENCODING 39
SWIDTH 480 0
DWIDTH 8 0
BBX 8 16 0 -2
BITMAP
70
30
30
60
00
00
00
00
00
00
00
00
00
00
00
00
ENDCHAR
STARTCHAR 0028
ENCODING 40
SWIDTH 480 0
DWIDTH 8 0
BBX 8 16 0 -2
BITMAP
00
03
06
0C
0C
18
18
18
18
18
18
18
0C
0C
06
03
ENDCHAR
STARTCHAR 0029
ENCODING 41
SWIDTH 480 0
DWIDTH 8 0
BBX 8 16 0 -2
BITMAP
00
60
30
18
18
0C
0C
0C
0C
0C
0C
0C
18
18
30
60
ENDCHAR
STARTCHAR 002A
ENCODING 42
SWIDTH 480 0
DWIDTH 8 0
BBX 8 16 0 -2
BITMAP
00
00
00
00
18
DB
6A
3C
6A
DB
18
00
00
00
00
00
ENDCHAR
STARTCHAR 002B
ENCODING 43
SWIDTH 480 0
DWIDTH 8 0
BBX 8 16 0 -2
BITMAP
00
00
00
18
18
18
18
FF
18
18
18
18
00
00
00
00
ENDCHAR
STARTCHAR 002C
ENCODING 44
SWIDTH 480 0
DWIDTH 8 0
BBX 8 16 0 -2
BITMAP
00
00
00
00
00
00
00
00
00
00
00
00
70
30
30
60
ENDCHAR
STARTCHAR 002D
ENCODING 45
SWIDTH 480 0
DWIDTH 8 0
BBX 8 16 0 -2
BITMAP
00
00
00
00
00
00
00
FF
00
00
00
00
00
00
00
00
ENDCHAR
STARTCHAR 002E
ENCODING 46
SWIDTH 480 0
DWIDTH 8 0
BBX 8 16 0 -2
BITMAP
00
00
00
00
00
00
00
00
00
00
00
00
70
70
00
00
ENDCHAR
STARTCHAR 002F
ENCODING 47
SWIDTH 480 0
DWIDTH 8 0
BBX 8 16 0 -2
BITMAP
00
03
03
06
06
0C
0C
18
18
30
30
60
60
C0
C0
00
ENDCHAR
STARTCHAR 0030
ENCODING 48
SWIDTH 480 0
DWIDTH 8 0
BBX 8 16 0 -2
BITMAP
00
1C
36
36
63
63
63
63
63
63
63
36
36
1C
00
00
ENDCHAR
STARTCHAR 0031
ENCODING 49
SWIDTH 480 0
DWIDTH 8 0
BBX 8 16 0 -2
BITMAP
00
18
18
38
68
18
18
18
18
18
18
18
18
18
00
00
ENDCHAR
STARTCHAR 0032
ENCODING 50
SWIDTH 480 0
DWIDTH 8 0
BBX 8 16 0 -2
BITMAP
00
1C
36
63
63
03
06
0C
18
30
30
60
60
7F
00
00
ENDCHAR
STARTCHAR 0033
ENCODING 51
SWIDTH 480 0
DWIDTH 8 0
BBX 8 16 0 -2
BITMAP
00
3C
66
C3
C3
03
06
3C
06
03
C3
C3
66
3C
00
00
ENDCHAR
STARTCHAR 0034
ENCODING 52
SWIDTH 480 0
DWIDTH 8 0
BBX 8 16 0 -2
BITMAP
00
0C
1C
1C
34
34
6C
6C
CC
FF
0C
0C
0C
0C
00
00
ENDCHAR
STARTCHAR 0035
ENCODING 53
SWIDTH 480 0
DWIDTH 8 0
BBX 8 16 0 -2
BITMAP
00
7E
60
60
60
DC
E6
C3
03
03
C3
C3
66
3C
00
00
ENDCHAR
STARTCHAR 0036
ENCODING 54
SWIDTH 480 0
DWIDTH 8 0
BBX 8 16 0 -2
BITMAP
00
3C
66
60
C0
C0
DC
E6
C3
C3
C3
C3
66
3C
00
00
ENDCHAR
STARTCHAR 0037
ENCODING 55
SWIDTH 480 0
DWIDTH 8 0
BBX 8 16 0 -2
BITMAP
00
FF
03
06
06
0C
0C
0C
0C
18
18
18
18
18
18
00
ENDCHAR
STARTCHAR 0038
ENCODING 56
SWIDTH 480 0
DWIDTH 8 0
BBX 8 16 0 -2
BITMAP
00
3C
66
C3
C3
C3
66
3C
66
C3
C3
C3
66
3C
00
00
ENDCHAR
STARTCHAR 0039
ENCODING 57
SWIDTH 480 0
DWIDTH 8 0
BBX 8 16 0 -2
BITMAP
00
3C
66
C3
C3
C3
C3
67
3D
03
03
C3
66
3C
00
00
ENDCHAR
STARTCHAR 003A
ENCODING 58
SWIDTH 480 0
DWIDTH 8 0
BBX 8 16 0 -2
BITMAP
00
00
00
00
1C
1C
00
00
00
00
00
1C
1C
00
00
00
ENDCHAR
STARTCHAR 003B
ENCODING 59
SWIDTH 480 0
DWIDTH 8 0
BBX 8 16 0 -2
BITMAP
00
00
00
00
1C
1C
00
00
00
00
1C
0C
0C
18
00
00
ENDCHAR
STARTCHAR 003C
ENCODING 60
SWIDTH 480 0
DWIDTH 8 0
BBX 8 16 0 -2
BITMAP
00
00
00
03
06
0C
18
30
30
18
0C
06
03
00
00
00
ENDCHAR
STARTCHAR 003D
ENCODING 61
SWIDTH 480 0
DWIDTH 8 0
BBX 8 16 0 -2
BITMAP
00
00
00
00
00
FF
00
00
00
FF
00
00
00
00
00
00
ENDCHAR
STARTCHAR 003E
ENCODING 62
SWIDTH 480 0
DWIDTH 8 0
BBX 8 16 0 -2
BITMAP
00
00
00
60
30
18
0C
06
06
0C
18
30
60
00
00
00
ENDCHAR
STARTCHAR 003F
ENCODING 63
SWIDTH 480 0
DWIDTH 8 0
BBX 8 16 0 -2
BITMAP
00
3C
66
C3
C3
C3
06
0C
0C
18
18
00
00
18
18
00
ENDCHAR
STARTCHAR 0040
ENCODING 64
SWIDTH 480 0
DWIDTH 8 0
BBX 8 16 0 -2
BITMAP
00
1C
36
63
6D
DA
D6
D6
D6
DD
60
60
33
1E
00
00
ENDCHAR
STARTCHAR 0041
ENCODING 65
SWIDTH 480 0
DWIDTH 8 0
BBX 8 16 0 -2
BITMAP
00
18
18
34
34
34
66
66
66
7E
C3
C3
C3
C3
00
00
ENDCHAR
STARTCHAR 0042
ENCODING 66
SWIDTH 480 0
DWIDTH 8 0
BBX 8 16 0 -2
BITMAP
00
F8
CC
C6
C6
C6
CC
FC
C6
C3
C3
C3
C6
FC
00
00
ENDCHAR
STARTCHAR 0043
ENCODING 67
SWIDTH 480 0
DWIDTH 8 0
BBX 8 16 0 -2
BITMAP
00
3C
66
63
C0
C0
C0
C0
C0
C0
C0
63
66
3C
00
00
ENDCHAR
STARTCHAR 0044
ENCODING 68
SWIDTH 480 0
DWIDTH 8 0
BBX 8 16 0 -2
BITMAP
00
F8
CC
C6
C6
C3
C3
C3
C3
C3
C6
C6
CC
F8
00
00
ENDCHAR
STARTCHAR 0045
ENCODING 69
SWIDTH 480 0
DWIDTH 8 0
BBX 8 16 0 -2
BITMAP
00
FF
C0
C0
C0
C0
C0
FE
C0
C0
C0
C0
C0
FF
00
00
ENDCHAR
STARTCHAR 0046
ENCODING 70
SWIDTH 480 0
DWIDTH 8 0
BBX 8 16 0 -2
BITMAP
00
FF
C0
C0
C0
C0
C0
FE
C0
C0
C0
C0
C0
C0
00
00
ENDCHAR
STARTCHAR 0047
ENCODING 71
SWIDTH 480 0
DWIDTH 8 0
BBX 8 16 0 -2
BITMAP
00
1C
36
63
60
C0
C0
CF
C3
C3
C3
63
77
1D
00
00
ENDCHAR
STARTCHAR 0048
ENCODING 72
SWIDTH 480 0
DWIDTH 8 0
BBX 8 16 0 -2
BITMAP
00
C3
C3
C3
C3
C3
C3
FF
C3
C3
C3
C3
C3
C3
00
00
ENDCHAR
STARTCHAR 0049
ENCODING 73
SWIDTH 480 0
DWIDTH 8 0
BBX 8 16 0 -2
BITMAP
00
3C
18
18
18
18
18
18
18
18
18
18
18
3C
00
00
ENDCHAR
STARTCHAR 004A
ENCODING 74
SWIDTH 480 0
DWIDTH 8 0
BBX 8 16 0 -2
BITMAP
00
03
03
03
03
03
03
03
03
03
03
63
36
1C
00
00
ENDCHAR
STARTCHAR 004B
ENCODING 75
SWIDTH 480 0
DWIDTH 8 0
BBX 8 16 0 -2
BITMAP
00
63
63
66
66
6C
6C
74
76
66
63
63
61
61
00
00
ENDCHAR
STARTCHAR 004C
ENCODING 76
SWIDTH 480 0
DWIDTH 8 0
BBX 8 16 0 -2
BITMAP
00
60
60
60
60
60
60
60
60
60
60
60
60
7F
00
00
ENDCHAR
STARTCHAR 004D
ENCODING 77
SWIDTH 480 0
DWIDTH 8 0
BBX 8 16 0 -2
BITMAP
00
C3
C3
E7
E7
E7
D5
D5
D5
DB
DB
DB
DB
C3
00
00
ENDCHAR
STARTCHAR 004E
ENCODING 78
SWIDTH 480 0
DWIDTH 8 0
BBX 8 16 0 -2
BITMAP
00
C3
E3
E3
D3
D3
DB
DB
DB
CD
CD
C7
C7
C3
00
00
ENDCHAR
STARTCHAR 004F
ENCODING 79
SWIDTH 480 0
DWIDTH 8 0
BBX 8 16 0 -2
BITMAP
00
3C
66
66
C3
C3
C3
C3
C3
C3
C3
66
66
3C
00
00
ENDCHAR
STARTCHAR 0050
ENCODING 80
SWIDTH 480 0
DWIDTH 8 0
BBX 8 16 0 -2
BITMAP
00
FC
C6
C3
C3
C3
C6
FC
C0
C0
C0
C0
C0
C0
00
00
ENDCHAR
STARTCHAR 0051
ENCODING 81
SWIDTH 480 0
DWIDTH 8 0
BBX 8 16 0 -2
BITMAP
00
3C
66
66
C3
C3
C3
C3
C3
C3
DD
66
66
3C
0C
07
ENDCHAR
STARTCHAR 0052
ENCODING 82
SWIDTH 480 0
DWIDTH 8 0
BBX 8 16 0 -2
BITMAP
00
FC
C6
C3
C3
C3
C6
FC
CC
C6
C6
C6
C3
C3
00
00
ENDCHAR
STARTCHAR 0053
ENCODING 83
SWIDTH 480 0
DWIDTH 8 0
BBX 8 16 0 -2
BITMAP
00
3C
66
C3
C3
C0
70
1C
06
03
C3
C3
66
3C
00
00
ENDCHAR
STARTCHAR 0054
ENCODING 84
SWIDTH 480 0
DWIDTH 8 0
BBX 8 16 0 -2
BITMAP
00
FF
18
18
18
18
18
18
18
18
18
18
18
18
00
00
ENDCHAR
STARTCHAR 0055
ENCODING 85
SWIDTH 480 0
DWIDTH 8 0
BBX 8 16 0 -2
BITMAP
00
C3
C3
C3
C3
C3
C3
C3
C3
C3
C3
C3
66
3C
00
00
ENDCHAR
STARTCHAR 0056
ENCODING 86
SWIDTH 480 0
DWIDTH 8 0
BBX 8 16 0 -2
BITMAP
00
C3
C3
C3
C3
66
66
66
34
34
34
18
18
18
00
00
ENDCHAR
STARTCHAR 0057
ENCODING 87
SWIDTH 480 0
DWIDTH 8 0
BBX 8 16 0 -2
BITMAP
00
DB
DB
DB
DB
DB
DB
D5
D5
76
66
66
66
66
00
00
ENDCHAR
STARTCHAR 0058
ENCODING 88
SWIDTH 480 0
DWIDTH 8 0
BBX 8 16 0 -2
BITMAP
00
C3
66
66
34
34
18
34
34
34
66
66
C3
C3
00
00
ENDCHAR
STARTCHAR 0059
ENCODING 89
SWIDTH 480 0
DWIDTH 8 0
BBX 8 16 0 -2
BITMAP
00
C3
C3
66
66
66
34
34
18
18
18
18
18
18
00
00
ENDCHAR
STARTCHAR 005A
ENCODING 90
SWIDTH 480 0
DWIDTH 8 0
BBX 8 16 0 -2
BITMAP
00
FF
06
06
0C
0C
18
18
30
30
60
60
C0
FF
00
00
ENDCHAR
STARTCHAR 005B
ENCODING 91
SWIDTH 480 0
DWIDTH 8 0
BBX 8 16 0 -2
BITMAP
1F
18
18
18
18
18
18
18
18
18
18
18
18
18
18
1F
ENDCHAR
STARTCHAR 005C
ENCODING 92
SWIDTH 480 0
DWIDTH 8 0
BBX 8 16 0 -2
BITMAP
C3
C3
66
66
66
34
34
FF
18
FF
18
18
18
18
00
00
ENDCHAR
STARTCHAR 005D
ENCODING 93
SWIDTH 480 0
DWIDTH 8 0
BBX 8 16 0 -2
BITMAP
F8
18
18
18
18
18
18
18
18
18
18
18
18
18
18
F8
ENDCHAR
STARTCHAR 005E
ENCODING 94
SWIDTH 480 0
DWIDTH 8 0
BBX 8 16 0 -2
BITMAP
18
34
66
C3
00
00
00
00
00
00
00
00
00
00
00
00
ENDCHAR
STARTCHAR 005F
ENCODING 95
SWIDTH 480 0
DWIDTH 8 0
BBX 8 16 0 -2
BITMAP
00
00
00
00
00
00
00
00
00
00
00
00
00
00
FF
00
ENDCHAR
STARTCHAR 0060
ENCODING 96
SWIDTH 480 0
DWIDTH 8 0
BBX 8 16 0 -2
BITMAP
38
30
30
18
00
00
00
00
00
00
00
00
00
00
00
00
ENDCHAR
STARTCHAR 0061
ENCODING 97
SWIDTH 480 0
DWIDTH 8 0
BBX 8 16 0 -2
BITMAP
00
00
00
00
00
3E
63
03
3F
63
C3
C3
C7
7D
00
00
ENDCHAR
STARTCHAR 0062
ENCODING 98
SWIDTH 480 0
DWIDTH 8 0
BBX 8 16 0 -2
BITMAP
00
C0
C0
C0
C0
DC
E6
C3
C3
C3
C3
C3
E6
DC
00
00
ENDCHAR
STARTCHAR 0063
ENCODING 99
SWIDTH 480 0
DWIDTH 8 0
BBX 8 16 0 -2
BITMAP
00
00
00
00
00
3C
66
C3
C0
C0
C0
C3
66
3C
00
00
ENDCHAR
STARTCHAR 0064
ENCODING 100
SWIDTH 480 0
DWIDTH 8 0
BBX 8 16 0 -2
BITMAP
00
03
03
03
03
3D
67
C3
C3
C3
C3
C3
67
3D
00
00
ENDCHAR
STARTCHAR 0065
ENCODING 101
SWIDTH 480 0
DWIDTH 8 0
BBX 8 16 0 -2
BITMAP
00
00
00
00
00
3C
66
C3
C3
FF
C0
C3
66
3C
00
00
ENDCHAR
STARTCHAR 0066
ENCODING 102
SWIDTH 480 0
DWIDTH 8 0
BBX 8 16 0 -2
BITMAP
00
0E
18
18
18
7E
18
18
18
18
18
18
18
18
00
00
ENDCHAR
STARTCHAR 0067
ENCODING 103
SWIDTH 480 0
DWIDTH 8 0
BBX 8 16 0 -2
BITMAP
00
00
00
00
00
3D
66
66
66
3C
60
7C
C6
C3
C3
7E
ENDCHAR
STARTCHAR 0068
ENCODING 104
SWIDTH 480 0
DWIDTH 8 0
BBX 8 16 0 -2
BITMAP
00
60
60
60
60
6E
73
63
63
63
63
63
63
63
00
00
ENDCHAR
STARTCHAR 0069
ENCODING 105
SWIDTH 480 0
DWIDTH 8 0
BBX 8 16 0 -2
BITMAP
00
18
18
00
00
38
18
18
18
18
18
18
18
18
00
00
ENDCHAR
STARTCHAR 006A
ENCODING 106
SWIDTH 480 0
DWIDTH 8 0
BBX 8 16 0 -2
BITMAP
00
0C
0C
00
00
1C
0C
0C
0C
0C
0C
0C
0C
0C
18
70
ENDCHAR
STARTCHAR 006B
ENCODING 107
SWIDTH 480 0
DWIDTH 8 0
BBX 8 16 0 -2
BITMAP
00
60
60
60
60
63
66
6C
68
74
66
66
63
63
00
00
ENDCHAR
STARTCHAR 006C
ENCODING 108
SWIDTH 480 0
DWIDTH 8 0
BBX 8 16 0 -2
BITMAP
00
38
18
18
18
18
18
18
18
18
18
18
18
18
00
00
ENDCHAR
STARTCHAR 006D
ENCODING 109
SWIDTH 480 0
DWIDTH 8 0
BBX 8 16 0 -2
BITMAP
00
00
00
00
00
F6
DB
DB
DB
DB
DB
DB
DB
DB
00
00
ENDCHAR
STARTCHAR 006E
ENCODING 110
SWIDTH 480 0
DWIDTH 8 0
BBX 8 16 0 -2
BITMAP
00
00
00
00
00
6E
73
63
63
63
63
63
63
63
00
00
ENDCHAR
STARTCHAR 006F
ENCODING 111
SWIDTH 480 0
DWIDTH 8 0
BBX 8 16 0 -2
BITMAP
00
00
00
00
00
3C
66
C3
C3
C3
C3
C3
66
3C
00
00
ENDCHAR
STARTCHAR 0070
ENCODING 112
SWIDTH 480 0
DWIDTH 8 0
BBX 8 16 0 -2
BITMAP
00
00
00
00
00
DC
E6
C3
C3
C3
C3
E6
DC
C0
C0
C0
ENDCHAR
STARTCHAR 0071
ENCODING 113
SWIDTH 480 0
DWIDTH 8 0
BBX 8 16 0 -2
BITMAP
00
00
00
00
00
3D
67
C3
C3
C3
C3
67
3D
03
03
03
ENDCHAR
STARTCHAR 0072
ENCODING 114
SWIDTH 480 0
DWIDTH 8 0
BBX 8 16 0 -2
BITMAP
00
00
00
00
00
36
38
30
30
30
30
30
30
30
00
00
ENDCHAR
STARTCHAR 0073
ENCODING 115
SWIDTH 480 0
DWIDTH 8 0
BBX 8 16 0 -2
BITMAP
00
00
00
00
00
3E
63
60
70
1C
07
03
63
3E
00
00
ENDCHAR
STARTCHAR 0074
ENCODING 116
SWIDTH 480 0
DWIDTH 8 0
BBX 8 16 0 -2
BITMAP
00
00
18
18
18
7E
18
18
18
18
18
18
18
0E
00
00
ENDCHAR
STARTCHAR 0075
ENCODING 117
SWIDTH 480 0
DWIDTH 8 0
BBX 8 16 0 -2
BITMAP
00
00
00
00
00
63
63
63
63
63
63
63
67
3D
00
00
ENDCHAR
STARTCHAR 0076
ENCODING 118
SWIDTH 480 0
DWIDTH 8 0
BBX 8 16 0 -2
BITMAP
00
00
00
00
00
C3
C3
C3
66
66
34
34
18
18
00
00
ENDCHAR
STARTCHAR 0077
ENCODING 119
SWIDTH 480 0
DWIDTH 8 0
BBX 8 16 0 -2
BITMAP
00
00
00
00
00
DB
DB
DB
DB
D5
D5
66
66
66
00
00
ENDCHAR
STARTCHAR 0078
ENCODING 120
SWIDTH 480 0
DWIDTH 8 0
BBX 8 16 0 -2
BITMAP
00
00
00
00
00
C3
66
34
34
18
34
34
66
C3
00
00
ENDCHAR
STARTCHAR 0079
ENCODING 121
SWIDTH 480 0
DWIDTH 8 0
BBX 8 16 0 -2
BITMAP
00
00
00
00
00
C3
C3
66
66
34
34
1C
18
18
30
E0
ENDCHAR
STARTCHAR 007A
ENCODING 122
SWIDTH 480 0
DWIDTH 8 0
BBX 8 16 0 -2
BITMAP
00
00
00
00
00
7F
06
0C
0C
18
18
30
60
FF
00
00
ENDCHAR
STARTCHAR 007B
ENCODING 123
SWIDTH 480 0
DWIDTH 8 0
BBX 8 16 0 -2
BITMAP
06
0C
0C
0C
0C
0C
0C
18
0C
0C
0C
0C
0C
0C
0C
06
ENDCHAR
STARTCHAR 007C
ENCODING 124
SWIDTH 480 0
DWIDTH 8 0
BBX 8 16 0 -2
BITMAP
18
18
18
18
18
18
18
18
18
18
18
18
18
18
18
18
ENDCHAR
STARTCHAR 007D
ENCODING 125
SWIDTH 480 0
DWIDTH 8 0
BBX 8 16 0 -2
BITMAP
60
30
30
30
30
30
30
18
30
30
30
30
30
30
30
60
ENDCHAR
STARTCHAR 007E
ENCODING 126
SWIDTH 480 0
DWIDTH 8 0
BBX 8 16 0 -2
BITMAP
FF
00
00
00
00
00
00
00
00
00
00
00
00
00
00
00
ENDCHAR
STARTCHAR 00A0
ENCODING 160
SWIDTH 480 0
DWIDTH 8 0
BBX 8 16 0 -2
BITMAP
00
00
00
00
00
00
00
00
00
00
00
00
00
00
00
00
ENDCHAR
STARTCHAR 00A1
ENCODING 161
SWIDTH 480 0
DWIDTH 8 0
BBX 8 16 0 -2
BITMAP
00
18
18
00
00
18
18
18
18
18
18
18
38
38
38
38
ENDCHAR
STARTCHAR 00A2
ENCODING 162
SWIDTH 480 0
DWIDTH 8 0
BBX 8 16 0 -2
BITMAP
00
00
18
3E
6B
DB
D8
D8
D8
D8
D8
DB
6B
3E
18
00
ENDCHAR
STARTCHAR 00A3
ENCODING 163
SWIDTH 480 0
DWIDTH 8 0
BBX 8 16 0 -2
BITMAP
00
00
00
00
0E
1B
18
18
18
7E
18
18
3E
6B
30
00
ENDCHAR
STARTCHAR 00A4
ENCODING 164
SWIDTH 480 0
DWIDTH 8 0
BBX 8 16 0 -2
BITMAP
00
00
00
00
00
63
3E
36
36
3E
63
00
00
00
00
00
ENDCHAR
STARTCHAR 00A5
ENCODING 165
SWIDTH 480 0
DWIDTH 8 0
BBX 8 16 0 -2
BITMAP
00
C0
C0
60
60
30
30
18
18
0C
0C
06
06
03
03
00
ENDCHAR
STARTCHAR 00A6
ENCODING 166
SWIDTH 480 0
DWIDTH 8 0
BBX 8 16 0 -2
BITMAP
00
18
18
18
18
18
00
00
00
18
18
18
18
18
00
00
ENDCHAR
STARTCHAR 00A7
ENCODING 167
SWIDTH 960 0
DWIDTH 16 0
BBX 7 16 4 -2
BITMAP
38
6C
C6
E6
70
78
DC
CE
E6
76
3C
1C
CE
C6
6C
38
ENDCHAR
STARTCHAR 00A8
ENCODING 168
SWIDTH 960 0
DWIDTH 16 0
BBX 7 2 4 12
BITMAP
EE
EE
ENDCHAR
STARTCHAR 00A9
ENCODING 169
SWIDTH 480 0
DWIDTH 8 0
BBX 8 12 0 0
BITMAP
3E
63
DD
D6
D1
D1
D1
D6
D6
DD
63
3E
ENDCHAR
STARTCHAR 00AA
ENCODING 170
SWIDTH 480 0
DWIDTH 8 0
BBX 6 8 2 5
BITMAP
78
CC
7C
CC
DC
74
00
FC
ENDCHAR
STARTCHAR 00AB
ENCODING 171
SWIDTH 480 0
DWIDTH 8 0
BBX 8 10 0 1
BITMAP
0D
1B
36
6C
D8
D8
6C
36
1B
0D
ENDCHAR
STARTCHAR 00AC
ENCODING 172
SWIDTH 480 0
DWIDTH 8 0
BBX 8 4 0 3
BITMAP
FF
FF
07
07
ENDCHAR
STARTCHAR 00AD
ENCODING 173
SWIDTH 480 0
DWIDTH 8 0
BBX 8 2 0 5
BITMAP
FF
FF
ENDCHAR
STARTCHAR 00AE
ENCODING 174
SWIDTH 480 0
DWIDTH 8 0
BBX 8 12 0 0
BITMAP
3E
63
DD
D6
D6
DD
D5
D6
D6
D3
63
3E
ENDCHAR
STARTCHAR 00AF
ENCODING 175
SWIDTH 480 0
DWIDTH 8 0
BBX 8 1 0 11
BITMAP
FF
ENDCHAR
STARTCHAR 00B0
ENCODING 176
SWIDTH 960 0
DWIDTH 16 0
BBX 5 4 0 9
BITMAP
70
D8
D8
70
ENDCHAR
STARTCHAR 00B1
ENCODING 177
SWIDTH 960 0
DWIDTH 16 0
BBX 13 12 2 0
BITMAP
0600
0600
0600
0600
FFF0
0600
0600
0600
0600
0000
0000
FFF8
ENDCHAR
STARTCHAR 00B2
ENCODING 178
SWIDTH 480 0
DWIDTH 8 0
BBX 5 7 2 6
BITMAP
70
D8
18
30
60
C0
F8
ENDCHAR
STARTCHAR 00B3
ENCODING 179
SWIDTH 480 0
DWIDTH 8 0
BBX 5 7 2 6
BITMAP
70
D8
18
70
18
D8
70
ENDCHAR
STARTCHAR 00B4
ENCODING 180
SWIDTH 960 0
DWIDTH 16 0
BBX 4 4 5 10
BITMAP
30
30
60
C0
ENDCHAR
STARTCHAR 00B5
ENCODING 181
SWIDTH 480 0
DWIDTH 8 0
BBX 8 9 0 -2
BITMAP
33
33
33
66
66
76
6A
C3
C0
ENDCHAR
STARTCHAR 00B6
ENCODING 182
SWIDTH 960 0
DWIDTH 16 0
BBX 9 15 2 -2
BITMAP
3F80
7D80
FD80
FD80
7D80
3D80
0D80
0D80
0D80
0D80
0D80
0D80
0D80
0D80
0D80
ENDCHAR
STARTCHAR 00B7
ENCODING 183
SWIDTH 480 0
DWIDTH 8 0
BBX 8 16 0 -2
BITMAP
00
00
00
00
00
00
1C
1C
00
00
00
00
00
00
00
00
ENDCHAR
STARTCHAR 00B8
ENCODING 184
SWIDTH 480 0
DWIDTH 8 0
BBX 8 16 0 -2
BITMAP
00
00
00
00
00
00
00
00
00
00
00
00
00
0E
0C
18
ENDCHAR
STARTCHAR 00B9
ENCODING 185
SWIDTH 480 0
DWIDTH 8 0
BBX 8 16 0 -2
BITMAP
00
0C
1C
34
0C
0C
0C
0C
00
00
00
00
00
00
00
00
ENDCHAR
STARTCHAR 00BA
ENCODING 186
SWIDTH 480 0
DWIDTH 8 0
BBX 8 16 0 -2
BITMAP
00
1C
36
36
36
36
1C
00
3E
00
00
00
00
00
00
00
ENDCHAR
STARTCHAR 00BB
ENCODING 187
SWIDTH 480 0
DWIDTH 8 0
BBX 8 16 0 -2
BITMAP
00
00
00
00
D8
6C
36
1B
0D
0D
1B
36
6C
D8
00
00
ENDCHAR
STARTCHAR 00BC
ENCODING 188
SWIDTH 480 0
DWIDTH 8 0
BBX 8 16 0 -2
BITMAP
00
60
E6
66
6C
6C
68
1B
33
37
6D
6F
C3
C3
00
00
ENDCHAR
STARTCHAR 00BD
ENCODING 189
SWIDTH 480 0
DWIDTH 8 0
BBX 8 16 0 -2
BITMAP
00
60
E6
66
6C
6C
68
1E
3B
33
66
6C
CC
DF
00
00
ENDCHAR
STARTCHAR 00BE
ENCODING 190
SWIDTH 480 0
DWIDTH 8 0
BBX 8 16 0 -2
BITMAP
00
70
DB
1B
76
1A
DC
75
1B
1B
35
3F
63
63
00
00
ENDCHAR
STARTCHAR 00BF
ENCODING 191
SWIDTH 480 0
DWIDTH 8 0
BBX 8 16 0 -2
BITMAP
0C
0C
00
00
0C
0C
0C
18
30
30
61
61
61
33
1E
00
ENDCHAR
STARTCHAR 00C0
ENCODING 192
SWIDTH 480 0
DWIDTH 8 0
BBX 8 16 0 -2
BITMAP
38
18
0C
18
18
34
34
66
66
7E
C3
C3
C3
C3
00
00
ENDCHAR
STARTCHAR 00C1
ENCODING 193
SWIDTH 480 0
DWIDTH 8 0
BBX 8 16 0 -2
BITMAP
1C
18
30
18
18
34
34
66
66
7E
C3
C3
C3
C3
00
00
ENDCHAR
STARTCHAR 00C2
ENCODING 194
SWIDTH 480 0
DWIDTH 8 0
BBX 8 16 0 -2
BITMAP
18
3C
66
18
18
34
34
66
66
7E
C3
C3
C3
C3
00
00
ENDCHAR
STARTCHAR 00C3
ENCODING 195
SWIDTH 480 0
DWIDTH 8 0
BBX 8 16 0 -2
BITMAP
3A
6C
00
18
18
34
34
66
66
7E
C3
C3
C3
C3
00
00
ENDCHAR
STARTCHAR 00C4
ENCODING 196
SWIDTH 480 0
DWIDTH 8 0
BBX 8 16 0 -2
BITMAP
66
66
00
18
18
34
34
66
66
7E
C3
C3
C3
C3
00
00
ENDCHAR
STARTCHAR 00C5
ENCODING 197
SWIDTH 480 0
DWIDTH 8 0
BBX 8 16 0 -2
BITMAP
18
34
18
18
18
34
34
66
66
7E
C3
C3
C3
C3
00
00
ENDCHAR
STARTCHAR 00C6
ENCODING 198
SWIDTH 480 0
DWIDTH 8 0
BBX 8 16 0 -2
BITMAP
00
00
1F
34
34
34
37
6C
6C
7C
CC
CC
CC
CF
00
00
ENDCHAR
STARTCHAR 00C7
ENCODING 199
SWIDTH 480 0
DWIDTH 8 0
BBX 8 16 0 -2
BITMAP
00
3C
66
63
C0
C0
C0
C0
C0
C0
63
66
3C
0C
0C
18
ENDCHAR
STARTCHAR 00C8
ENCODING 200
SWIDTH 480 0
DWIDTH 8 0
BBX 8 16 0 -2
BITMAP
38
18
0C
FF
C0
C0
C0
FE
C0
C0
C0
C0
C0
FF
00
00
ENDCHAR
STARTCHAR 00C9
ENCODING 201
SWIDTH 480 0
DWIDTH 8 0
BBX 8 16 0 -2
BITMAP
1C
18
30
FF
C0
C0
C0
FE
C0
C0
C0
C0
C0
FF
00
00
ENDCHAR
STARTCHAR 00CA
ENCODING 202
SWIDTH 480 0
DWIDTH 8 0
BBX 8 16 0 -2
BITMAP
18
3C
66
FF
C0
C0
C0
FE
C0
C0
C0
C0
C0
FF
00
00
ENDCHAR
STARTCHAR 00CB
ENCODING 203
SWIDTH 480 0
DWIDTH 8 0
BBX 8 16 0 -2
BITMAP
66
66
00
FF
C0
C0
C0
FE
C0
C0
C0
C0
C0
FF
00
00
ENDCHAR
STARTCHAR 00CC
ENCODING 204
SWIDTH 480 0
DWIDTH 8 0
BBX 8 16 0 -2
BITMAP
38
18
0C
3C
18
18
18
18
18
18
18
18
18
3C
00
00
ENDCHAR
STARTCHAR 00CD
ENCODING 205
SWIDTH 480 0
DWIDTH 8 0
BBX 8 16 0 -2
BITMAP
1C
18
30
3C
18
18
18
18
18
18
18
18
18
3C
00
00
ENDCHAR
STARTCHAR 00CE
ENCODING 206
SWIDTH 480 0
DWIDTH 8 0
BBX 8 16 0 -2
BITMAP
18
3C
66
3C
18
18
18
18
18
18
18
18
18
3C
00
00
ENDCHAR
STARTCHAR 00CF
ENCODING 207
SWIDTH 480 0
DWIDTH 8 0
BBX 8 16 0 -2
BITMAP
66
66
00
3C
18
18
18
18
18
18
18
18
18
3C
00
00
ENDCHAR
STARTCHAR 00D0
ENCODING 208
SWIDTH 480 0
DWIDTH 8 0
BBX 8 16 0 -2
BITMAP
00
78
6C
66
66
63
63
FB
63
63
66
66
6C
78
00
00
ENDCHAR
STARTCHAR 00D1
ENCODING 209
SWIDTH 480 0
DWIDTH 8 0
BBX 8 16 0 -2
BITMAP
3A
6C
C3
C3
E3
E3
D3
D3
DB
CD
CD
C7
C7
C3
00
00
ENDCHAR
STARTCHAR 00D2
ENCODING 210
SWIDTH 480 0
DWIDTH 8 0
BBX 8 16 0 -2
BITMAP
38
18
0C
3C
66
C3
C3
C3
C3
C3
C3
C3
66
3C
00
00
ENDCHAR
STARTCHAR 00D3
ENCODING 211
SWIDTH 480 0
DWIDTH 8 0
BBX 8 16 0 -2
BITMAP
1C
18
30
3C
66
C3
C3
C3
C3
C3
C3
C3
66
3C
00
00
ENDCHAR
STARTCHAR 00D4
ENCODING 212
SWIDTH 480 0
DWIDTH 8 0
BBX 8 16 0 -2
BITMAP
18
3C
66
3C
66
C3
C3
C3
C3
C3
C3
C3
66
3C
00
00
ENDCHAR
STARTCHAR 00D5
ENCODING 213
SWIDTH 480 0
DWIDTH 8 0
BBX 8 16 0 -2
BITMAP
3A
6C
00
3C
66
C3
C3
C3
C3
C3
C3
C3
66
3C
00
00
ENDCHAR
STARTCHAR 00D6
ENCODING 214
SWIDTH 480 0
DWIDTH 8 0
BBX 8 16 0 -2
BITMAP
66
66
00
3C
66
C3
C3
C3
C3
C3
C3
C3
66
3C
00
00
ENDCHAR
STARTCHAR 00D7
ENCODING 215
SWIDTH 960 0
DWIDTH 16 0
BBX 11 10 2 1
BITMAP
C060
60C0
3180
1B00
0E00
0E00
1B00
3180
60C0
C060
ENDCHAR
STARTCHAR 00D8
ENCODING 216
SWIDTH 480 0
DWIDTH 8 0
BBX 8 16 0 -2
BITMAP
03
03
3E
66
C7
CD
CD
DB
DB
D3
D3
E3
66
7C
C0
C0
ENDCHAR
STARTCHAR 00D9
ENCODING 217
SWIDTH 480 0
DWIDTH 8 0
BBX 8 16 0 -2
BITMAP
38
18
0C
C3
C3
C3
C3
C3
C3
C3
C3
C3
66
3C
00
00
ENDCHAR
STARTCHAR 00DA
ENCODING 218
SWIDTH 480 0
DWIDTH 8 0
BBX 8 16 0 -2
BITMAP
1C
18
30
C3
C3
C3
C3
C3
C3
C3
C3
C3
66
3C
00
00
ENDCHAR
STARTCHAR 00DB
ENCODING 219
SWIDTH 480 0
DWIDTH 8 0
BBX 8 16 0 -2
BITMAP
18
3C
66
00
C3
C3
C3
C3
C3
C3
C3
C3
66
3C
00
00
ENDCHAR
STARTCHAR 00DC
ENCODING 220
SWIDTH 480 0
DWIDTH 8 0
BBX 8 16 0 -2
BITMAP
66
66
00
C3
C3
C3
C3
C3
C3
C3
C3
C3
66
3C
00
00
ENDCHAR
STARTCHAR 00DD
ENCODING 221
SWIDTH 480 0
DWIDTH 8 0
BBX 8 16 0 -2
BITMAP
1C
18
D3
C3
66
66
34
34
18
18
18
18
18
18
00
00
ENDCHAR
STARTCHAR 00DE
ENCODING 222
SWIDTH 480 0
DWIDTH 8 0
BBX 8 16 0 -2
BITMAP
C0
C0
FC
C6
C3
C3
C6
FC
C0
C0
C0
C0
C0
C0
00
00
ENDCHAR
STARTCHAR 00DF
ENCODING 223
SWIDTH 480 0
DWIDTH 8 0
BBX 8 16 0 -2
BITMAP
00
7C
C6
C3
C3
C6
DC
C6
C3
C3
C3
C3
C6
DC
00
00
ENDCHAR
STARTCHAR 00E0
ENCODING 224
SWIDTH 480 0
DWIDTH 8 0
BBX 8 16 0 -2
BITMAP
00
38
18
0C
00
3E
63
03
3F
63
C3
C3
C7
7D
00
00
ENDCHAR
STARTCHAR 00E1
ENCODING 225
SWIDTH 480 0
DWIDTH 8 0
BBX 8 16 0 -2
BITMAP
00
1C
18
30
00
3E
63
03
3F
63
C3
C3
C7
7D
00
00
ENDCHAR
STARTCHAR 00E2
ENCODING 226
SWIDTH 480 0
DWIDTH 8 0
BBX 8 16 0 -2
BITMAP
00
18
3C
66
00
3E
63
03
3F
63
C3
C3
C7
7D
00
00
ENDCHAR
STARTCHAR 00E3
ENCODING 227
SWIDTH 480 0
DWIDTH 8 0
BBX 8 16 0 -2
BITMAP
00
3A
6C
00
00
3E
63
03
3F
63
C3
C3
C7
7D
00
00
ENDCHAR
STARTCHAR 00E4
ENCODING 228
SWIDTH 480 0
DWIDTH 8 0
BBX 8 16 0 -2
BITMAP
00
00
36
36
00
3E
63
03
3F
63
C3
C3
C7
7D
00
00
ENDCHAR
STARTCHAR 00E5
ENCODING 229
SWIDTH 480 0
DWIDTH 8 0
BBX 8 16 0 -2
BITMAP
00
18
34
18
00
3E
63
03
3F
63
C3
C3
C7
7D
00
00
ENDCHAR
STARTCHAR 00E6
ENCODING 230
SWIDTH 480 0
DWIDTH 8 0
BBX 8 16 0 -2
BITMAP
00
00
00
00
00
76
DB
1B
3F
68
D8
DB
DB
76
00
00
ENDCHAR
STARTCHAR 00E7
ENCODING 231
SWIDTH 480 0
DWIDTH 8 0
BBX 8 16 0 -2
BITMAP
00
00
00
00
3C
66
C3
C0
C0
C0
C3
66
3C
18
18
30
ENDCHAR
STARTCHAR 00E8
ENCODING 232
SWIDTH 480 0
DWIDTH 8 0
BBX 8 16 0 -2
BITMAP
00
38
18
0C
00
3C
66
C3
C3
FF
C0
C3
66
3C
00
00
ENDCHAR
STARTCHAR 00E9
ENCODING 233
SWIDTH 480 0
DWIDTH 8 0
BBX 8 16 0 -2
BITMAP
00
1C
18
30
00
3C
66
C3
C3
FF
C0
C3
66
3C
00
00
ENDCHAR
STARTCHAR 00EA
ENCODING 234
SWIDTH 480 0
DWIDTH 8 0
BBX 8 16 0 -2
BITMAP
00
18
3C
66
00
3C
66
C3
C3
FF
C0
C3
66
3C
00
00
ENDCHAR
STARTCHAR 00EB
ENCODING 235
SWIDTH 480 0
DWIDTH 8 0
BBX 8 16 0 -2
BITMAP
00
66
66
00
00
3C
66
C3
C3
FF
C0
C3
66
3C
00
00
ENDCHAR
STARTCHAR 00EC
ENCODING 236
SWIDTH 480 0
DWIDTH 8 0
BBX 8 16 0 -2
BITMAP
00
38
18
0C
00
38
18
18
18
18
18
18
18
18
00
00
ENDCHAR
STARTCHAR 00ED
ENCODING 237
SWIDTH 480 0
DWIDTH 8 0
BBX 8 16 0 -2
BITMAP
00
1C
18
30
00
38
18
18
18
18
18
18
18
18
00
00
ENDCHAR
STARTCHAR 00EE
ENCODING 238
SWIDTH 480 0
DWIDTH 8 0
BBX 8 16 0 -2
BITMAP
00
18
3C
66
00
38
18
18
18
18
18
18
18
18
00
00
ENDCHAR
STARTCHAR 00EF
ENCODING 239
SWIDTH 480 0
DWIDTH 8 0
BBX 8 16 0 -2
BITMAP
00
66
66
00
00
38
18
18
18
18
18
18
18
18
00
00
ENDCHAR
STARTCHAR 00F0
ENCODING 240
SWIDTH 480 0
DWIDTH 8 0
BBX 8 16 0 -2
BITMAP
00
76
1C
38
6C
3C
66
C3
C3
C3
C3
C3
66
3C
00
00
ENDCHAR
STARTCHAR 00F1
ENCODING 241
SWIDTH 480 0
DWIDTH 8 0
BBX 8 16 0 -2
BITMAP
00
3A
6C
00
00
6E
73
63
63
63
63
63
63
63
00
00
ENDCHAR
STARTCHAR 00F2
ENCODING 242
SWIDTH 480 0
DWIDTH 8 0
BBX 8 16 0 -2
BITMAP
00
38
18
0C
00
3C
66
C3
C3
C3
C3
C3
66
3C
00
00
ENDCHAR
STARTCHAR 00F3
ENCODING 243
SWIDTH 480 0
DWIDTH 8 0
BBX 8 16 0 -2
BITMAP
00
1C
18
30
00
3C
66
C3
C3
C3
C3
C3
66
3C
00
00
ENDCHAR
STARTCHAR 00F4
ENCODING 244
SWIDTH 480 0
DWIDTH 8 0
BBX 8 16 0 -2
BITMAP
00
18
3C
66
00
3C
66
C3
C3
C3
C3
C3
66
3C
00
00
ENDCHAR
STARTCHAR 00F5
ENCODING 245
SWIDTH 480 0
DWIDTH 8 0
BBX 8 16 0 -2
BITMAP
00
3A
6C
00
00
3C
66
C3
C3
C3
C3
C3
66
3C
00
00
ENDCHAR
STARTCHAR 00F6
ENCODING 246
SWIDTH 480 0
DWIDTH 8 0
BBX 8 16 0 -2
BITMAP
00
66
66
00
00
3C
66
C3
C3
C3
C3
C3
66
3C
00
00
ENDCHAR
STARTCHAR 00F7
ENCODING 247
SWIDTH 960 0
DWIDTH 16 0
BBX 13 9 1 2
BITMAP
0700
0700
0000
0000
FFF8
0000
0000
0700
0700
ENDCHAR
STARTCHAR 00F8
ENCODING 248
SWIDTH 480 0
DWIDTH 8 0
BBX 8 9 0 0
BITMAP
3D
66
CD
CD
DB
D3
D3
66
DC
ENDCHAR
STARTCHAR 00F9
ENCODING 249
SWIDTH 480 0
DWIDTH 8 0
BBX 7 13 1 0
BITMAP
70
30
18
00
C6
C6
C6
C6
C6
C6
C6
CE
7A
ENDCHAR
STARTCHAR 00FA
ENCODING 250
SWIDTH 480 0
DWIDTH 8 0
BBX 7 13 1 0
BITMAP
38
30
60
00
C6
C6
C6
C6
C6
C6
C6
CE
7A
ENDCHAR
STARTCHAR 00FB
ENCODING 251
SWIDTH 480 0
DWIDTH 8 0
BBX 7 13 1 0
BITMAP
30
78
CC
00
C6
C6
C6
C6
C6
C6
C6
CE
7A
ENDCHAR
STARTCHAR 00FC
ENCODING 252
SWIDTH 480 0
DWIDTH 8 0
BBX 7 13 1 0
BITMAP
6C
6C
00
00
C6
C6
C6
C6
C6
C6
C6
CE
7A
ENDCHAR
STARTCHAR 00FD
ENCODING 253
SWIDTH 480 0
DWIDTH 8 0
BBX 7 15 1 -2
BITMAP
1C
18
30
00
C6
C6
66
6C
34
18
18
30
30
60
C0
ENDCHAR
STARTCHAR 00FE
ENCODING 254
SWIDTH 480 0
DWIDTH 8 0
BBX 7 14 1 -2
BITMAP
C0
C0
C0
F8
CC
C6
C6
C6
CC
F8
C0
C0
C0
C0
ENDCHAR
STARTCHAR 00FF
ENCODING 255
SWIDTH 480 0
DWIDTH 8 0
BBX 7 15 1 -2
BITMAP
6C
6C
00
00
C6
C6
66
6C
34
18
18
30
30
60
C0
ENDCHAR
STARTCHAR 0391
ENCODING 913
SWIDTH 960 0
DWIDTH 16 0
BBX 16 16 0 -2
BITMAP
0000
0180
0180
0340
0340
0660
0660
0C30
0FF0
0C30
1818
1818
300C
781E
0000
0000
ENDCHAR
STARTCHAR 0392
ENCODING 914
SWIDTH 960 0
DWIDTH 16 0
BBX 16 16 0 -2
BITMAP
0000
7FE0
1830
1818
1818
1830
1FE0
1830
1818
180C
180C
1818
1870
7FC0
0000
0000
ENDCHAR
STARTCHAR 0393
ENCODING 915
SWIDTH 960 0
DWIDTH 16 0
BBX 16 16 0 -2
BITMAP
0000
3FF8
0C18
0C0C
0C00
0C00
0C00
0C00
0C00
0C00
0C00
0C00
0C00
1E00
0000
0000
ENDCHAR
STARTCHAR 0394
ENCODING 916
SWIDTH 960 0
DWIDTH 16 0
BBX 16 16 0 -2
BITMAP
0000
0300
0300
0680
0680
0CC0
0CC0
1860
1860
1830
3030
3030
6018
FFFC
0000
0000
ENDCHAR
STARTCHAR 0395
ENCODING 917
SWIDTH 960 0
DWIDTH 16 0
BBX 16 16 0 -2
BITMAP
0000
7FF8
1818
180C
1800
1800
18C0
1FC0
18C0
1800
1800
180C
1818
7FF8
0000
0000
ENDCHAR
STARTCHAR 0396
ENCODING 918
SWIDTH 960 0
DWIDTH 16 0
BBX 16 16 0 -2
BITMAP
0000
1FF8
1830
3060
00C0
00C0
0180
0300
0300
0600
0C00
0C18
1818
3FF8
0000
0000
ENDCHAR
STARTCHAR 0397
ENCODING 919
SWIDTH 960 0
DWIDTH 16 0
BBX 16 16 0 -2
BITMAP
0000
783C
3018
3018
3018
3018
3018
3FF8
3018
3018
3018
3018
3018
783C
0000
0000
ENDCHAR
STARTCHAR 0398
ENCODING 920
SWIDTH 960 0
DWIDTH 16 0
BBX 16 16 0 -2
BITMAP
0000
07C0
1C70
3838
3018
600C
6C6C
6FEC
6C6C
600C
3018
3838
1C70
07C0
0000
0000
ENDCHAR
STARTCHAR 0399
ENCODING 921
SWIDTH 960 0
DWIDTH 16 0
BBX 16 16 0 -2
BITMAP
0000
0780
0300
0300
0300
0300
0300
0300
0300
0300
0300
0300
0300
0780
0000
0000
ENDCHAR
STARTCHAR 039A
ENCODING 922
SWIDTH 960 0
DWIDTH 16 0
BBX 16 16 0 -2
BITMAP
0000
3C3C
1830
1860
18C0
1980
1B00
1B00
1D80
18C0
1860
1830
1818
3C1E
0000
0000
ENDCHAR
STARTCHAR 039B
ENCODING 923
SWIDTH 960 0
DWIDTH 16 0
BBX 16 16 0 -2
BITMAP
0000
0180
0180
0340
0340
0660
0660
0C30
0C30
0C30
1818
1818
300C
781E
0000
0000
ENDCHAR
STARTCHAR 039C
ENCODING 924
SWIDTH 960 0
DWIDTH 16 0
BBX 16 16 0 -2
BITMAP
0000
E01C
6018
7038
7038
6868
6868
6CD8
6CD8
6CD8
6698
6698
6318
F33C
0000
0000
ENDCHAR
STARTCHAR 039D
ENCODING 925
SWIDTH 960 0
DWIDTH 16 0
BBX 16 16 0 -2
BITMAP
0000
783C
3818
3418
3418
3618
3318
3318
3198
30D8
30D8
3068
3038
7818
0000
0000
ENDCHAR
STARTCHAR 039E
ENCODING 926
SWIDTH 960 0
DWIDTH 16 0
BBX 16 16 0 -2
BITMAP
0000
7FFC
600C
0000
0000
0000
3018
3FF8
3018
0000
0000
0000
600C
7FFC
0000
0000
ENDCHAR
STARTCHAR 039F
ENCODING 927
SWIDTH 960 0
DWIDTH 16 0
BBX 16 16 0 -2
BITMAP
0000
07C0
1C70
3838
3018
600C
600C
600C
600C
600C
3018
3838
1C70
07C0
0000
0000
ENDCHAR
STARTCHAR 03A0
ENCODING 928
SWIDTH 960 0
DWIDTH 16 0
BBX 16 16 0 -2
BITMAP
0000
3FF8
1830
1830
1830
1830
1830
1830
1830
1830
1830
1830
1830
3C78
0000
0000
ENDCHAR
STARTCHAR 03A1
ENCODING 929
SWIDTH 960 0
DWIDTH 16 0
BBX 16 16 0 -2
BITMAP
0000
3FE0
0C38
0C0C
0C0C
0C0C
0C38
0FE0
0C00
0C00
0C00
0C00
0C00
1E00
0000
0000
ENDCHAR
STARTCHAR 03A3
ENCODING 931
SWIDTH 960 0
DWIDTH 16 0
BBX 16 16 0 -2
BITMAP
0000
3FF0
1830
0C18
0600
0300
0180
01C0
0180
0300
0600
0C18
1818
3FF8
0000
0000
ENDCHAR
STARTCHAR 03A4
ENCODING 932
SWIDTH 960 0
DWIDTH 16 0
BBX 16 16 0 -2
BITMAP
0000
7FF8
6318
C30C
0300
0300
0300
0300
0300
0300
0300
0300
0300
0780
0000
0000
ENDCHAR
STARTCHAR 03A5
ENCODING 933
SWIDTH 960 0
DWIDTH 16 0
BBX 16 16 0 -2
BITMAP
0000
1E78
334C
6186
0180
0180
0180
0180
0180
0180
0180
0180
0180
03C0
0000
0000
ENDCHAR
STARTCHAR 03A6
ENCODING 934
SWIDTH 960 0
DWIDTH 16 0
BBX 16 16 0 -2
BITMAP
0000
03C0
0180
07E0
1DB8
1998
318C
318C
318C
1998
1DB8
07E0
0180
03C0
0000
0000
ENDCHAR
STARTCHAR 03A7
ENCODING 935
SWIDTH 960 0
DWIDTH 16 0
BBX 16 16 0 -2
BITMAP
0000
7878
3030
1860
0CC0
0CC0
0680
0300
0680
0CC0
0CC0
1860
3030
7878
0000
0000
ENDCHAR
STARTCHAR 03A8
ENCODING 936
SWIDTH 960 0
DWIDTH 16 0
BBX 16 16 0 -2
BITMAP
0000
0780
E31C
B336
3330
3330
3330
3330
3B70
1B60
0FC0
0300
0300
0780
0000
0000
ENDCHAR
STARTCHAR 03A9
ENCODING 937
SWIDTH 960 0
DWIDTH 16 0
BBX 16 16 0 -2
BITMAP
0000
03C0
0E70
1C38
1818
300C
300C
300C
1818
1C38
0E70
334C
334C
3F7C
0000
0000
ENDCHAR
STARTCHAR 03B1
ENCODING 945
SWIDTH 960 0
DWIDTH 16 0
BBX 16 16 0 -2
BITMAP
0000
0000
0000
0000
0000
0018
0798
0CD0
18D0
18E0
30C0
31C0
3358
1E70
0000
0000
ENDCHAR
STARTCHAR 03B2
ENCODING 946
SWIDTH 960 0
DWIDTH 16 0
BBX 16 16 0 -2
BITMAP
0000
00F0
0198
0318
0318
0618
0630
0DE0
0C60
0C30
1830
1830
1A60
1BC0
3000
3000
ENDCHAR
STARTCHAR 03B3
ENCODING 947
SWIDTH 960 0
DWIDTH 16 0
BBX 16 16 0 -2
BITMAP
0000
0000
0000
0000
0000
0000
1E38
3360
6340
0380
0380
0300
0600
0600
0C00
0C00
ENDCHAR
STARTCHAR 03B4
ENCODING 948
SWIDTH 960 0
DWIDTH 16 0
BBX 16 16 0 -2
BITMAP
0000
0380
06E0
0630
0318
0180
0740
0CC0
1860
3060
30C0
30C0
1980
0F00
0000
0000
ENDCHAR
STARTCHAR 03B5
ENCODING 949
SWIDTH 960 0
DWIDTH 16 0
BBX 16 16 0 -2
BITMAP
0000
0000
0000
0000
0000
0000
03E0
0630
0600
03C0
0600
0C00
0C60
07C0
0000
0000
ENDCHAR
STARTCHAR 03B6
ENCODING 950
SWIDTH 960 0
DWIDTH 16 0
BBX 16 16 0 -2
BITMAP
0600
0C30
0C60
07C0
0180
0300
0600
0C00
1800
1800
0C00
0700
0180
00C0
00C0
0380
ENDCHAR
STARTCHAR 03B7
ENCODING 951
SWIDTH 960 0
DWIDTH 16 0
BBX 16 16 0 -2
BITMAP
0000
0000
0000
0000
0000
0000
1DE0
3730
0630
0C30
0C30
0C60
1860
1860
00C0
00C0
ENDCHAR
STARTCHAR 03B8
ENCODING 952
SWIDTH 960 0
DWIDTH 16 0
BBX 16 16 0 -2
BITMAP
0000
00E0
01B0
0318
0618
0618
0FF8
0C30
1830
1860
1860
18C0
0D80
0700
0000
0000
ENDCHAR
STARTCHAR 03B9
ENCODING 953
SWIDTH 960 0
DWIDTH 16 0
BBX 16 16 0 -2
BITMAP
0000
0000
0000
0000
0000
0000
0600
0600
0C00
0C00
1800
1860
19C0
0F00
0000
0000
ENDCHAR
STARTCHAR 03BA
ENCODING 954
SWIDTH 960 0
DWIDTH 16 0
BBX 16 16 0 -2
BITMAP
0000
0000
0000
0000
0000
0000
0C70
0CD8
0D80
0E00
1B00
1B00
3330
31E0
0000
0000
ENDCHAR
STARTCHAR 03BB
ENCODING 955
SWIDTH 960 0
DWIDTH 16 0
BBX 16 16 0 -2
BITMAP
0000
0180
00C0
00C0
00C0
00C0
00C0
01C0
0340
0340
0660
0C60
1830
3018
0000
0000
ENDCHAR
STARTCHAR 03BC
ENCODING 956
SWIDTH 960 0
DWIDTH 16 0
BBX 16 16 0 -2
BITMAP
0000
0000
0000
0000
0000
0000
0C60
0C60
0C60
0CC0
18C0
18C0
1DD8
3770
3000
6000
ENDCHAR
STARTCHAR 03BD
ENCODING 957
SWIDTH 960 0
DWIDTH 16 0
BBX 16 16 0 -2
BITMAP
0000
0000
0000
0000
0000
0000
3830
0C30
0C60
0C60
0CC0
1980
1B00
3C00
0000
0000
ENDCHAR
STARTCHAR 03BE
ENCODING 958
SWIDTH 960 0
DWIDTH 16 0
BBX 16 16 0 -2
BITMAP
0030
01E0
0300
0180
07E0
0C00
0C00
0600
1FC0
3000
3000
1E00
0380
00C0
00C0
1F80
ENDCHAR
STARTCHAR 03BF
ENCODING 959
SWIDTH 960 0
DWIDTH 16 0
BBX 16 16 0 -2
BITMAP
0000
0000
0000
0000
0000
0000
03C0
0660
0C30
1830
1830
1860
0CC0
0780
0000
0000
ENDCHAR
STARTCHAR 03C0
ENCODING 960
SWIDTH 960 0
DWIDTH 16 0
BBX 16 16 0 -2
BITMAP
0000
0000
0000
0000
0000
0018
1FF0
36C0
06C0
06C0
0D80
0D80
19B0
30E0
0000
0000
ENDCHAR
STARTCHAR 03C1
ENCODING 961
SWIDTH 960 0
DWIDTH 16 0
BBX 16 16 0 -2
BITMAP
0000
0000
0000
0000
0000
0000
03C0
0660
0C30
0C30
0C30
1830
1A60
1BC0
3000
3000
ENDCHAR
STARTCHAR 03C3
ENCODING 963
SWIDTH 960 0
DWIDTH 16 0
BBX 16 16 0 -2
BITMAP
0000
0000
0000
0000
0000
0018
01F0
0360
0630
0C30
0C30
0C60
06C0
0380
0000
0000
ENDCHAR
STARTCHAR 03C4
ENCODING 964
SWIDTH 960 0
DWIDTH 16 0
BBX 16 16 0 -2
BITMAP
0000
0000
0000
0000
0000
0018
1FF0
3300
0300
0600
0600
0C60
0CC0
0780
0000
0000
ENDCHAR
STARTCHAR 03C5
ENCODING 965
SWIDTH 960 0
DWIDTH 16 0
BBX 16 16 0 -2
BITMAP
0000
0000
0000
0000
0000
0000
0330
0318
0318
0330
0630
0660
06C0
0380
0000
0000
ENDCHAR
STARTCHAR 03C6
ENCODING 966
SWIDTH 960 0
DWIDTH 16 0
BBX 16 16 0 -2
BITMAP
0000
0060
0060
0060
00C0
00C0
03E0
0EB0
19B0
19B0
1B30
1B60
0F80
0600
0600
0600
ENDCHAR
STARTCHAR 03C7
ENCODING 967
SWIDTH 960 0
DWIDTH 16 0
BBX 16 16 0 -2
BITMAP
0000
0000
0000
0000
0000
0000
0E30
1B60
0340
0380
0300
0700
0D00
1B00
31B0
60E0
ENDCHAR
STARTCHAR 03C8
ENCODING 968
SWIDTH 960 0
DWIDTH 16 0
BBX 16 16 0 -2
BITMAP
0000
0060
0060
00C0
00C0
00C0
1998
3598
0DB0
0D30
1B60
1B40
0F80
0600
0600
0600
ENDCHAR
STARTCHAR 03C9
ENCODING 969
SWIDTH 960 0
DWIDTH 16 0
BBX 16 16 0 -2
BITMAP
0000
0000
0000
0000
0000
0000
0C30
19B0
3198
3198
6318
6318
66B0
3CE0
0000
0000
ENDCHAR
STARTCHAR 0401
ENCODING 1025
SWIDTH 960 0
DWIDTH 16 0
BBX 16 16 0 -2
BITMAP
0C30
0C30
0000
7FF0
1830
1818
1800
18C0
1FC0
18C0
1800
1818
1830
7FF0
0000
0000
ENDCHAR
STARTCHAR 0410
ENCODING 1040
SWIDTH 960 0
DWIDTH 16 0
BBX 16 16 0 -2
BITMAP
0000
0180
0180
0340
0340
0660
0660
0C30
0FF0
0C30
1818
1818
300C
781E
0000
0000
ENDCHAR
STARTCHAR 0411
ENCODING 1041
SWIDTH 960 0
DWIDTH 16 0
BBX 16 16 0 -2
BITMAP
0000
7FF0
1830
1818
1800
1800
1FE0
1830
1818
180C
180C
1818
1870
7FC0
0000
0000
ENDCHAR
STARTCHAR 0412
ENCODING 1042
SWIDTH 960 0
DWIDTH 16 0
BBX 16 16 0 -2
BITMAP
0000
7FE0
1830
1818
1818
1830
1FE0
1830
1818
180C
180C
1818
1870
7FC0
0000
0000
ENDCHAR
STARTCHAR 0413
ENCODING 1043
SWIDTH 960 0
DWIDTH 16 0
BBX 16 16 0 -2
BITMAP
0000
3FF8
0C18
0C0C
0C00
0C00
0C00
0C00
0C00
0C00
0C00
0C00
0C00
1E00
0000
0000
ENDCHAR
STARTCHAR 0414
ENCODING 1044
SWIDTH 960 0
DWIDTH 16 0
BBX 16 16 0 -2
BITMAP
0000
1FFC
0630
0630
0630
0630
0630
0630
0630
0630
0C30
0C30
1830
7FFC
600C
600C
ENDCHAR
STARTCHAR 0415
ENCODING 1045
SWIDTH 960 0
DWIDTH 16 0
BBX 16 16 0 -2
BITMAP
0000
7FF8
1818
180C
1800
1800
18C0
1FC0
18C0
1800
1800
180C
1818
7FF8
0000
0000
ENDCHAR
STARTCHAR 0416
ENCODING 1046
SWIDTH 960 0
DWIDTH 16 0
BBX 16 16 0 -2
BITMAP
0000
73CE
D99B
1998
1998
1998
0DB0
0FF0
1998
318C
318C
6186
6186
F3CF
0000
0000
ENDCHAR
STARTCHAR 0417
ENCODING 1047
SWIDTH 960 0
DWIDTH 16 0
BBX 16 16 0 -2
BITMAP
0000
07C0
1C70
3038
0018
0018
0030
07E0
0030
0018
0018
3030
1C70
07C0
0000
0000
ENDCHAR
STARTCHAR 0418
ENCODING 1048
SWIDTH 960 0
DWIDTH 16 0
BBX 16 16 0 -2
BITMAP
0000
783C
3038
3068
3068
30D8
3198
3198
3318
3618
3618
3418
3818
303C
0000
0000
ENDCHAR
STARTCHAR 0419
ENCODING 1049
SWIDTH 960 0
DWIDTH 16 0
BBX 16 16 0 -2
BITMAP
0EE0
0C60
7BDC
3038
3038
3068
30D8
3198
3198
3318
3618
3418
3818
303C
0000
0000
ENDCHAR
STARTCHAR 041A
ENCODING 1050
SWIDTH 960 0
DWIDTH 16 0
BBX 16 16 0 -2
BITMAP
0000
3C78
18CC
18C0
1980
1980
1B00
1F00
1980
18C0
1860
1830
1818
3C3C
0000
0000
ENDCHAR
STARTCHAR 041B
ENCODING 1051
SWIDTH 960 0
DWIDTH 16 0
BBX 16 16 0 -2
BITMAP
0000
1FF8
0630
0630
0630
0630
0630
0630
0630
0C30
0C30
1830
D030
E078
0000
0000
ENDCHAR
STARTCHAR 041C
ENCODING 1052
SWIDTH 960 0
DWIDTH 16 0
BBX 16 16 0 -2
BITMAP
0000
701C
3018
3838
3838
3468
3468
3668
36D8
66CC
634C
638C
618C
F99E
0000
0000
ENDCHAR
STARTCHAR 041D
ENCODING 1053
SWIDTH 960 0
DWIDTH 16 0
BBX 16 16 0 -2
BITMAP
0000
783C
3018
3018
3018
3018
3018
3FF8
3018
3018
3018
3018
3018
783C
0000
0000
ENDCHAR
STARTCHAR 041E
ENCODING 1054
SWIDTH 960 0
DWIDTH 16 0
BBX 16 16 0 -2
BITMAP
0000
07C0
1C70
3838
3018
600C
600C
600C
600C
600C
3018
3838
1C70
07C0
0000
0000
ENDCHAR
STARTCHAR 041F
ENCODING 1055
SWIDTH 960 0
DWIDTH 16 0
BBX 16 16 0 -2
BITMAP
0000
3FFC
1818
1818
1818
1818
1818
1818
1818
1818
1818
1818
1818
3C3C
0000
0000
ENDCHAR
STARTCHAR 0420
ENCODING 1056
SWIDTH 960 0
DWIDTH 16 0
BBX 16 16 0 -2
BITMAP
0000
3FE0
0C38
0C0C
0C0C
0C0C
0C38
0FE0
0C00
0C00
0C00
0C00
0C00
1E00
0000
0000
ENDCHAR
STARTCHAR 0421
ENCODING 1057
SWIDTH 960 0
DWIDTH 16 0
BBX 16 16 0 -2
BITMAP
0000
07C0
1C68
3838
3018
6000
6000
6000
6000
6000
3018
3838
1C70
07C0
0000
0000
ENDCHAR
STARTCHAR 0422
ENCODING 1058
SWIDTH 960 0
DWIDTH 16 0
BBX 16 16 0 -2
BITMAP
0000
7FF8
6318
C30C
0300
0300
0300
0300
0300
0300
0300
0300
0300
0780
0000
0000
ENDCHAR
STARTCHAR 0423
ENCODING 1059
SWIDTH 960 0
DWIDTH 16 0
BBX 16 16 0 -2
BITMAP
0000
3C3C
1818
0C30
0C30
0660
0660
0340
0340
0180
0180
0300
3600
1C00
0000
0000
ENDCHAR
STARTCHAR 0424
ENCODING 1060
SWIDTH 960 0
DWIDTH 16 0
BBX 16 16 0 -2
BITMAP
0000
03C0
0180
07E0
1DB8
1998
318C
318C
318C
1998
1DB8
07E0
0180
03C0
0000
0000
ENDCHAR
STARTCHAR 0425
ENCODING 1061
SWIDTH 960 0
DWIDTH 16 0
BBX 16 16 0 -2
BITMAP
0000
7878
3030
1860
0CC0
0CC0
0680
0300
0680
0CC0
0CC0
1860
3030
7878
0000
0000
ENDCHAR
STARTCHAR 0426
ENCODING 1062
SWIDTH 960 0
DWIDTH 16 0
BBX 16 16 0 -2
BITMAP
0000
7878
3030
3030
3030
3030
3030
3030
3030
3030
3030
3030
3030
7FFC
000C
000C
ENDCHAR
STARTCHAR 0427
ENCODING 1063
SWIDTH 960 0
DWIDTH 16 0
BBX 16 16 0 -2
BITMAP
0000
3C78
1830
1830
1830
1830
1830
0C70
07D0
0030
0030
0030
0030
0078
0000
0000
ENDCHAR
STARTCHAR 0428
ENCODING 1064
SWIDTH 960 0
DWIDTH 16 0
BBX 16 16 0 -2
BITMAP
0000
7BDE
318C
318C
318C
318C
318C
318C
318C
318C
318C
318C
318C
7FFE
0000
0000
ENDCHAR
STARTCHAR 0429
ENCODING 1065
SWIDTH 960 0
DWIDTH 16 0
BBX 16 16 0 -2
BITMAP
0000
7BDE
318C
318C
318C
318C
318C
318C
318C
318C
318C
318C
318C
7FFF
0003
0003
ENDCHAR
STARTCHAR 042A
ENCODING 1066
SWIDTH 960 0
DWIDTH 16 0
BBX 16 16 0 -2
BITMAP
0000
7F00
6600
C600
0600
0600
07F0
061C
060E
0606
0606
060E
061C
0FF0
0000
0000
ENDCHAR
STARTCHAR 042B
ENCODING 1067
SWIDTH 960 0
DWIDTH 16 0
BBX 16 16 0 -2
BITMAP
0000
783C
3018
3018
3018
3018
3E18
3398
31D8
30D8
30D8
31D8
3398
7E3C
0000
0000
ENDCHAR
STARTCHAR 042C
ENCODING 1068
SWIDTH 960 0
DWIDTH 16 0
BBX 16 16 0 -2
BITMAP
0000
3C00
1800
1800
1800
1800
1FC0
1870
1838
1818
1818
1838
1870
3FC0
0000
0000
ENDCHAR
STARTCHAR 042D
ENCODING 1069
SWIDTH 960 0
DWIDTH 16 0
BBX 16 16 0 -2
BITMAP
0000
07C0
1C70
1838
3018
001C
0F34
19EC
000C
000C
3018
1838
1C70
07C0
0000
0000
ENDCHAR
STARTCHAR 042E
ENCODING 1070
SWIDTH 960 0
DWIDTH 16 0
BBX 16 16 0 -2
BITMAP
0000
78F0
3198
330C
330C
3606
3606
3E06
3606
3606
330C
330C
3198
78F0
0000
0000
ENDCHAR
STARTCHAR 042F
ENCODING 1071
SWIDTH 960 0
DWIDTH 16 0
BBX 16 16 0 -2
BITMAP
0000
07F8
1C30
3030
3030
3030
1C30
07F0
0330
0630
0C30
0C30
3830
E078
0000
0000
ENDCHAR
STARTCHAR 0430
ENCODING 1072
SWIDTH 960 0
DWIDTH 16 0
BBX 16 16 0 -2
BITMAP
0000
0000
0000
0000
0000
07C0
0C60
0060
07A0
0CE0
1860
18E0
19A8
0F38
0000
0000
ENDCHAR
STARTCHAR 0431
ENCODING 1073
SWIDTH 960 0
DWIDTH 16 0
BBX 16 16 0 -2
BITMAP
0000
0030
03E0
0600
0C00
0C00
1BC0
1C60
1830
1830
1830
1830
0C60
07C0
0000
0000
ENDCHAR
STARTCHAR 0432
ENCODING 1074
SWIDTH 960 0
DWIDTH 16 0
BBX 16 16 0 -2
BITMAP
0000
0000
0000
0000
0000
1FE0
0C30
0C30
0C60
0FE0
0C30
0C30
0C30
1FE0
0000
0000
ENDCHAR
STARTCHAR 0433
ENCODING 1075
SWIDTH 960 0
DWIDTH 16 0
BBX 16 16 0 -2
BITMAP
0000
0000
0000
0000
0000
1FF0
0C30
0C30
0C00
0C00
0C00
0C00
0C00
1E00
0000
0000
ENDCHAR
STARTCHAR 0434
ENCODING 1076
SWIDTH 960 0
DWIDTH 16 0
BBX 16 16 0 -2
BITMAP
0000
0000
0000
0000
0000
0FF0
0660
0660
0660
0660
0660
0C60
0C60
3FF8
3018
3018
ENDCHAR
STARTCHAR 0435
ENCODING 1077
SWIDTH 960 0
DWIDTH 16 0
BBX 16 16 0 -2
BITMAP
0000
0000
0000
0000
0000
0780
0CC0
1860
1860
1FE0
1800
1800
0C60
07C0
0000
0000
ENDCHAR
STARTCHAR 0436
ENCODING 1078
SWIDTH 960 0
DWIDTH 16 0
BBX 16 16 0 -2
BITMAP
0000
0000
0000
0000
0000
3BDC
1998
0DB0
07E0
06A0
0DB0
0DB0
1998
33CC
0000
0000
ENDCHAR
STARTCHAR 0437
ENCODING 1079
SWIDTH 960 0
DWIDTH 16 0
BBX 16 16 0 -2
BITMAP
0000
0000
0000
0000
0000
07E0
0E30
0030
0060
03E0
0030
0030
0E30
07E0
0000
0000
ENDCHAR
STARTCHAR 0438
ENCODING 1080
SWIDTH 960 0
DWIDTH 16 0
BBX 16 16 0 -2
BITMAP
0000
0000
0000
0000
0000
1E3C
0C18
0C38
0C68
0CD8
0D98
0E18
0C18
1E3C
0000
0000
ENDCHAR
STARTCHAR 0439
ENCODING 1081
SWIDTH 960 0
DWIDTH 16 0
BBX 16 16 0 -2
BITMAP
0000
0000
0770
0630
03E0
1E3C
0C18
0C38
0C68
0CD8
0D98
0E18
0C18
1E3C
0000
0000
ENDCHAR
STARTCHAR 043A
ENCODING 1082
SWIDTH 960 0
DWIDTH 16 0
BBX 16 16 0 -2
BITMAP
0000
0000
0000
0000
0000
1E70
0CD0
0D80
0D00
0F00
0D80
0CC0
0C60
1E78
0000
0000
ENDCHAR
STARTCHAR 043B
ENCODING 1083
SWIDTH 960 0
DWIDTH 16 0
BBX 16 16 0 -2
BITMAP
0000
0000
0000
0000
0000
07F8
0330
0330
0330
0330
0330
3330
3630
1C78
0000
0000
ENDCHAR
STARTCHAR 043C
ENCODING 1084
SWIDTH 960 0
DWIDTH 16 0
BBX 16 16 0 -2
BITMAP
0000
0000
0000
0000
0000
3C3C
1C38
1A68
1A68
1B58
1B58
1998
1998
3C3C
0000
0000
ENDCHAR
STARTCHAR 043D
ENCODING 1085
SWIDTH 960 0
DWIDTH 16 0
BBX 16 16 0 -2
BITMAP
0000
0000
0000
0000
0000
1E78
0C30
0C30
0C30
0FF0
0C30
0C30
0C30
1E78
0000
0000
ENDCHAR
STARTCHAR 043E
ENCODING 1086
SWIDTH 960 0
DWIDTH 16 0
BBX 16 16 0 -2
BITMAP
0000
0000
0000
0000
0000
07C0
0C60
1830
1830
1830
1830
1830
0C60
07C0
0000
0000
ENDCHAR
STARTCHAR 043F
ENCODING 1087
SWIDTH 960 0
DWIDTH 16 0
BBX 16 16 0 -2
BITMAP
0000
0000
0000
0000
0000
3FF0
1860
1860
1860
1860
1860
1860
1860
3CF0
0000
0000
ENDCHAR
STARTCHAR 0440
ENCODING 1088
SWIDTH 960 0
DWIDTH 16 0
BBX 16 16 0 -2
BITMAP
0000
0000
0000
0000
0000
1DC0
0E60
0C30
0C30
0C30
0C30
0E60
0DC0
0C00
0C00
1E00
ENDCHAR
STARTCHAR 0441
ENCODING 1089
SWIDTH 960 0
DWIDTH 16 0
BBX 16 16 0 -2
BITMAP
0000
0000
0000
0000
0000
0780
0CC0
1860
1800
1800
1800
1860
0CC0
0780
0000
0000
ENDCHAR
STARTCHAR 0442
ENCODING 1090
SWIDTH 960 0
DWIDTH 16 0
BBX 16 16 0 -2
BITMAP
0000
0000
0000
0000
0000
3FF0
3330
3330
0300
0300
0300
0300
0300
0780
0000
0000
ENDCHAR
STARTCHAR 0443
ENCODING 1091
SWIDTH 960 0
DWIDTH 16 0
BBX 16 16 0 -2
BITMAP
0000
0000
0000
0000
0000
1E78
0C30
0C30
0660
0660
0340
0340
0180
0300
1B00
0E00
ENDCHAR
STARTCHAR 0444
ENCODING 1092
SWIDTH 960 0
DWIDTH 16 0
BBX 16 16 0 -2
BITMAP
0000
0380
0180
0180
0180
0180
0EB0
1BD8
318C
318C
318C
318C
1BD8
0EB0
0180
03C0
ENDCHAR
STARTCHAR 0445
ENCODING 1093
SWIDTH 960 0
DWIDTH 16 0
BBX 16 16 0 -2
BITMAP
0000
0000
0000
0000
0000
1E78
0C30
0660
0340
0180
0340
0660
0C30
1E78
0000
0000
ENDCHAR
STARTCHAR 0446
ENCODING 1094
SWIDTH 960 0
DWIDTH 16 0
BBX 16 16 0 -2
BITMAP
0000
0000
0000
0000
0000
3CF0
1860
1860
1860
1860
1860
1860
1860
3FF8
0018
0018
ENDCHAR
STARTCHAR 0447
ENCODING 1095
SWIDTH 960 0
DWIDTH 16 0
BBX 16 16 0 -2
BITMAP
0000
0000
0000
0000
0000
1E78
0C30
0C30
0C30
0C30
07F0
0030
0030
0078
0000
0000
ENDCHAR
STARTCHAR 0448
ENCODING 1096
SWIDTH 960 0
DWIDTH 16 0
BBX 16 16 0 -2
BITMAP
0000
0000
0000
0000
0000
7BDE
318C
318C
318C
318C
318C
318C
318C
7FFE
0000
0000
ENDCHAR
STARTCHAR 0449
ENCODING 1097
SWIDTH 960 0
DWIDTH 16 0
BBX 16 16 0 -2
BITMAP
0000
0000
0000
0000
0000
7BDE
318C
318C
318C
318C
318C
318C
318C
7FFF
0003
0003
ENDCHAR
STARTCHAR 044A
ENCODING 1098
SWIDTH 960 0
DWIDTH 16 0
BBX 16 16 0 -2
BITMAP
0000
0000
0000
0000
0000
3F80
3300
3300
0300
03F0
031C
030C
031C
07F0
0000
0000
ENDCHAR
STARTCHAR 044B
ENCODING 1099
SWIDTH 960 0
DWIDTH 16 0
BBX 16 16 0 -2
BITMAP
0000
0000
0000
0000
0000
3C3C
1818
1818
1818
1F18
19D8
18D8
19D8
3F3C
0000
0000
ENDCHAR
STARTCHAR 044C
ENCODING 1100
SWIDTH 960 0
DWIDTH 16 0
BBX 16 16 0 -2
BITMAP
0000
0000
0000
0000
0000
0F00
0600
0600
0600
07E0
0638
0618
0638
0FE0
0000
0000
ENDCHAR
STARTCHAR 044D
ENCODING 1101
SWIDTH 960 0
DWIDTH 16 0
BBX 16 16 0 -2
BITMAP
0000
0000
0000
0000
0000
07C0
0C60
1830
0770
0DD0
0030
1830
0C60
07C0
0000
0000
ENDCHAR
STARTCHAR 044E
ENCODING 1102
SWIDTH 960 0
DWIDTH 16 0
BBX 16 16 0 -2
BITMAP
0000
0000
0000
0000
0000
3CF0
1998
1B0C
1B0C
1F0C
1B0C
1B0C
1998
3CF0
0000
0000
ENDCHAR
STARTCHAR 044F
ENCODING 1103
SWIDTH 960 0
DWIDTH 16 0
BBX 16 16 0 -2
BITMAP
0000
0000
0000
0000
0000
0FF0
1860
1860
1860
0FE0
0660
0C60
0C60
38F0
0000
0000
ENDCHAR
STARTCHAR 0451
ENCODING 1105
SWIDTH 960 0
DWIDTH 16 0
BBX 16 16 0 -2
BITMAP
0000
0000
0CC0
0CC0
0000
0780
0CC0
1860
1860
1FE0
1800
1800
0C60
07C0
0000
0000
ENDCHAR
STARTCHAR 2000
ENCODING 8192
SWIDTH 960 0
DWIDTH 16 0
BBX 16 16 0 -2
BITMAP
0000
0000
0000
0000
0000
0000
0000
0000
0000
0000
0000
0000
0000
0000
0000
0000
ENDCHAR
STARTCHAR 2001
ENCODING 8193
SWIDTH 960 0
DWIDTH 16 0
BBX 16 16 0 -2
BITMAP
0000
0000
0000
0000
0000
0000
0000
0000
0000
0000
0000
0000
0000
0000
0000
0000
ENDCHAR
STARTCHAR 2002
ENCODING 8194
SWIDTH 960 0
DWIDTH 16 0
BBX 16 16 0 -2
BITMAP
0000
0000
0000
0000
0000
0000
0000
0000
0000
0000
0000
0000
0000
0000
0000
0000
ENDCHAR
STARTCHAR 2003
ENCODING 8195
SWIDTH 960 0
DWIDTH 16 0
BBX 16 16 0 -2
BITMAP
0000
0000
0000
0000
0000
0000
0000
0000
0000
0000
0000
0000
0000
0000
0000
0000
ENDCHAR
STARTCHAR 2004
ENCODING 8196
SWIDTH 960 0
DWIDTH 16 0
BBX 16 16 0 -2
BITMAP
0000
0000
0000
0000
0000
0000
0000
0000
0000
0000
0000
0000
0000
0000
0000
0000
ENDCHAR
STARTCHAR 2005
ENCODING 8197
SWIDTH 960 0
DWIDTH 16 0
BBX 16 16 0 -2
BITMAP
0000
0000
0000
0000
0000
0000
0000
0000
0000
0000
0000
0000
0000
0000
0000
0000
ENDCHAR
STARTCHAR 2006
ENCODING 8198
SWIDTH 960 0
DWIDTH 16 0
BBX 16 16 0 -2
BITMAP
0000
0000
0000
0000
0000
0000
0000
0000
0000
0000
0000
0000
0000
0000
0000
0000
ENDCHAR
STARTCHAR 2007
ENCODING 8199
SWIDTH 960 0
DWIDTH 16 0
BBX 16 16 0 -2
BITMAP
0000
0000
0000
0000
0000
0000
0000
0000
0000
0000
0000
0000
0000
0000
0000
0000
ENDCHAR
STARTCHAR 2008
ENCODING 8200
SWIDTH 960 0
DWIDTH 16 0
BBX 16 16 0 -2
BITMAP
0000
0000
0000
0000
0000
0000
0000
0000
0000
0000
0000
0000
0000
0000
0000
0000
ENDCHAR
STARTCHAR 2009
ENCODING 8201
SWIDTH 960 0
DWIDTH 16 0
BBX 16 16 0 -2
BITMAP
0000
0000
0000
0000
0000
0000
0000
0000
0000
0000
0000
0000
0000
0000
0000
0000
ENDCHAR
STARTCHAR 200A
ENCODING 8202
SWIDTH 960 0
DWIDTH 16 0
BBX 16 16 0 -2
BITMAP
0000
0000
0000
0000
0000
0000
0000
0000
0000
0000
0000
0000
0000
0000
0000
0000
ENDCHAR
STARTCHAR 200B
ENCODING 8203
SWIDTH 480 0
DWIDTH 8 0
BBX 1 1 0 0
BITMAP
00
ENDCHAR
STARTCHAR 200C
ENCODING 8204
SWIDTH 480 0
DWIDTH 8 0
BBX 1 1 0 0
BITMAP
00
ENDCHAR
STARTCHAR 200D
ENCODING 8205
SWIDTH 480 0
DWIDTH 8 0
BBX 1 1 0 0
BITMAP
00
ENDCHAR
STARTCHAR 200E
ENCODING 8206
SWIDTH 480 0
DWIDTH 8 0
BBX 1 1 0 0
BITMAP
00
ENDCHAR
STARTCHAR 200F
ENCODING 8207
SWIDTH 480 0
DWIDTH 8 0
BBX 1 1 0 0
BITMAP
00
ENDCHAR
STARTCHAR 2010
ENCODING 8208
SWIDTH 960 0
DWIDTH 16 0
BBX 16 16 0 -2
BITMAP
0000
0000
0000
0000
0000
0000
0000
0FE0
0000
0000
0000
0000
0000
0000
0000
0000
ENDCHAR
STARTCHAR 2014
ENCODING 8212
SWIDTH 960 0
DWIDTH 16 0
BBX 16 16 0 -2
BITMAP
0000
0000
0000
0000
0000
0000
0000
FFFF
0000
0000
0000
0000
0000
0000
0000
0000
ENDCHAR
STARTCHAR 2015
ENCODING 8213
SWIDTH 960 0
DWIDTH 16 0
BBX 16 16 0 -2
BITMAP
0000
0000
0000
0000
0000
0000
0000
FFFF
0000
0000
0000
0000
0000
0000
0000
0000
ENDCHAR
STARTCHAR 2016
ENCODING 8214
SWIDTH 960 0
DWIDTH 16 0
BBX 16 16 0 -2
BITMAP
0CC0
0CC0
0CC0
0CC0
0CC0
0CC0
0CC0
0CC0
0CC0
0CC0
0CC0
0CC0
0CC0
0CC0
0CC0
0CC0
ENDCHAR
STARTCHAR 2018
ENCODING 8216
SWIDTH 960 0
DWIDTH 16 0
BBX 16 16 0 -2
BITMAP
0018
0030
0038
0038
0000
0000
0000
0000
0000
0000
0000
0000
0000
0000
0000
0000
ENDCHAR
STARTCHAR 2019
ENCODING 8217
SWIDTH 960 0
DWIDTH 16 0
BBX 16 16 0 -2
BITMAP
3800
3800
1800
3000
0000
0000
0000
0000
0000
0000
0000
0000
0000
0000
0000
0000
ENDCHAR
STARTCHAR 201C
ENCODING 8220
SWIDTH 960 0
DWIDTH 16 0
BBX 16 16 0 -2
BITMAP
006C
00D8
00EC
00EC
0000
0000
0000
0000
0000
0000
0000
0000
0000
0000
0000
0000
ENDCHAR
STARTCHAR 201D
ENCODING 8221
SWIDTH 960 0
DWIDTH 16 0
BBX 16 16 0 -2
BITMAP
7600
7600
3600
6C00
0000
0000
0000
0000
0000
0000
0000
0000
0000
0000
0000
0000
ENDCHAR
STARTCHAR 2020
ENCODING 8224
SWIDTH 960 0
DWIDTH 16 0
BBX 16 16 0 -2
BITMAP
0180
03C0
0DB0
1FF8
0DB0
0180
07E0
03C0
03C0
03C0
03C0
03C0
0180
0180
0180
0180
ENDCHAR
STARTCHAR 2021
ENCODING 8225
SWIDTH 960 0
DWIDTH 16 0
BBX 16 16 0 -2
BITMAP
0300
0780
1B60
3FF0
1B60
0780
0780
0300
0300
0780
0780
1B60
3FF0
1B60
0780
0300
ENDCHAR
STARTCHAR 2025
ENCODING 8229
SWIDTH 960 0
DWIDTH 16 0
BBX 16 16 0 -2
BITMAP
0000
0000
0000
0000
0000
0000
0000
3838
3838
0000
0000
0000
0000
0000
0000
0000
ENDCHAR
STARTCHAR 2026
ENCODING 8230
SWIDTH 960 0
DWIDTH 16 0
BBX 16 16 0 -2
BITMAP
0000
0000
0000
0000
0000
0000
0000
E38E
E38E
0000
0000
0000
0000
0000
0000
0000
ENDCHAR
STARTCHAR 2030
ENCODING 8240
SWIDTH 960 0
DWIDTH 16 0
BBX 16 16 0 -2
BITMAP
0000
0018
3830
7460
6C60
6CC0
6D80
6D00
3A00
0D9C
0F5A
1AD6
36D6
66D6
C39C
0000
ENDCHAR
STARTCHAR 2032
ENCODING 8242
SWIDTH 960 0
DWIDTH 16 0
BBX 16 16 0 -2
BITMAP
0000
1800
3800
7000
6000
0000
0000
0000
0000
0000
0000
0000
0000
0000
0000
0000
ENDCHAR
STARTCHAR 2033
ENCODING 8243
SWIDTH 960 0
DWIDTH 16 0
BBX 16 16 0 -2
BITMAP
0000
3300
7700
EE00
CC00
0000
0000
0000
0000
0000
0000
0000
0000
0000
0000
0000
ENDCHAR
STARTCHAR 203B
ENCODING 8251
SWIDTH 960 0
DWIDTH 16 0
BBX 16 16 0 -2
BITMAP
0000
0000
638C
3398
1830
0C60
06C0
739C
739C
06C0
0C60
1830
3398
638C
0000
0000
ENDCHAR
STARTCHAR 203E
ENCODING 8254
SWIDTH 960 0
DWIDTH 16 0
BBX 16 16 0 -2
BITMAP
FFFF
0000
0000
0000
0000
0000
0000
0000
0000
0000
0000
0000
0000
0000
0000
0000
ENDCHAR
STARTCHAR 2103
ENCODING 8451
SWIDTH 960 0
DWIDTH 16 0
BBX 16 16 0 -2
BITMAP
0000
70F6
DB9A
DA0E
7606
0C06
0C00
0C00
0C00
0C00
0606
060C
03B8
00E0
0000
0000
ENDCHAR
STARTCHAR 212B
ENCODING 8491
SWIDTH 960 0
DWIDTH 16 0
BBX 16 16 0 -2
BITMAP
01C0
0360
0360
01C0
0180
0180
0340
0340
0660
0660
07E0
0C30
0C30
1E78
0000
0000
ENDCHAR
STARTCHAR 2190
ENCODING 8592
SWIDTH 960 0
DWIDTH 16 0
BBX 16 16 0 -2
BITMAP
0000
0000
0000
0000
0C00
1800
7000
FFFF
7000
1800
0C00
0000
0000
0000
0000
0000
ENDCHAR
STARTCHAR 2191
ENCODING 8593
SWIDTH 960 0
DWIDTH 16 0
BBX 16 16 0 -2
BITMAP
0300
0300
0780
0780
0D40
1B60
0300
0300
0300
0300
0300
0300
0300
0300
0300
0300
ENDCHAR
STARTCHAR 2192
ENCODING 8594
SWIDTH 960 0
DWIDTH 16 0
BBX 16 16 0 -2
BITMAP
0000
0000
0000
0000
0060
0030
001C
FFFF
001C
0030
0060
0000
0000
0000
0000
0000
ENDCHAR
STARTCHAR 2193
ENCODING 8595
SWIDTH 960 0
DWIDTH 16 0
BBX 16 16 0 -2
BITMAP
0300
0300
0300
0300
0300
0300
0300
0300
0300
0300
1B60
0D40
0780
0780
0300
0300
ENDCHAR
STARTCHAR 21D2
ENCODING 8658
SWIDTH 960 0
DWIDTH 16 0
BBX 16 16 0 -2
BITMAP
0000
0000
0000
0030
0018
FFFC
0006
0003
0006
FFFC
0018
0030
0000
0000
0000
0000
ENDCHAR
STARTCHAR 21D4
ENCODING 8660
SWIDTH 960 0
DWIDTH 16 0
BBX 16 16 0 -2
BITMAP
0000
0000
0000
1830
3018
7FFC
C006
8003
C006
7FFC
3018
1830
0000
0000
0000
0000
ENDCHAR
STARTCHAR 2200
ENCODING 8704
SWIDTH 960 0
DWIDTH 16 0
BBX 16 16 0 -2
BITMAP
0000
6006
6006
300C
300C
1FF8
1818
0C30
0C30
0660
0660
0340
0340
0180
0180
0000
ENDCHAR
STARTCHAR 2202
ENCODING 8706
SWIDTH 960 0
DWIDTH 16 0
BBX 16 16 0 -2
BITMAP
0000
01C0
0760
0C30
0030
0030
07B0
0CE0
1CE0
18E0
38C0
39C0
1B80
0E00
0000
0000
ENDCHAR
STARTCHAR 2203
ENCODING 8707
SWIDTH 960 0
DWIDTH 16 0
BBX 16 16 0 -2
BITMAP
0000
0000
3FF0
0030
0030
0030
0030
3FF0
0030
0030
0030
0030
3FF0
0000
0000
0000
ENDCHAR
STARTCHAR 2207
ENCODING 8711
SWIDTH 960 0
DWIDTH 16 0
BBX 16 16 0 -2
BITMAP
0000
FFFE
600C
700C
3018
3818
1830
1C30
0C60
0E60
06C0
0740
0380
0180
0000
0000
ENDCHAR
STARTCHAR 2208
ENCODING 8712
SWIDTH 960 0
DWIDTH 16 0
BBX 16 16 0 -2
BITMAP
0000
0000
0000
0FF8
1800
3000
3000
3FF8
3000
3000
1800
0FF8
0000
0000
0000
0000
ENDCHAR
STARTCHAR 220B
ENCODING 8715
SWIDTH 960 0
DWIDTH 16 0
BBX 16 16 0 -2
BITMAP
0000
0000
0000
3FE0
0030
0018
0018
3FF8
0018
0018
0030
3FE0
0000
0000
0000
0000
ENDCHAR
STARTCHAR 2212
ENCODING 8722
SWIDTH 960 0
DWIDTH 16 0
BBX 16 16 0 -2
BITMAP
0000
0000
0000
0000
0000
0000
0000
7FFC
0000
0000
0000
0000
0000
0000
0000
0000
ENDCHAR
STARTCHAR 221A
ENCODING 8730
SWIDTH 960 0
DWIDTH 16 0
BBX 16 16 0 -2
BITMAP
01FF
0180
0180
0300
0300
0300
0300
0600
0600
6600
6600
7400
D400
DC00
1800
1800
ENDCHAR
STARTCHAR 221D
ENCODING 8733
SWIDTH 960 0
DWIDTH 16 0
BBX 16 16 0 -2
BITMAP
0000
0000
0000
0000
3C78
66CC
C380
C380
C380
C380
66CC
3C78
0000
0000
0000
0000
ENDCHAR
STARTCHAR 221E
ENCODING 8734
SWIDTH 960 0
DWIDTH 16 0
BBX 16 16 0 -2
BITMAP
0000
0000
0000
0000
3C38
6EEC
C6C6
C386
C386
C6C6
6EEC
3878
0000
0000
0000
0000
ENDCHAR
STARTCHAR 2220
ENCODING 8736
SWIDTH 960 0
DWIDTH 16 0
BBX 16 16 0 -2
BITMAP
0000
0000
0018
0030
0060
00C0
0180
0300
0600
0C00
1800
3000
7FFC
0000
0000
0000
ENDCHAR
STARTCHAR 2225
ENCODING 8741
SWIDTH 960 0
DWIDTH 16 0
BBX 16 16 0 -2
BITMAP
0CC0
0CC0
0CC0
0CC0
0CC0
0CC0
0CC0
0CC0
0CC0
0CC0
0CC0
0CC0
0CC0
0CC0
0CC0
0CC0
ENDCHAR
STARTCHAR 2227
ENCODING 8743
SWIDTH 960 0
DWIDTH 16 0
BBX 16 16 0 -2
BITMAP
0000
0000
0180
0180
0340
0340
0660
0660
0C30
0C30
1818
1818
300C
300C
0000
0000
ENDCHAR
STARTCHAR 2228
ENCODING 8744
SWIDTH 960 0
DWIDTH 16 0
BBX 16 16 0 -2
BITMAP
0000
0000
300C
300C
1818
1818
0C30
0C30
0660
0660
0340
0340
0180
0180
0000
0000
ENDCHAR
STARTCHAR 2229
ENCODING 8745
SWIDTH 960 0
DWIDTH 16 0
BBX 16 16 0 -2
BITMAP
0000
0000
07C0
0C60
1830
1830
3018
3018
3018
3018
3018
3018
3018
3018
0000
0000
ENDCHAR
STARTCHAR 222A
ENCODING 8746
SWIDTH 960 0
DWIDTH 16 0
BBX 16 16 0 -2
BITMAP
0000
0000
3018
3018
3018
3018
3018
3018
3018
3018
1830
1830
0C60
07C0
0000
0000
ENDCHAR
STARTCHAR 222B
ENCODING 8747
SWIDTH 960 0
DWIDTH 16 0
BBX 16 16 0 -2
BITMAP
03C0
06C0
0600
0600
0700
0700
0300
0380
0380
0180
01C0
01C0
00C0
00C0
06C0
0780
ENDCHAR
STARTCHAR 222C
ENCODING 8748
SWIDTH 960 0
DWIDTH 16 0
BBX 16 16 0 -2
BITMAP
1E78
36D8
30C0
30C0
38E0
38E0
1860
1C70
1C70
0C30
0E38
0E38
0618
0618
36D8
3CF0
ENDCHAR
STARTCHAR 2234
ENCODING 8756
SWIDTH 960 0
DWIDTH 16 0
BBX 16 16 0 -2
BITMAP
0000
0000
0000
0380
0380
0000
0000
0000
0000
0000
0000
701C
701C
0000
0000
0000
ENDCHAR
STARTCHAR 2235
ENCODING 8757
SWIDTH 960 0
DWIDTH 16 0
BBX 16 16 0 -2
BITMAP
0000
0000
0000
701C
701C
0000
0000
0000
0000
0000
0000
0380
0380
0000
0000
0000
ENDCHAR
STARTCHAR 223D
ENCODING 8765
SWIDTH 960 0
DWIDTH 16 0
BBX 16 16 0 -2
BITMAP
0000
0000
0000
0000
3C78
60CC
C186
C186
C306
C306
660C
3C78
0000
0000
0000
0000
ENDCHAR
STARTCHAR 2252
ENCODING 8786
SWIDTH 960 0
DWIDTH 16 0
BBX 16 16 0 -2
BITMAP
0000
0000
3800
3800
0000
7FFC
0000
0000
0000
7FFC
0000
0038
0038
0000
0000
0000
ENDCHAR
STARTCHAR 2260
ENCODING 8800
SWIDTH 960 0
DWIDTH 16 0
BBX 16 16 0 -2
BITMAP
0000
0000
00C0
00C0
0180
7FFC
0180
0300
0300
7FFC
0300
0600
0600
0000
0000
0000
ENDCHAR
STARTCHAR 2261
ENCODING 8801
SWIDTH 960 0
DWIDTH 16 0
BBX 16 16 0 -2
BITMAP
0000
0000
0000
7FFC
0000
0000
0000
7FFC
0000
0000
0000
7FFC
0000
0000
0000
0000
ENDCHAR
STARTCHAR 2266
ENCODING 8806
SWIDTH 960 0
DWIDTH 16 0
BBX 16 16 0 -2
BITMAP
0000
0000
003C
01E0
0F00
7800
0F00
01E0
003C
0000
7FFC
0000
0000
7FFC
0000
0000
ENDCHAR
STARTCHAR 2267
ENCODING 8807
SWIDTH 960 0
DWIDTH 16 0
BBX 16 16 0 -2
BITMAP
0000
0000
7800
0F00
01E0
003C
01E0
0F00
7800
0000
7FFC
0000
0000
7FFC
0000
0000
ENDCHAR
STARTCHAR 226A
ENCODING 8810
SWIDTH 960 0
DWIDTH 16 0
BBX 16 16 0 -2
BITMAP
0000
0198
0330
0660
0CC0
1980
3300
6600
3300
1980
0CC0
0660
0330
0198
00CC
0000
ENDCHAR
STARTCHAR 226B
ENCODING 8811
SWIDTH 960 0
DWIDTH 16 0
BBX 16 16 0 -2
BITMAP
0000
3300
1980
0CC0
0660
0330
0198
00CC
0198
0330
0660
0CC0
1980
3300
6600
0000
ENDCHAR
STARTCHAR 2282
ENCODING 8834
SWIDTH 960 0
DWIDTH 16 0
BBX 16 16 0 -2
BITMAP
0000
0000
0000
07FC
1C00
3000
6000
6000
6000
6000
3000
1C00
07FC
0000
0000
0000
ENDCHAR
STARTCHAR 2283
ENCODING 8835
SWIDTH 960 0
DWIDTH 16 0
BBX 16 16 0 -2
BITMAP
0000
0000
0000
7FC0
0070
0018
000C
000C
000C
000C
0018
0070
7FC0
0000
0000
0000
ENDCHAR
STARTCHAR 2286
ENCODING 8838
SWIDTH 960 0
DWIDTH 16 0
BBX 16 16 0 -2
BITMAP
0000
0000
1FFC
3000
6000
6000
6000
6000
3000
1FFC
0000
0000
7FFC
0000
0000
0000
ENDCHAR
STARTCHAR 2287
ENCODING 8839
SWIDTH 960 0
DWIDTH 16 0
BBX 16 16 0 -2
BITMAP
0000
0000
7FF0
0018
000C
000C
000C
000C
0018
7FF0
0000
0000
7FFC
0000
0000
0000
ENDCHAR
STARTCHAR 22A5
ENCODING 8869
SWIDTH 960 0
DWIDTH 16 0
BBX 16 16 0 -2
BITMAP
0000
0000
0300
0300
0300
0300
0300
0300
0300
0300
0300
0300
7FFC
0000
0000
0000
ENDCHAR
STARTCHAR 2312
ENCODING 8978
SWIDTH 960 0
DWIDTH 16 0
BBX 16 16 0 -2
BITMAP
0FE0
783C
C006
0000
0000
0000
0000
0000
0000
0000
0000
0000
0000
0000
0000
0000
ENDCHAR
STARTCHAR 2500
ENCODING 9472
SWIDTH 960 0
DWIDTH 16 0
BBX 16 16 0 -2
BITMAP
0000
0000
0000
0000
0000
0000
0000
FFFF
0000
0000
0000
0000
0000
0000
0000
0000
ENDCHAR
STARTCHAR 2501
ENCODING 9473
SWIDTH 960 0
DWIDTH 16 0
BBX 16 16 0 -2
BITMAP
0000
0000
0000
0000
0000
0000
0000
FFFF
FFFF
0000
0000
0000
0000
0000
0000
0000
ENDCHAR
STARTCHAR 2502
ENCODING 9474
SWIDTH 960 0
DWIDTH 16 0
BBX 16 16 0 -2
BITMAP
0300
0300
0300
0300
0300
0300
0300
0300
0300
0300
0300
0300
0300
0300
0300
0300
ENDCHAR
STARTCHAR 2503
ENCODING 9475
SWIDTH 960 0
DWIDTH 16 0
BBX 16 16 0 -2
BITMAP
0380
0380
0380
0380
0380
0380
0380
0380
0380
0380
0380
0380
0380
0380
0380
0380
ENDCHAR
STARTCHAR 250C
ENCODING 9484
SWIDTH 960 0
DWIDTH 16 0
BBX 16 16 0 -2
BITMAP
0000
0000
0000
0000
0000
0000
0000
03FF
0300
0300
0300
0300
0300
0300
0300
0300
ENDCHAR
STARTCHAR 250F
ENCODING 9487
SWIDTH 960 0
DWIDTH 16 0
BBX 16 16 0 -2
BITMAP
0000
0000
0000
0000
0000
0000
0000
03FF
03FF
0380
0380
0380
0380
0380
0380
0380
ENDCHAR
STARTCHAR 2510
ENCODING 9488
SWIDTH 960 0
DWIDTH 16 0
BBX 16 16 0 -2
BITMAP
0000
0000
0000
0000
0000
0000
0000
FF00
0300
0300
0300
0300
0300
0300
0300
0300
ENDCHAR
STARTCHAR 2513
ENCODING 9491
SWIDTH 960 0
DWIDTH 16 0
BBX 16 16 0 -2
BITMAP
0000
0000
0000
0000
0000
0000
0000
FF80
FF80
0380
0380
0380
0380
0380
0380
0380
ENDCHAR
STARTCHAR 2514
ENCODING 9492
SWIDTH 960 0
DWIDTH 16 0
BBX 16 16 0 -2
BITMAP
0300
0300
0300
0300
0300
0300
0300
03FF
0000
0000
0000
0000
0000
0000
0000
0000
ENDCHAR
STARTCHAR 2517
ENCODING 9495
SWIDTH 960 0
DWIDTH 16 0
BBX 16 16 0 -2
BITMAP
0380
0380
0380
0380
0380
0380
0380
03FF
03FF
0000
0000
0000
0000
0000
0000
0000
ENDCHAR
STARTCHAR 2518
ENCODING 9496
SWIDTH 960 0
DWIDTH 16 0
BBX 16 16 0 -2
BITMAP
0300
0300
0300
0300
0300
0300
0300
FF00
0000
0000
0000
0000
0000
0000
0000
0000
ENDCHAR
STARTCHAR 251B
ENCODING 9499
SWIDTH 960 0
DWIDTH 16 0
BBX 16 16 0 -2
BITMAP
0380
0380
0380
0380
0380
0380
0380
FF80
FF80
0000
0000
0000
0000
0000
0000
0000
ENDCHAR
STARTCHAR 251C
ENCODING 9500
SWIDTH 960 0
DWIDTH 16 0
BBX 16 16 0 -2
BITMAP
0300
0300
0300
0300
0300
0300
0300
03FF
0300
0300
0300
0300
0300
0300
0300
0300
ENDCHAR
STARTCHAR 251D
ENCODING 9501
SWIDTH 960 0
DWIDTH 16 0
BBX 16 16 0 -2
BITMAP
0300
0300
0300
0300
0300
0300
0300
03FF
03FF
0300
0300
0300
0300
0300
0300
0300
ENDCHAR
STARTCHAR 2520
ENCODING 9504
SWIDTH 960 0
DWIDTH 16 0
BBX 16 16 0 -2
BITMAP
0380
0380
0380
0380
0380
0380
0380
03FF
0380
0380
0380
0380
0380
0380
0380
0380
ENDCHAR
STARTCHAR 2523
ENCODING 9507
SWIDTH 960 0
DWIDTH 16 0
BBX 16 16 0 -2
BITMAP
0380
0380
0380
0380
0380
0380
0380
03FF
03FF
0380
0380
0380
0380
0380
0380
0380
ENDCHAR
STARTCHAR 2524
ENCODING 9508
SWIDTH 960 0
DWIDTH 16 0
BBX 16 16 0 -2
BITMAP
0300
0300
0300
0300
0300
0300
0300
FF00
0300
0300
0300
0300
0300
0300
0300
0300
ENDCHAR
STARTCHAR 2525
ENCODING 9509
SWIDTH 960 0
DWIDTH 16 0
BBX 16 16 0 -2
BITMAP
0300
0300
0300
0300
0300
0300
0300
FF00
FF00
0300
0300
0300
0300
0300
0300
0300
ENDCHAR
STARTCHAR 2528
ENCODING 9512
SWIDTH 960 0
DWIDTH 16 0
BBX 16 16 0 -2
BITMAP
0380
0380
0380
0380
0380
0380
0380
FF80
0380
0380
0380
0380
0380
0380
0380
0380
ENDCHAR
STARTCHAR 252B
ENCODING 9515
SWIDTH 960 0
DWIDTH 16 0
BBX 16 16 0 -2
BITMAP
0380
0380
0380
0380
0380
0380
0380
FF80
FF80
0380
0380
0380
0380
0380
0380
0380
ENDCHAR
STARTCHAR 252C
ENCODING 9516
SWIDTH 960 0
DWIDTH 16 0
BBX 16 16 0 -2
BITMAP
0000
0000
0000
0000
0000
0000
0000
FFFF
0300
0300
0300
0300
0300
0300
0300
0300
ENDCHAR
STARTCHAR 252F
ENCODING 9519
SWIDTH 960 0
DWIDTH 16 0
BBX 16 16 0 -2
BITMAP
0000
0000
0000
0000
0000
0000
0000
FFFF
FFFF
0300
0300
0300
0300
0300
0300
0300
ENDCHAR
STARTCHAR 2530
ENCODING 9520
SWIDTH 960 0
DWIDTH 16 0
BBX 16 16 0 -2
BITMAP
0000
0000
0000
0000
0000
0000
0000
FFFF
0380
0380
0380
0380
0380
0380
0380
0380
ENDCHAR
STARTCHAR 2533
ENCODING 9523
SWIDTH 960 0
DWIDTH 16 0
BBX 16 16 0 -2
BITMAP
0000
0000
0000
0000
0000
0000
0000
FFFF
FFFF
0380
0380
0380
0380
0380
0380
0380
ENDCHAR
STARTCHAR 2534
ENCODING 9524
SWIDTH 960 0
DWIDTH 16 0
BBX 16 16 0 -2
BITMAP
0300
0300
0300
0300
0300
0300
0300
FFFF
0000
0000
0000
0000
0000
0000
0000
0000
ENDCHAR
STARTCHAR 2537
ENCODING 9527
SWIDTH 960 0
DWIDTH 16 0
BBX 16 16 0 -2
BITMAP
0300
0300
0300
0300
0300
0300
0300
FFFF
FFFF
0000
0000
0000
0000
0000
0000
0000
ENDCHAR
STARTCHAR 2538
ENCODING 9528
SWIDTH 960 0
DWIDTH 16 0
BBX 16 16 0 -2
BITMAP
0380
0380
0380
0380
0380
0380
0380
FFFF
0000
0000
0000
0000
0000
0000
0000
0000
ENDCHAR
STARTCHAR 253B
ENCODING 9531
SWIDTH 960 0
DWIDTH 16 0
BBX 16 16 0 -2
BITMAP
0380
0380
0380
0380
0380
0380
0380
FFFF
FFFF
0000
0000
0000
0000
0000
0000
0000
ENDCHAR
STARTCHAR 253C
ENCODING 9532
SWIDTH 960 0
DWIDTH 16 0
BBX 16 16 0 -2
BITMAP
0300
0300
0300
0300
0300
0300
0300
FFFF
0300
0300
0300
0300
0300
0300
0300
0300
ENDCHAR
STARTCHAR 253F
ENCODING 9535
SWIDTH 960 0
DWIDTH 16 0
BBX 16 16 0 -2
BITMAP
0300
0300
0300
0300
0300
0300
0300
FFFF
FFFF
0300
0300
0300
0300
0300
0300
0300
ENDCHAR
STARTCHAR 2542
ENCODING 9538
SWIDTH 960 0
DWIDTH 16 0
BBX 16 16 0 -2
BITMAP
0380
0380
0380
0380
0380
0380
0380
FFFF
0380
0380
0380
0380
0380
0380
0380
0380
ENDCHAR
STARTCHAR 254B
ENCODING 9547
SWIDTH 960 0
DWIDTH 16 0
BBX 16 16 0 -2
BITMAP
0380
0380
0380
0380
0380
0380
0380
FFFF
FFFF
0380
0380
0380
0380
0380
0380
0380
ENDCHAR
STARTCHAR 25A0
ENCODING 9632
SWIDTH 960 0
DWIDTH 16 0
BBX 16 16 0 -2
BITMAP
0000
FFFE
FFFE
FFFE
FFFE
FFFE
FFFE
FFFE
FFFE
FFFE
FFFE
FFFE
FFFE
FFFE
FFFE
0000
ENDCHAR
STARTCHAR 25A1
ENCODING 9633
SWIDTH 960 0
DWIDTH 16 0
BBX 16 16 0 -2
BITMAP
0000
FFFE
C006
C006
C006
C006
C006
C006
C006
C006
C006
C006
C006
C006
FFFE
0000
ENDCHAR
STARTCHAR 25B2
ENCODING 9650
SWIDTH 960 0
DWIDTH 16 0
BBX 16 16 0 -2
BITMAP
0000
0300
0300
0780
0780
0FC0
0FE0
1FE0
1FF0
3FF0
3FF8
7FFC
7FFC
FFFE
0000
0000
ENDCHAR
STARTCHAR 25B3
ENCODING 9651
SWIDTH 960 0
DWIDTH 16 0
BBX 16 16 0 -2
BITMAP
0000
0300
0300
0680
0680
0CC0
0CC0
1860
1830
3030
3018
6018
600C
FFFE
0000
0000
ENDCHAR
STARTCHAR 25BC
ENCODING 9660
SWIDTH 960 0
DWIDTH 16 0
BBX 16 16 0 -2
BITMAP
0000
0000
FFFE
7FFC
7FFC
3FF8
3FF0
1FF0
1FE0
0FE0
0FC0
0780
0780
0300
0300
0000
ENDCHAR
STARTCHAR 25BD
ENCODING 9661
SWIDTH 960 0
DWIDTH 16 0
BBX 16 16 0 -2
BITMAP
0000
0000
FFFE
600C
6018
3018
3030
1830
1860
0CC0
0CC0
0680
0680
0300
0300
0000
ENDCHAR
STARTCHAR 25C6
ENCODING 9670
SWIDTH 960 0
DWIDTH 16 0
BBX 16 16 0 -2
BITMAP
0380
07C0
0FE0
1FF0
3FF8
7FFC
FFFE
FFFF
FFFF
FFFE
7FFC
3FF8
1FF0
0FE0
07C0
0380
ENDCHAR
STARTCHAR 25C7
ENCODING 9671
SWIDTH 960 0
DWIDTH 16 0
BBX 16 16 0 -2
BITMAP
0380
06C0
0C60
1830
3018
600C
C006
8003
8003
C006
600C
3018
1830
0C60
06C0
0380
ENDCHAR
STARTCHAR 25CB
ENCODING 9675
SWIDTH 960 0
DWIDTH 16 0
BBX 16 16 0 -2
BITMAP
0000
07C0
1C70
3018
600C
600C
C006
C006
C006
C006
600C
600C
3018
1C70
07C0
0000
ENDCHAR
STARTCHAR 25CE
ENCODING 9678
SWIDTH 960 0
DWIDTH 16 0
BBX 16 16 0 -2
BITMAP
0000
07C0
1C70
3018
67CC
6C6C
D836
D836
D836
D836
6C6C
67CC
3018
1C70
07C0
0000
ENDCHAR
STARTCHAR 25CF
ENCODING 9679
SWIDTH 960 0
DWIDTH 16 0
BBX 16 16 0 -2
BITMAP
0000
07C0
1FF0
3FF8
7FFC
7FFC
FFFE
FFFE
FFFE
FFFE
7FFC
7FFC
3FF8
1FF0
07C0
0000
ENDCHAR
STARTCHAR 25EF
ENCODING 9711
SWIDTH 960 0
DWIDTH 16 0
BBX 16 16 0 -2
BITMAP
07C0
1C70
3018
600C
C006
C006
8003
8003
8003
8003
C006
C006
600C
3018
1C70
07C0
ENDCHAR
STARTCHAR 2605
ENCODING 9733
SWIDTH 960 0
DWIDTH 16 0
BBX 16 16 0 -2
BITMAP
0000
0300
0300
0780
0780
0FC0
FFFC
7FF8
3FF0
1FE0
1FE0
3EF0
3CF0
7878
6018
0000
ENDCHAR
STARTCHAR 2606
ENCODING 9734
SWIDTH 960 0
DWIDTH 16 0
BBX 16 16 0 -2
BITMAP
0000
0300
0300
0680
0680
0CC0
FCFC
6018
3030
1860
1860
3330
36B0
6CE8
7038
0000
ENDCHAR
STARTCHAR 2640
ENCODING 9792
SWIDTH 960 0
DWIDTH 16 0
BBX 16 16 0 -2
BITMAP
0000
07C0
0C60
1830
1830
1830
1830
0C60
07C0
0300
3FF8
0300
0300
0300
0300
0300
ENDCHAR
STARTCHAR 2642
ENCODING 9794
SWIDTH 960 0
DWIDTH 16 0
BBX 16 16 0 -2
BITMAP
0000
01FE
000E
001A
0036
0066
00C6
3E86
6300
C180
C180
C180
C180
6300
3E00
0000
ENDCHAR
STARTCHAR 266A
ENCODING 9834
SWIDTH 960 0
DWIDTH 16 0
BBX 16 16 0 -2
BITMAP
0180
0180
01C0
01E0
01B0
01B8
019C
018C
018C
0198
01B0
0180
1F80
3F80
3F00
1E00
ENDCHAR
STARTCHAR 266D
ENCODING 9837
SWIDTH 960 0
DWIDTH 16 0
BBX 16 16 0 -2
BITMAP
0C00
0C00
0C00
0C00
0C00
0C00
0C00
0DE0
0E70
0C70
0C70
0CE0
0DC0
0D00
0E00
0C00
ENDCHAR
STARTCHAR 266F
ENCODING 9839
SWIDTH 960 0
DWIDTH 16 0
BBX 16 16 0 -2
BITMAP
0060
0C60
0C60
0C7C
0FFC
7FE0
7C60
0C60
0C60
0C7C
0FFC
7FE0
7C60
0C60
0C60
0C00
ENDCHAR
STARTCHAR 3000
ENCODING 12288
SWIDTH 960 0
DWIDTH 16 0
BBX 16 16 0 -2
BITMAP
0000
0000
0000
0000
0000
0000
0000
0000
0000
0000
0000
0000
0000
0000
0000
0000
ENDCHAR
STARTCHAR 3001
ENCODING 12289
SWIDTH 960 0
DWIDTH 16 0
BBX 16 16 0 -2
BITMAP
0000
0000
0000
0000
0000
0000
0000
0000
0000
0000
0000
0000
6000
3000
1800
1800
ENDCHAR
STARTCHAR 3002
ENCODING 12290
SWIDTH 960 0
DWIDTH 16 0
BBX 16 16 0 -2
BITMAP
0000
0000
0000
0000
0000
0000
0000
0000
0000
0000
0000
7000
D800
D800
7000
0000
ENDCHAR
STARTCHAR 3003
ENCODING 12291
SWIDTH 960 0
DWIDTH 16 0
BBX 16 16 0 -2
BITMAP
0000
0000
0000
0000
0330
0330
0330
0660
0660
0CC0
1980
0000
0000
0000
0000
0000
ENDCHAR
STARTCHAR 3005
ENCODING 12293
SWIDTH 960 0
DWIDTH 16 0
BBX 16 16 0 -2
BITMAP
0000
0300
0300
0300
03F8
0318
0618
0630
0C30
1BA0
30E0
0030
0018
0018
0000
0000
ENDCHAR
STARTCHAR 3006
ENCODING 12294
SWIDTH 960 0
DWIDTH 16 0
BBX 16 16 0 -2
BITMAP
0000
0006
0006
000C
0018
03B0
06E0
0CC0
0DA0
1B00
1A00
1C00
1800
3000
3000
0000
ENDCHAR
STARTCHAR 3007
ENCODING 12295
SWIDTH 960 0
DWIDTH 16 0
BBX 16 16 0 -2
BITMAP
0000
07C0
1C70
3018
600C
600C
C006
C006
C006
C006
600C
600C
3018
1C70
07C0
0000
ENDCHAR
STARTCHAR 3008
ENCODING 12296
SWIDTH 960 0
DWIDTH 16 0
BBX 16 16 0 -2
BITMAP
0018
0018
0030
0030
0060
0060
00C0
0180
0180
00C0
0060
0060
0030
0030
0018
0018
ENDCHAR
STARTCHAR 3009
ENCODING 12297
SWIDTH 960 0
DWIDTH 16 0
BBX 16 16 0 -2
BITMAP
3000
3000
1800
1800
0C00
0C00
0600
0300
0300
0600
0C00
0C00
1800
1800
3000
3000
ENDCHAR
STARTCHAR 300A
ENCODING 12298
SWIDTH 960 0
DWIDTH 16 0
BBX 16 16 0 -2
BITMAP
006C
006C
00D8
00D8
01B0
01B0
0360
06C0
06C0
0360
01B0
01B0
00D8
00D8
006C
006C
ENDCHAR
STARTCHAR 300B
ENCODING 12299
SWIDTH 960 0
DWIDTH 16 0
BBX 16 16 0 -2
BITMAP
6C00
6C00
3600
3600
1B00
1B00
0D80
06C0
06C0
0D80
1B00
1B00
3600
3600
6C00
6C00
ENDCHAR
STARTCHAR 300C
ENCODING 12300
SWIDTH 960 0
DWIDTH 16 0
BBX 16 16 0 -2
BITMAP
01F8
0180
0180
0180
0180
0180
0180
0180
0180
0180
0180
0000
0000
0000
0000
0000
ENDCHAR
STARTCHAR 300D
ENCODING 12301
SWIDTH 960 0
DWIDTH 16 0
BBX 16 16 0 -2
BITMAP
0000
0000
0000
0000
0000
0300
0300
0300
0300
0300
0300
0300
0300
0300
0300
3F00
ENDCHAR
STARTCHAR 300E
ENCODING 12302
SWIDTH 960 0
DWIDTH 16 0
BBX 16 16 0 -2
BITMAP
03F8
0318
0378
0340
0340
0340
0340
0340
0340
0340
03C0
0000
0000
0000
0000
0000
ENDCHAR
STARTCHAR 300F
ENCODING 12303
SWIDTH 960 0
DWIDTH 16 0
BBX 16 16 0 -2
BITMAP
0000
0000
0000
0000
0000
0780
0680
0680
0680
0680
0680
0680
0680
3E80
3180
3F80
ENDCHAR
STARTCHAR 3010
ENCODING 12304
SWIDTH 960 0
DWIDTH 16 0
BBX 16 16 0 -2
BITMAP
01F8
01F0
01E0
01C0
01C0
0180
0180
0180
0180
0180
0180
01C0
01C0
01E0
01F0
01F8
ENDCHAR
STARTCHAR 3011
ENCODING 12305
SWIDTH 960 0
DWIDTH 16 0
BBX 16 16 0 -2
BITMAP
3F00
1F00
0F00
0700
0700
0300
0300
0300
0300
0300
0300
0700
0700
0F00
1F00
3F00
ENDCHAR
STARTCHAR 3012
ENCODING 12306
SWIDTH 960 0
DWIDTH 16 0
BBX 16 16 0 -2
BITMAP
0000
7FFC
7FFC
0000
0000
FFFE
FFFE
0380
0380
0380
0380
0380
0380
0380
0380
0000
ENDCHAR
STARTCHAR 3013
ENCODING 12307
SWIDTH 960 0
DWIDTH 16 0
BBX 16 16 0 -2
BITMAP
0000
0000
0000
7FFE
7FFE
7FFE
0000
0000
0000
0000
7FFE
7FFE
7FFE
0000
0000
0000
ENDCHAR
STARTCHAR 3014
ENCODING 12308
SWIDTH 960 0
DWIDTH 16 0
BBX 16 16 0 -2
BITMAP
0018
0070
01C0
0180
0180
0180
0180
0180
0180
0180
0180
0180
0180
01C0
0070
0018
ENDCHAR
STARTCHAR 3015
ENCODING 12309
SWIDTH 960 0
DWIDTH 16 0
BBX 16 16 0 -2
BITMAP
3000
1C00
0700
0300
0300
0300
0300
0300
0300
0300
0300
0300
0300
0700
1C00
3000
ENDCHAR
STARTCHAR 301C
ENCODING 12316
SWIDTH 960 0
DWIDTH 16 0
BBX 16 16 0 -2
BITMAP
0000
0000
0000
0000
0000
0000
3C00
6706
C1CC
0078
0000
0000
0000
0000
0000
0000
ENDCHAR
STARTCHAR 3041
ENCODING 12353
SWIDTH 960 0
DWIDTH 16 0
BBX 16 16 0 -2
BITMAP
0000
0000
0000
0600
06C0
1F00
06C0
07E0
0ED0
1A98
3698
3718
3630
1C60
01C0
0000
ENDCHAR
STARTCHAR 3042
ENCODING 12354
SWIDTH 960 0
DWIDTH 16 0
BBX 16 16 0 -2
BITMAP
0600
0600
06E0
3F80
0600
06C0
07F0
0CD8
1CCC
3586
6D86
6706
6D0C
3838
00E0
0000
ENDCHAR
STARTCHAR 3043
ENCODING 12355
SWIDTH 960 0
DWIDTH 16 0
BBX 16 16 0 -2
BITMAP
0000
0000
0000
0000
0000
0000
0C00
0C30
1818
1818
180C
180C
1B0C
0D00
0600
0000
ENDCHAR
STARTCHAR 3044
ENCODING 12356
SWIDTH 960 0
DWIDTH 16 0
BBX 16 16 0 -2
BITMAP
0000
0000
0000
3000
3030
3018
600C
600C
6006
6006
6006
3606
3600
1C00
0000
0000
ENDCHAR
STARTCHAR 3045
ENCODING 12357
SWIDTH 960 0
DWIDTH 16 0
BBX 16 16 0 -2
BITMAP
0000
0000
0000
0300
01C0
0000
0000
03E0
0E30
0030
0030
0060
0060
00C0
0380
0000
ENDCHAR
STARTCHAR 3046
ENCODING 12358
SWIDTH 960 0
DWIDTH 16 0
BBX 16 16 0 -2
BITMAP
0700
01C0
0000
0000
07E0
3C30
0018
0018
0018
0030
0030
0060
00C0
0380
0E00
0000
ENDCHAR
STARTCHAR 3047
ENCODING 12359
SWIDTH 960 0
DWIDTH 16 0
BBX 16 16 0 -2
BITMAP
0000
0000
0000
0000
0600
0380
00E0
0000
1FE0
00C0
0180
0300
0E80
1980
3180
00F8
ENDCHAR
STARTCHAR 3048
ENCODING 12360
SWIDTH 960 0
DWIDTH 16 0
BBX 16 16 0 -2
BITMAP
0600
0300
01C0
0000
1FF0
0060
00C0
0180
0300
0780
0CC0
18C0
30C0
6060
003C
0000
ENDCHAR
STARTCHAR 3049
ENCODING 12361
SWIDTH 960 0
DWIDTH 16 0
BBX 16 16 0 -2
BITMAP
0000
0000
0000
0000
0600
0630
07D8
3E18
0600
07E0
0E30
1A18
3618
3630
1CE0
0000
ENDCHAR
STARTCHAR 304A
ENCODING 12362
SWIDTH 960 0
DWIDTH 16 0
BBX 16 16 0 -2
BITMAP
0600
0600
0638
07CC
7E06
0603
0600
07E0
1E38
360C
660C
660C
6C18
3870
01C0
0000
ENDCHAR
STARTCHAR 304B
ENCODING 12363
SWIDTH 960 0
DWIDTH 16 0
BBX 16 16 0 -2
BITMAP
0000
0C00
0C00
0C30
0C18
7F8C
0CCC
18C6
18C6
18C6
30C0
30C0
6180
6D80
0700
0000
ENDCHAR
STARTCHAR 304C
ENCODING 12364
SWIDTH 960 0
DWIDTH 16 0
BBX 16 16 0 -2
BITMAP
0C00
0C1A
0C1A
0C36
0C18
7F8C
0CCC
18C6
18C6
18C6
30C0
30C0
6180
6D80
0700
0000
ENDCHAR
STARTCHAR 304D
ENCODING 12365
SWIDTH 960 0
DWIDTH 16 0
BBX 16 16 0 -2
BITMAP
0300
0300
0370
3F80
0180
01F8
7F40
0060
0060
0FD0
1870
3000
3000
1C00
07C0
0000
ENDCHAR
STARTCHAR 304E
ENCODING 12366
SWIDTH 960 0
DWIDTH 16 0
BBX 16 16 0 -2
BITMAP
030C
0336
037A
3F98
0180
01F8
7F40
0060
0060
0FD0
1870
3000
3000
1C00
07C0
0000
ENDCHAR
STARTCHAR 304F
ENCODING 12367
SWIDTH 960 0
DWIDTH 16 0
BBX 16 16 0 -2
BITMAP
0060
0060
00C0
0180
0300
0600
0C00
0C00
0600
0300
0180
00C0
00C0
0060
0060
0000
ENDCHAR
STARTCHAR 3050
ENCODING 12368
SWIDTH 960 0
DWIDTH 16 0
BBX 16 16 0 -2
BITMAP
0060
0060
00CC
01B6
031A
0618
0C00
0C00
0600
0300
0180
00C0
00C0
0060
0060
0000
ENDCHAR
STARTCHAR 3051
ENCODING 12369
SWIDTH 960 0
DWIDTH 16 0
BBX 16 16 0 -2
BITMAP
0030
3030
3030
3030
303E
67F0
6030
6030
6030
6030
6830
3030
3030
0060
01C0
0000
ENDCHAR
STARTCHAR 3052
ENCODING 12370
SWIDTH 960 0
DWIDTH 16 0
BBX 16 16 0 -2
BITMAP
0036
303B
3035
3034
303E
67F0
6030
6030
6030
6030
6830
3030
3030
0060
01C0
0000
ENDCHAR
STARTCHAR 3053
ENCODING 12371
SWIDTH 960 0
DWIDTH 16 0
BBX 16 16 0 -2
BITMAP
0000
0000
0F00
01F8
0000
0000
0000
0000
0000
3000
3000
3000
180C
0FF8
0000
0000
ENDCHAR
STARTCHAR 3054
ENCODING 12372
SWIDTH 960 0
DWIDTH 16 0
BBX 16 16 0 -2
BITMAP
0000
001A
0F1A
01FA
0000
0000
0000
0000
0000
3000
3000
3000
180C
0FF8
0000
0000
ENDCHAR
STARTCHAR 3055
ENCODING 12373
SWIDTH 960 0
DWIDTH 16 0
BBX 16 16 0 -2
BITMAP
0180
0180
019C
1FF0
00C0
0060
0060
0030
07E8
0C38
1800
1800
0C00
0700
01F0
0000
ENDCHAR
STARTCHAR 3056
ENCODING 12374
SWIDTH 960 0
DWIDTH 16 0
BBX 16 16 0 -2
BITMAP
030C
0336
031A
3FF8
0180
00C0
00C0
0060
0FD0
1870
3000
3000
1800
0E00
03E0
0000
ENDCHAR
STARTCHAR 3057
ENCODING 12375
SWIDTH 960 0
DWIDTH 16 0
BBX 16 16 0 -2
BITMAP
0000
1800
1800
1800
1800
1800
1800
1800
1800
1800
1800
1818
1830
0CE0
0780
0000
ENDCHAR
STARTCHAR 3058
ENCODING 12376
SWIDTH 960 0
DWIDTH 16 0
BBX 16 16 0 -2
BITMAP
0000
1800
1830
18D8
1868
1860
1800
1800
1800
1800
1800
1818
1830
0CE0
0780
0000
ENDCHAR
STARTCHAR 3059
ENCODING 12377
SWIDTH 960 0
DWIDTH 16 0
BBX 16 16 0 -2
BITMAP
00C0
00C0
00FE
7FC0
00C0
00C0
0740
0DC0
0CC0
0CC0
0DC0
0740
00C0
00C0
0180
0700
ENDCHAR
STARTCHAR 305A
ENCODING 12378
SWIDTH 960 0
DWIDTH 16 0
BBX 16 16 0 -2
BITMAP
00C6
00DB
00FD
7FCC
00C0
00C0
0740
0DC0
0CC0
0CC0
0DC0
0740
00C0
00C0
0180
0700
ENDCHAR
STARTCHAR 305B
ENCODING 12379
SWIDTH 960 0
DWIDTH 16 0
BBX 16 16 0 -2
BITMAP
0000
0060
0C60
0C60
0C7E
0FE0
FC60
0C60
0C60
0C60
0CC0
0C00
0600
03F8
0000
0000
ENDCHAR
STARTCHAR 305C
ENCODING 12380
SWIDTH 960 0
DWIDTH 16 0
BBX 16 16 0 -2
BITMAP
0000
0066
0C6B
0C6D
0C7C
0FE0
FC60
0C60
0C60
0C60
0CC0
0C00
0600
03F8
0000
0000
ENDCHAR
STARTCHAR 305D
ENCODING 12381
SWIDTH 960 0
DWIDTH 16 0
BBX 16 16 0 -2
BITMAP
0000
0FF0
00C0
0180
0300
0600
0C7C
7FC0
0180
0300
0600
0600
0600
0300
01E0
0000
ENDCHAR
STARTCHAR 305E
ENCODING 12382
SWIDTH 960 0
DWIDTH 16 0
BBX 16 16 0 -2
BITMAP
000C
0FF6
00DA
0198
0300
0600
0C7C
7FC0
0180
0300
0600
0600
0600
0300
01E0
0000
ENDCHAR
STARTCHAR 305F
ENCODING 12383
SWIDTH 960 0
DWIDTH 16 0
BBX 16 16 0 -2
BITMAP
0C00
0C00
0DC0
7F00
0C00
1800
183C
19E0
1800
3000
3000
3000
6180
6180
60FE
0000
ENDCHAR
STARTCHAR 3060
ENCODING 12384
SWIDTH 960 0
DWIDTH 16 0
BBX 16 16 0 -2
BITMAP
0C00
0C0C
0DD6
7F1A
0C18
1800
183C
19E0
1800
3000
3000
3000
6180
6180
60FE
0000
ENDCHAR
STARTCHAR 3061
ENCODING 12385
SWIDTH 960 0
DWIDTH 16 0
BBX 16 16 0 -2
BITMAP
0600
0600
0600
7FF0
0600
0C00
0C00
0DF0
1B18
1C0C
180C
000C
0018
0070
07C0
0000
ENDCHAR
STARTCHAR 3062
ENCODING 12386
SWIDTH 960 0
DWIDTH 16 0
BBX 16 16 0 -2
BITMAP
060C
0636
061A
7FF8
0600
0C00
0C00
0DF0
1B18
1C0C
180C
000C
0018
0070
07C0
0000
ENDCHAR
STARTCHAR 3063
ENCODING 12387
SWIDTH 960 0
DWIDTH 16 0
BBX 16 16 0 -2
BITMAP
0000
0000
0000
0000
0000
0000
0000
0000
03F0
1E18
0018
0018
0030
00E0
0380
0000
ENDCHAR
STARTCHAR 3064
ENCODING 12388
SWIDTH 960 0
DWIDTH 16 0
BBX 16 16 0 -2
BITMAP
0000
0000
0000
01E0
0F38
F80C
0006
0006
0006
000C
0018
0070
03C0
0000
0000
0000
ENDCHAR
STARTCHAR 3065
ENCODING 12389
SWIDTH 960 0
DWIDTH 16 0
BBX 16 16 0 -2
BITMAP
0006
001B
000D
01EC
0F38
F80C
0006
0006
0006
000C
0018
0070
03C0
0000
0000
0000
ENDCHAR
STARTCHAR 3066
ENCODING 12390
SWIDTH 960 0
DWIDTH 16 0
BBX 16 16 0 -2
BITMAP
0000
001E
07F0
FC60
00C0
0180
0180
0300
0300
0300
0300
0180
00C0
0078
0000
0000
ENDCHAR
STARTCHAR 3067
ENCODING 12391
SWIDTH 960 0
DWIDTH 16 0
BBX 16 16 0 -2
BITMAP
0000
001E
07F0
FC66
00DB
018D
018C
0300
0300
0300
0300
0180
00C0
0078
0000
0000
ENDCHAR
STARTCHAR 3068
ENCODING 12392
SWIDTH 960 0
DWIDTH 16 0
BBX 16 16 0 -2
BITMAP
0000
0C00
0C00
0600
0600
031C
0370
01C0
0300
0600
0C00
1800
1800
0C00
07FC
0000
ENDCHAR
STARTCHAR 3069
ENCODING 12393
SWIDTH 960 0
DWIDTH 16 0
BBX 16 16 0 -2
BITMAP
0000
180C
1836
0C1A
0C18
0638
06E0
0380
0600
0C00
1800
3000
3000
1800
0FF8
0000
ENDCHAR
STARTCHAR 306A
ENCODING 12394
SWIDTH 960 0
DWIDTH 16 0
BBX 16 16 0 -2
BITMAP
0C00
0C00
0F80
7C38
0C0C
1866
1860
1860
3060
3060
6060
07E0
0C78
0C6C
07C0
0000
ENDCHAR
STARTCHAR 306B
ENCODING 12395
SWIDTH 960 0
DWIDTH 16 0
BBX 16 16 0 -2
BITMAP
0000
3000
3000
3078
33C0
6000
6000
6000
6000
6000
6600
6600
6380
68FC
3000
0000
ENDCHAR
STARTCHAR 306C
ENCODING 12396
SWIDTH 960 0
DWIDTH 16 0
BBX 16 16 0 -2
BITMAP
0000
0180
3180
3180
37F0
3D98
318C
3186
6B06
6B06
CE06
CC7A
DACC
70CC
007A
0000
ENDCHAR
STARTCHAR 306D
ENCODING 12397
SWIDTH 960 0
DWIDTH 16 0
BBX 16 16 0 -2
BITMAP
1800
1800
1800
1CF0
F998
1B0C
1A0C
1C0C
180C
380C
387C
68CC
D8CE
1878
1800
0000
ENDCHAR
STARTCHAR 306E
ENCODING 12398
SWIDTH 960 0
DWIDTH 16 0
BBX 16 16 0 -2
BITMAP
0000
0000
03E0
0EB0
1998
318C
318C
6306
6306
660C
6C0C
3818
0030
00E0
0000
0000
ENDCHAR
STARTCHAR 306F
ENCODING 12399
SWIDTH 960 0
DWIDTH 16 0
BBX 16 16 0 -2
BITMAP
0030
3030
3030
3030
303E
67F0
6030
6030
6030
6030
6030
63F0
6A3C
3636
33E0
0000
ENDCHAR
STARTCHAR 3070
ENCODING 12400
SWIDTH 960 0
DWIDTH 16 0
BBX 16 16 0 -2
BITMAP
0030
3035
3035
3035
303E
37F0
6030
6030
6030
6030
6030
63F0
6A3C
3636
33E0
0000
ENDCHAR
STARTCHAR 3071
ENCODING 12401
SWIDTH 960 0
DWIDTH 16 0
BBX 16 16 0 -2
BITMAP
0036
303B
303B
3036
303E
37F0
6030
6030
6030
6030
6030
63F0
6A3C
3636
33E0
0000
ENDCHAR
STARTCHAR 3072
ENCODING 12402
SWIDTH 960 0
DWIDTH 16 0
BBX 16 16 0 -2
BITMAP
0000
0300
1F00
F630
0C30
1838
3038
3034
6036
6030
6030
6060
3060
19C0
0F00
0000
ENDCHAR
STARTCHAR 3073
ENCODING 12403
SWIDTH 960 0
DWIDTH 16 0
BBX 16 16 0 -2
BITMAP
0000
0306
1F1B
F635
0C34
1838
3038
3034
6036
6030
6030
6060
3060
19C0
0F00
0000
ENDCHAR
STARTCHAR 3074
ENCODING 12404
SWIDTH 960 0
DWIDTH 16 0
BBX 16 16 0 -2
BITMAP
000E
031B
1F1B
F636
0C30
1838
3038
3034
6036
6030
6030
6060
3060
19C0
0F00
0000
ENDCHAR
STARTCHAR 3075
ENCODING 12405
SWIDTH 960 0
DWIDTH 16 0
BBX 16 16 0 -2
BITMAP
0000
0600
03C0
00C0
0180
0300
0300
0198
30CC
30C6
6063
6063
C060
0CC0
0780
0000
ENDCHAR
STARTCHAR 3076
ENCODING 12406
SWIDTH 960 0
DWIDTH 16 0
BBX 16 16 0 -2
BITMAP
0000
060C
03D6
00DA
0198
0300
0300
0198
30CC
30C6
6063
6063
C060
0CC0
0780
0000
ENDCHAR
STARTCHAR 3077
ENCODING 12407
SWIDTH 960 0
DWIDTH 16 0
BBX 16 16 0 -2
BITMAP
001C
0636
03D6
00DC
0180
0300
0300
0198
30CC
30C6
6063
6063
C060
0CC0
0780
0000
ENDCHAR
STARTCHAR 3078
ENCODING 12408
SWIDTH 960 0
DWIDTH 16 0
BBX 16 16 0 -2
BITMAP
0000
0000
0000
0000
0E00
1B00
3180
60C0
C060
0038
000E
0000
0000
0000
0000
0000
ENDCHAR
STARTCHAR 3079
ENCODING 12409
SWIDTH 960 0
DWIDTH 16 0
BBX 16 16 0 -2
BITMAP
0000
0000
0018
006C
0E34
1B30
3180
60C0
C060
0038
000E
0000
0000
0000
0000
0000
ENDCHAR
STARTCHAR 307A
ENCODING 12410
SWIDTH 960 0
DWIDTH 16 0
BBX 16 16 0 -2
BITMAP
0000
0000
0038
006C
006C
0E38
1B00
3180
60C0
C060
0038
000E
0000
0000
0000
0000
ENDCHAR
STARTCHAR 307B
ENCODING 12411
SWIDTH 960 0
DWIDTH 16 0
BBX 16 16 0 -2
BITMAP
0000
37FC
3030
3030
3030
603C
67F0
6030
6030
6030
6030
63F0
6A3C
3636
33E0
0000
ENDCHAR
STARTCHAR 307C
ENCODING 12412
SWIDTH 960 0
DWIDTH 16 0
BBX 16 16 0 -2
BITMAP
0006
37FB
3035
3034
3030
603C
67F0
6030
6030
6030
6030
63F0
6A3C
3636
33E0
0000
ENDCHAR
STARTCHAR 307D
ENCODING 12413
SWIDTH 960 0
DWIDTH 16 0
BBX 16 16 0 -2
BITMAP
000E
37FB
303B
3036
3030
603C
67F0
6030
6030
6030
6030
63F0
6A3C
3636
33E0
0000
ENDCHAR
STARTCHAR 307E
ENCODING 12414
SWIDTH 960 0
DWIDTH 16 0
BBX 16 16 0 -2
BITMAP
00C0
00C0
3FFC
00C0
00C0
00F8
3FC0
00C0
00C0
00C0
0FC0
18F0
30DC
38C0
0F80
0000
ENDCHAR
STARTCHAR 307F
ENCODING 12415
SWIDTH 960 0
DWIDTH 16 0
BBX 16 16 0 -2
BITMAP
0000
0000
3F80
0180
0180
0318
0318
0318
0FE8
3A3C
6636
CC30
D860
7060
00C0
0000
ENDCHAR
STARTCHAR 3080
ENCODING 12416
SWIDTH 960 0
DWIDTH 16 0
BBX 16 16 0 -2
BITMAP
0C00
0C00
0C00
7F98
0C0C
0C0C
3C06
6C06
6C30
6C18
6818
3818
1818
1830
0FE0
0000
ENDCHAR
STARTCHAR 3081
ENCODING 12417
SWIDTH 960 0
DWIDTH 16 0
BBX 16 16 0 -2
BITMAP
0000
00C0
30C0
30C0
33F0
3698
398C
398C
6B06
6D06
C606
C60C
DD0C
7018
0070
0000
ENDCHAR
STARTCHAR 3082
ENCODING 12418
SWIDTH 960 0
DWIDTH 16 0
BBX 16 16 0 -2
BITMAP
0600
0600
0600
3FC0
0600
0600
0CE0
7F80
0C00
0C0C
0C0C
0C0C
0618
0330
01E0
0000
ENDCHAR
STARTCHAR 3083
ENCODING 12419
SWIDTH 960 0
DWIDTH 16 0
BBX 16 16 0 -2
BITMAP
0000
0000
0000
0000
01C0
1860
1800
0DF0
0F18
1C18
7630
06E0
0300
0300
0300
0000
ENDCHAR
STARTCHAR 3084
ENCODING 12420
SWIDTH 960 0
DWIDTH 16 0
BBX 16 16 0 -2
BITMAP
00C0
0060
3030
3030
1800
18FC
0D86
1E06
F406
060C
0678
0300
0300
0180
0180
0180
ENDCHAR
STARTCHAR 3085
ENCODING 12421
SWIDTH 960 0
DWIDTH 16 0
BBX 16 16 0 -2
BITMAP
0000
0000
0000
0000
0180
3180
33E0
36B0
3598
3998
3998
36B0
33E0
0180
0300
0600
ENDCHAR
STARTCHAR 3086
ENCODING 12422
SWIDTH 960 0
DWIDTH 16 0
BBX 16 16 0 -2
BITMAP
0000
0180
60C0
61F8
674C
6CC6
68C6
70C6
70C6
66CC
6358
61F0
00C0
0180
0300
0000
ENDCHAR
STARTCHAR 3087
ENCODING 12423
SWIDTH 960 0
DWIDTH 16 0
BBX 16 16 0 -2
BITMAP
0000
0000
0000
0000
0300
0300
0300
03E0
0300
0300
0300
1F00
33C0
3370
1E00
0000
ENDCHAR
STARTCHAR 3088
ENCODING 12424
SWIDTH 960 0
DWIDTH 16 0
BBX 16 16 0 -2
BITMAP
0180
0180
0180
019C
01F0
0180
0180
0180
0180
0180
1F80
71E0
61B8
630C
3E00
0000
ENDCHAR
STARTCHAR 3089
ENCODING 12425
SWIDTH 960 0
DWIDTH 16 0
BBX 16 16 0 -2
BITMAP
0300
0180
00E0
1800
1800
1800
1800
19F0
1B18
1C0C
180C
0018
0030
00E0
0780
0000
ENDCHAR
STARTCHAR 308A
ENCODING 12426
SWIDTH 960 0
DWIDTH 16 0
BBX 16 16 0 -2
BITMAP
0060
0C30
0C30
0C30
1830
1830
1830
1830
1A30
0C30
0060
0060
00C0
0180
0700
0000
ENDCHAR
STARTCHAR 308B
ENCODING 12427
SWIDTH 960 0
DWIDTH 16 0
BBX 16 16 0 -2
BITMAP
0000
0FE0
00C0
0180
0300
0600
0FE0
1C30
3018
600C
000C
070C
0D98
0CF0
07C0
0000
ENDCHAR
STARTCHAR 308C
ENCODING 12428
SWIDTH 960 0
DWIDTH 16 0
BBX 16 16 0 -2
BITMAP
0C00
0C00
0C00
0DE0
1D30
F630
0C30
0C30
0C30
1C30
1C30
3433
6C36
CC1C
0C00
0000
ENDCHAR
STARTCHAR 308D
ENCODING 12429
SWIDTH 960 0
DWIDTH 16 0
BBX 16 16 0 -2
BITMAP
0000
0FE0
0060
00C0
0180
0300
07F0
0E18
180C
300C
000C
0018
0030
00E0
0380
0000
ENDCHAR
STARTCHAR 308E
ENCODING 12430
SWIDTH 960 0
DWIDTH 16 0
BBX 16 16 0 -2
BITMAP
0000
0000
0000
0000
0C00
0C00
0C00
0EE0
3D30
0E18
0C18
1C18
3430
0CE0
0C00
0C00
ENDCHAR
STARTCHAR 308F
ENCODING 12431
SWIDTH 960 0
DWIDTH 16 0
BBX 16 16 0 -2
BITMAP
1800
1800
1800
1E00
3C00
E9F0
1B18
1C0C
1806
3806
680C
D80C
1838
18E0
1800
0000
ENDCHAR
STARTCHAR 3090
ENCODING 12432
SWIDTH 960 0
DWIDTH 16 0
BBX 16 16 0 -2
BITMAP
0000
1F80
0180
0180
0180
0180
07F0
1D18
330C
6606
C606
CCF6
D99C
719A
00F0
0000
ENDCHAR
STARTCHAR 3091
ENCODING 12433
SWIDTH 960 0
DWIDTH 16 0
BBX 16 16 0 -2
BITMAP
0000
3FC0
0180
0700
0FC0
1860
3030
0E30
1B60
1B40
0F80
0C00
1EF0
7398
C03C
0000
ENDCHAR
STARTCHAR 3092
ENCODING 12434
SWIDTH 960 0
DWIDTH 16 0
BBX 16 16 0 -2
BITMAP
0300
0300
03E0
3F00
0600
060E
0FB8
18E0
31C0
6340
06C0
0CC0
0C00
0600
03F8
0000
ENDCHAR
STARTCHAR 3093
ENCODING 12435
SWIDTH 960 0
DWIDTH 16 0
BBX 16 16 0 -2
BITMAP
0180
0180
0300
0300
0600
0600
0600
0D80
0EC0
1CC0
18C0
30C3
30C6
606C
6038
0000
ENDCHAR
STARTCHAR 309B
ENCODING 12443
SWIDTH 960 0
DWIDTH 16 0
BBX 16 16 0 -2
BITMAP
3000
D800
6800
6000
0000
0000
0000
0000
0000
0000
0000
0000
0000
0000
0000
0000
ENDCHAR
STARTCHAR 309C
ENCODING 12444
SWIDTH 960 0
DWIDTH 16 0
BBX 16 16 0 -2
BITMAP
0000
E000
B000
B000
E000
0000
0000
0000
0000
0000
0000
0000
0000
0000
0000
0000
ENDCHAR
STARTCHAR 309D
ENCODING 12445
SWIDTH 960 0
DWIDTH 16 0
BBX 16 16 0 -2
BITMAP
0000
0000
0000
0000
1C00
0700
0180
00C0
0060
00F0
0180
0300
0000
0000
0000
0000
ENDCHAR
STARTCHAR 309E
ENCODING 12446
SWIDTH 960 0
DWIDTH 16 0
BBX 16 16 0 -2
BITMAP
0000
0000
0030
00D8
1C68
0760
0180
00C0
0060
00F0
0180
0300
0000
0000
0000
0000
ENDCHAR
STARTCHAR 30A1
ENCODING 12449
SWIDTH 960 0
DWIDTH 16 0
BBX 16 16 0 -2
BITMAP
0000
0000
0000
0000
0000
0000
0000
3FF0
0330
0360
0340
0300
0300
0600
0C00
0000
ENDCHAR
STARTCHAR 30A2
ENCODING 12450
SWIDTH 960 0
DWIDTH 16 0
BBX 16 16 0 -2
BITMAP
0000
0000
0000
FFFC
000C
030C
0318
0330
0360
0300
0300
0600
0600
0C00
3800
0000
ENDCHAR
STARTCHAR 30A3
ENCODING 12451
SWIDTH 960 0
DWIDTH 16 0
BBX 16 16 0 -2
BITMAP
0000
0000
0000
0000
0000
0030
0060
00C0
0180
0780
1D80
0180
0180
0180
0180
0000
ENDCHAR
STARTCHAR 30A4
ENCODING 12452
SWIDTH 960 0
DWIDTH 16 0
BBX 16 16 0 -2
BITMAP
0000
0030
0030
0060
00C0
0180
0780
1D80
7180
0180
0180
0180
0180
0180
0180
0000
ENDCHAR
STARTCHAR 30A5
ENCODING 12453
SWIDTH 960 0
DWIDTH 16 0
BBX 16 16 0 -2
BITMAP
0000
0000
0000
0000
0180
0180
0180
1FF8
1818
1818
1830
0030
0060
01C0
0700
0000
ENDCHAR
STARTCHAR 30A6
ENCODING 12454
SWIDTH 960 0
DWIDTH 16 0
BBX 16 16 0 -2
BITMAP
0000
0180
0180
0180
3FFC
300C
300C
300C
300C
0018
0018
0030
0060
01C0
0700
0000
ENDCHAR
STARTCHAR 30A7
ENCODING 12455
SWIDTH 960 0
DWIDTH 16 0
BBX 16 16 0 -2
BITMAP
0000
0000
0000
0000
0000
0000
0000
0000
1FE0
0300
0300
0300
0300
0300
3FF0
0000
ENDCHAR
STARTCHAR 30A8
ENCODING 12456
SWIDTH 960 0
DWIDTH 16 0
BBX 16 16 0 -2
BITMAP
0000
0000
0000
0000
3FF8
0180
0180
0180
0180
0180
0180
0180
FFFE
0000
0000
0000
ENDCHAR
STARTCHAR 30A9
ENCODING 12457
SWIDTH 960 0
DWIDTH 16 0
BBX 16 16 0 -2
BITMAP
0000
0000
0000
0000
0000
00C0
00C0
00C0
1FF8
01C0
0340
06C0
0CC0
18C0
01C0
0000
ENDCHAR
STARTCHAR 30AA
ENCODING 12458
SWIDTH 960 0
DWIDTH 16 0
BBX 16 16 0 -2
BITMAP
0000
0060
0060
0060
3FFE
0060
00E0
01A0
01A0
0360
0660
0C60
3860
0060
01E0
0000
ENDCHAR
STARTCHAR 30AB
ENCODING 12459
SWIDTH 960 0
DWIDTH 16 0
BBX 16 16 0 -2
BITMAP
0000
0300
0300
0300
7FF8
0318
0318
0318
0318
0618
0618
0C18
1818
3030
60E0
0000
ENDCHAR
STARTCHAR 30AC
ENCODING 12460
SWIDTH 960 0
DWIDTH 16 0
BBX 16 16 0 -2
BITMAP
0000
0306
031B
030D
7FFC
0318
0318
0318
0318
0618
0618
0C18
1818
3030
60E0
0000
ENDCHAR
STARTCHAR 30AD
ENCODING 12461
SWIDTH 960 0
DWIDTH 16 0
BBX 16 16 0 -2
BITMAP
0000
0300
0300
0338
03E0
3E80
0180
019E
01F0
0740
7CC0
00C0
00C0
0060
0060
0060
ENDCHAR
STARTCHAR 30AE
ENCODING 12462
SWIDTH 960 0
DWIDTH 16 0
BBX 16 16 0 -2
BITMAP
0000
030C
0336
033A
03E8
3E80
0180
019E
01F0
0740
7CC0
00C0
00C0
0060
0060
0060
ENDCHAR
STARTCHAR 30AF
ENCODING 12463
SWIDTH 960 0
DWIDTH 16 0
BBX 16 16 0 -2
BITMAP
0000
0180
0180
03FC
030C
0618
0C18
1830
3030
0060
00C0
0180
0300
0E00
3800
0000
ENDCHAR
STARTCHAR 30B0
ENCODING 12464
SWIDTH 960 0
DWIDTH 16 0
BBX 16 16 0 -2
BITMAP
0006
031B
030D
07F4
0630
0C30
1860
3060
60C0
00C0
0180
0300
0600
1C00
7000
0000
ENDCHAR
STARTCHAR 30B1
ENCODING 12465
SWIDTH 960 0
DWIDTH 16 0
BBX 16 16 0 -2
BITMAP
0000
0C00
0C00
0C00
0FFE
0C60
1860
1860
3060
6060
00C0
00C0
0180
0300
0E00
0000
ENDCHAR
STARTCHAR 30B2
ENCODING 12466
SWIDTH 960 0
DWIDTH 16 0
BBX 16 16 0 -2
BITMAP
0000
0C06
0C1B
0C0D
0FFC
0C60
1860
1860
3060
6060
00C0
00C0
0180
0300
0E00
0000
ENDCHAR
STARTCHAR 30B3
ENCODING 12467
SWIDTH 960 0
DWIDTH 16 0
BBX 16 16 0 -2
BITMAP
0000
0000
0000
7FF8
0018
0018
0018
0018
0018
0018
0018
0018
7FF8
0018
0000
0000
ENDCHAR
STARTCHAR 30B4
ENCODING 12468
SWIDTH 960 0
DWIDTH 16 0
BBX 16 16 0 -2
BITMAP
0006
001B
000D
7FFC
0018
0018
0018
0018
0018
0018
0018
0018
7FF8
0018
0000
0000
ENDCHAR
STARTCHAR 30B5
ENCODING 12469
SWIDTH 960 0
DWIDTH 16 0
BBX 16 16 0 -2
BITMAP
0000
0C30
0C30
0C30
0C30
FFFE
0C30
0C30
0C30
0C30
0C60
0060
00C0
0180
0700
0000
ENDCHAR
STARTCHAR 30B6
ENCODING 12470
SWIDTH 960 0
DWIDTH 16 0
BBX 16 16 0 -2
BITMAP
0006
0C3B
0C35
0C34
0C30
FFFE
0C30
0C30
0C30
0C30
0C60
0060
00C0
0180
0700
0000
ENDCHAR
STARTCHAR 30B7
ENCODING 12471
SWIDTH 960 0
DWIDTH 16 0
BBX 16 16 0 -2
BITMAP
0000
0000
1C00
0600
0000
0006
3806
0C0C
000C
0018
0030
0060
01C0
0700
3C00
0000
ENDCHAR
STARTCHAR 30B8
ENCODING 12472
SWIDTH 960 0
DWIDTH 16 0
BBX 16 16 0 -2
BITMAP
0000
000C
1C36
061A
0018
0006
3806
0C0C
000C
0018
0030
0060
01C0
0700
3C00
0000
ENDCHAR
STARTCHAR 30B9
ENCODING 12473
SWIDTH 960 0
DWIDTH 16 0
BBX 16 16 0 -2
BITMAP
0000
0000
0000
3FE0
0060
0060
00C0
00C0
0180
01C0
0360
0630
0C18
380C
E00C
0000
ENDCHAR
STARTCHAR 30BA
ENCODING 12474
SWIDTH 960 0
DWIDTH 16 0
BBX 16 16 0 -2
BITMAP
0000
000C
0036
3FEA
0068
0060
00C0
00C0
0180
01C0
0360
0630
0C18
380C
E00C
0000
ENDCHAR
STARTCHAR 30BB
ENCODING 12475
SWIDTH 960 0
DWIDTH 16 0
BBX 16 16 0 -2
BITMAP
0000
0600
0600
0600
063E
07E6
7E0C
0618
0630
0660
0600
0600
0300
01FC
0000
0000
ENDCHAR
STARTCHAR 30BC
ENCODING 12476
SWIDTH 960 0
DWIDTH 16 0
BBX 16 16 0 -2
BITMAP
0006
061B
060D
060C
063E
07E6
7E0C
0618
0630
0660
0600
0600
0300
01FC
0000
0000
ENDCHAR
STARTCHAR 30BD
ENCODING 12477
SWIDTH 960 0
DWIDTH 16 0
BBX 16 16 0 -2
BITMAP
0000
0000
000C
300C
180C
0C0C
0C18
0C18
0030
0030
0060
00C0
0180
0700
1C00
0000
ENDCHAR
STARTCHAR 30BE
ENCODING 12478
SWIDTH 960 0
DWIDTH 16 0
BBX 16 16 0 -2
BITMAP
0000
000C
0036
601A
3018
1818
1830
1830
0060
0060
00C0
0180
0300
0E00
3800
0000
ENDCHAR
STARTCHAR 30BF
ENCODING 12479
SWIDTH 960 0
DWIDTH 16 0
BBX 16 16 0 -2
BITMAP
0000
0300
0300
03FC
060C
0C18
1818
7730
01D0
0060
00C0
0180
0300
0E00
7800
0000
ENDCHAR
STARTCHAR 30C0
ENCODING 12480
SWIDTH 960 0
DWIDTH 16 0
BBX 16 16 0 -2
BITMAP
0006
031B
030D
03FC
060C
0C18
1818
7730
01D0
0060
00C0
0180
0300
0E00
7800
0000
ENDCHAR
STARTCHAR 30C1
ENCODING 12481
SWIDTH 960 0
DWIDTH 16 0
BBX 16 16 0 -2
BITMAP
0000
0030
01E0
3F80
0180
0180
0180
FFFC
0180
0180
0180
0300
0300
0600
1C00
0000
ENDCHAR
STARTCHAR 30C2
ENCODING 12482
SWIDTH 960 0
DWIDTH 16 0
BBX 16 16 0 -2
BITMAP
000C
0036
01EA
3F98
0180
0180
0180
FFFC
0180
0180
0180
0300
0300
0600
1C00
0000
ENDCHAR
STARTCHAR 30C3
ENCODING 12483
SWIDTH 960 0
DWIDTH 16 0
BBX 16 16 0 -2
BITMAP
0000
0000
0000
0000
0000
0000
0600
3330
1B30
1830
0060
0060
00C0
0180
0700
0000
ENDCHAR
STARTCHAR 30C4
ENCODING 12484
SWIDTH 960 0
DWIDTH 16 0
BBX 16 16 0 -2
BITMAP
0000
0000
0600
630C
330C
330C
3018
0018
0030
0030
0060
00C0
0180
0700
1C00
0000
ENDCHAR
STARTCHAR 30C5
ENCODING 12485
SWIDTH 960 0
DWIDTH 16 0
BBX 16 16 0 -2
BITMAP
0006
001B
060D
630C
3318
3318
3018
0030
0030
0060
0060
00C0
0180
0700
1C00
0000
ENDCHAR
STARTCHAR 30C6
ENCODING 12486
SWIDTH 960 0
DWIDTH 16 0
BBX 16 16 0 -2
BITMAP
0000
0000
0000
1FF8
0000
0000
0000
7FFE
00C0
00C0
00C0
0180
0180
0300
0E00
0000
ENDCHAR
STARTCHAR 30C7
ENCODING 12487
SWIDTH 960 0
DWIDTH 16 0
BBX 16 16 0 -2
BITMAP
0000
000C
0036
1FEA
0018
0000
0000
7FFE
00C0
00C0
00C0
0180
0180
0300
0E00
0000
ENDCHAR
STARTCHAR 30C8
ENCODING 12488
SWIDTH 960 0
DWIDTH 16 0
BBX 16 16 0 -2
BITMAP
0000
0600
0600
0600
0600
0600
0600
0780
06E0
0630
0618
0600
0600
0600
0600
0600
ENDCHAR
STARTCHAR 30C9
ENCODING 12489
SWIDTH 960 0
DWIDTH 16 0
BBX 16 16 0 -2
BITMAP
0000
060C
0636
061A
0618
0600
0600
0780
06E0
0630
0618
0600
0600
0600
0600
0600
ENDCHAR
STARTCHAR 30CA
ENCODING 12490
SWIDTH 960 0
DWIDTH 16 0
BBX 16 16 0 -2
BITMAP
0000
00C0
00C0
00C0
00C0
7FFE
00C0
00C0
00C0
00C0
00C0
0180
0180
0700
1C00
0000
ENDCHAR
STARTCHAR 30CB
ENCODING 12491
SWIDTH 960 0
DWIDTH 16 0
BBX 16 16 0 -2
BITMAP
0000
0000
0000
0000
3FF8
0000
0000
0000
0000
0000
0000
FFFE
0000
0000
0000
0000
ENDCHAR
STARTCHAR 30CC
ENCODING 12492
SWIDTH 960 0
DWIDTH 16 0
BBX 16 16 0 -2
BITMAP
0000
0000
0000
1FF8
0018
0030
0030
0E60
03A0
00C0
01A0
0330
0618
1C0C
7000
0000
ENDCHAR
STARTCHAR 30CD
ENCODING 12493
SWIDTH 960 0
DWIDTH 16 0
BBX 16 16 0 -2
BITMAP
0180
0180
0180
3FF8
0018
0030
0060
00C0
03B0
0E9C
7986
0180
0180
0180
0180
0000
ENDCHAR
STARTCHAR 30CE
ENCODING 12494
SWIDTH 960 0
DWIDTH 16 0
BBX 16 16 0 -2
BITMAP
0000
0018
0018
0018
0018
0030
0030
0060
0060
00C0
0180
0300
0600
1C00
7000
0000
ENDCHAR
STARTCHAR 30CF
ENCODING 12495
SWIDTH 960 0
DWIDTH 16 0
BBX 16 16 0 -2
BITMAP
0000
0000
0000
0CC0
0C60
0C30
0C30
1818
1818
180C
300C
3006
6006
C006
0000
0000
ENDCHAR
STARTCHAR 30D0
ENCODING 12496
SWIDTH 960 0
DWIDTH 16 0
BBX 16 16 0 -2
BITMAP
0000
000C
0036
0CDA
0C68
0C30
0C30
1818
1818
180C
300C
3006
6006
C006
0000
0000
ENDCHAR
STARTCHAR 30D1
ENCODING 12497
SWIDTH 960 0
DWIDTH 16 0
BBX 16 16 0 -2
BITMAP
001C
0036
0036
0CDC
0C60
0C30
0C30
1818
1818
180C
300C
3006
6006
C006
0000
0000
ENDCHAR
STARTCHAR 30D2
ENCODING 12498
SWIDTH 960 0
DWIDTH 16 0
BBX 16 16 0 -2
BITMAP
0000
3000
3000
3000
3000
3070
33C0
3E00
3000
3000
3000
3000
1800
0FF8
0000
0000
ENDCHAR
STARTCHAR 30D3
ENCODING 12499
SWIDTH 960 0
DWIDTH 16 0
BBX 16 16 0 -2
BITMAP
0000
300C
3036
301A
3018
3070
33C0
3E00
3000
3000
3000
3000
1800
0FF8
0000
0000
ENDCHAR
STARTCHAR 30D4
ENCODING 12500
SWIDTH 960 0
DWIDTH 16 0
BBX 16 16 0 -2
BITMAP
0000
601C
6036
6036
601C
60E0
6780
7C00
6000
6000
6000
6000
3000
1FF0
0000
0000
ENDCHAR
STARTCHAR 30D5
ENCODING 12501
SWIDTH 960 0
DWIDTH 16 0
BBX 16 16 0 -2
BITMAP
0000
0000
0000
7FFC
000C
000C
0018
0018
0030
0030
0060
00C0
0180
0700
1C00
0000
ENDCHAR
STARTCHAR 30D6
ENCODING 12502
SWIDTH 960 0
DWIDTH 16 0
BBX 16 16 0 -2
BITMAP
000C
0036
001A
7FF8
0018
0018
0030
0030
0060
0060
00C0
0180
0300
0E00
3800
0000
ENDCHAR
STARTCHAR 30D7
ENCODING 12503
SWIDTH 960 0
DWIDTH 16 0
BBX 16 16 0 -2
BITMAP
0000
000E
001B
7FFB
001E
0018
0030
0030
0060
0060
00C0
0180
0300
0E00
3800
0000
ENDCHAR
STARTCHAR 30D8
ENCODING 12504
SWIDTH 960 0
DWIDTH 16 0
BBX 16 16 0 -2
BITMAP
0000
0000
0000
0000
0700
0D80
18C0
3060
6030
C018
000C
0006
0000
0000
0000
0000
ENDCHAR
STARTCHAR 30D9
ENCODING 12505
SWIDTH 960 0
DWIDTH 16 0
BBX 16 16 0 -2
BITMAP
0000
0000
000C
0036
071A
0D98
18C0
3060
6030
C018
000C
0006
0000
0000
0000
0000
ENDCHAR
STARTCHAR 30DA
ENCODING 12506
SWIDTH 960 0
DWIDTH 16 0
BBX 16 16 0 -2
BITMAP
0000
0038
006C
006C
0738
0D80
18C0
3060
6030
C018
000C
0006
0000
0000
0000
0000
ENDCHAR
STARTCHAR 30DB
ENCODING 12507
SWIDTH 960 0
DWIDTH 16 0
BBX 16 16 0 -2
BITMAP
0000
0180
0180
0180
7FFE
0180
0180
0DB0
0D98
0D8C
198C
1986
3186
6180
0380
0000
ENDCHAR
STARTCHAR 30DC
ENCODING 12508
SWIDTH 960 0
DWIDTH 16 0
BBX 16 16 0 -2
BITMAP
0000
0186
019B
018D
7FFC
0180
0180
0DB0
0D98
0D8C
198C
1986
3186
6180
0380
0000
ENDCHAR
STARTCHAR 30DD
ENCODING 12509
SWIDTH 960 0
DWIDTH 16 0
BBX 16 16 0 -2
BITMAP
0000
018E
019B
019B
7FFE
0180
0180
0DB0
0D98
0D8C
198C
1986
3186
6180
0380
0000
ENDCHAR
STARTCHAR 30DE
ENCODING 12510
SWIDTH 960 0
DWIDTH 16 0
BBX 16 16 0 -2
BITMAP
0000
0000
0000
7FFE
000C
000C
0018
0030
1C60
0740
0180
00C0
0060
0060
0000
0000
ENDCHAR
STARTCHAR 30DF
ENCODING 12511
SWIDTH 960 0
DWIDTH 16 0
BBX 16 16 0 -2
BITMAP
0000
0E00
0380
00E0
0030
0000
0E00
0380
00C0
0060
3000
1C00
0700
01C0
0060
0030
ENDCHAR
STARTCHAR 30E0
ENCODING 12512
SWIDTH 960 0
DWIDTH 16 0
BBX 16 16 0 -2
BITMAP
0000
0300
0300
0300
0300
0300
0600
0660
0630
0C30
0C18
1BF8
7E0C
000C
000C
0000
ENDCHAR
STARTCHAR 30E1
ENCODING 12513
SWIDTH 960 0
DWIDTH 16 0
BBX 16 16 0 -2
BITMAP
0000
0018
0018
0018
0018
0E30
03B0
00D0
0060
0070
00D8
018C
0300
0E00
3800
0000
ENDCHAR
STARTCHAR 30E2
ENCODING 12514
SWIDTH 960 0
DWIDTH 16 0
BBX 16 16 0 -2
BITMAP
0000
0000
3FF0
0600
0600
0600
0600
FFFC
0600
0600
0600
0600
0300
01F8
0000
0000
ENDCHAR
STARTCHAR 30E3
ENCODING 12515
SWIDTH 960 0
DWIDTH 16 0
BBX 16 16 0 -2
BITMAP
0000
0000
0000
0000
0000
0600
0600
0378
03D8
0F30
3B60
0180
0180
00C0
00C0
00C0
ENDCHAR
STARTCHAR 30E4
ENCODING 12516
SWIDTH 960 0
DWIDTH 16 0
BBX 16 16 0 -2
BITMAP
0000
0C00
0C00
061E
06F6
0F8C
7A18
0330
0360
0180
0180
0180
00C0
00C0
00C0
0000
ENDCHAR
STARTCHAR 30E5
ENCODING 12517
SWIDTH 960 0
DWIDTH 16 0
BBX 16 16 0 -2
BITMAP
0000
0000
0000
0000
0000
0000
0000
0000
1FC0
00C0
00C0
00C0
00C0
7FF8
0000
0000
ENDCHAR
STARTCHAR 30E6
ENCODING 12518
SWIDTH 960 0
DWIDTH 16 0
BBX 16 16 0 -2
BITMAP
0000
0000
0000
0000
3FE0
0060
0060
0060
0060
0060
0060
0060
FFFE
0000
0000
0000
ENDCHAR
STARTCHAR 30E7
ENCODING 12519
SWIDTH 960 0
DWIDTH 16 0
BBX 16 16 0 -2
BITMAP
0000
0000
0000
0000
0000
0000
0FF0
0030
0030
0030
0FF0
0030
0030
0030
0FF0
0000
ENDCHAR
STARTCHAR 30E8
ENCODING 12520
SWIDTH 960 0
DWIDTH 16 0
BBX 16 16 0 -2
BITMAP
0000
0000
3FF8
0018
0018
0018
0018
3FF8
0018
0018
0018
0018
0018
3FF8
0018
0000
ENDCHAR
STARTCHAR 30E9
ENCODING 12521
SWIDTH 960 0
DWIDTH 16 0
BBX 16 16 0 -2
BITMAP
0000
0000
3FF8
0000
0000
0000
7FFC
000C
000C
0018
0018
0030
00E0
0380
1E00
0000
ENDCHAR
STARTCHAR 30EA
ENCODING 12522
SWIDTH 960 0
DWIDTH 16 0
BBX 16 16 0 -2
BITMAP
0000
1830
1830
1830
1830
1830
1830
1830
1830
0030
0060
0060
00C0
0180
0700
0000
ENDCHAR
STARTCHAR 30EB
ENCODING 12523
SWIDTH 960 0
DWIDTH 16 0
BBX 16 16 0 -2
BITMAP
0000
00C0
00C0
0CC0
0CC0
0CC0
0CC3
0CC3
0CC6
0CC6
0CCC
18D8
18D0
30E0
6000
0000
ENDCHAR
STARTCHAR 30EC
ENCODING 12524
SWIDTH 960 0
DWIDTH 16 0
BBX 16 16 0 -2
BITMAP
0000
0C00
0C00
0C00
0C00
0C00
0C00
0C00
0C0C
0C0C
0C18
0C30
0C60
0DC0
0F00
0000
ENDCHAR
STARTCHAR 30ED
ENCODING 12525
SWIDTH 960 0
DWIDTH 16 0
BBX 16 16 0 -2
BITMAP
0000
0000
0000
3FFC
300C
300C
300C
300C
300C
300C
300C
300C
3FFC
300C
0000
0000
ENDCHAR
STARTCHAR 30EE
ENCODING 12526
SWIDTH 960 0
DWIDTH 16 0
BBX 16 16 0 -2
BITMAP
0000
0000
0000
0000
0000
0000
1FF8
1818
1818
1818
0030
0030
0060
00C0
0380
0000
ENDCHAR
STARTCHAR 30EF
ENCODING 12527
SWIDTH 960 0
DWIDTH 16 0
BBX 16 16 0 -2
BITMAP
0000
0000
0000
7FF8
6018
6018
6018
6018
0018
0030
0030
0060
00C0
0380
0E00
0000
ENDCHAR
STARTCHAR 30F0
ENCODING 12528
SWIDTH 960 0
DWIDTH 16 0
BBX 16 16 0 -2
BITMAP
0000
00C0
00C0
00C0
7FFC
18C0
18C0
18C0
18C0
18C0
FFFE
00C0
00C0
00C0
00C0
0000
ENDCHAR
STARTCHAR 30F1
ENCODING 12529
SWIDTH 960 0
DWIDTH 16 0
BBX 16 16 0 -2
BITMAP
0000
0000
0000
3FF8
0030
0060
0340
0300
0300
0300
0300
0300
FFFC
0000
0000
0000
ENDCHAR
STARTCHAR 30F2
ENCODING 12530
SWIDTH 960 0
DWIDTH 16 0
BBX 16 16 0 -2
BITMAP
0000
0000
1FFC
000C
000C
000C
0FFC
0018
0018
0030
0060
00C0
0380
1E00
0000
0000
ENDCHAR
STARTCHAR 30F3
ENCODING 12531
SWIDTH 960 0
DWIDTH 16 0
BBX 16 16 0 -2
BITMAP
0000
0000
0000
3800
0C00
0606
0006
000C
000C
0018
0030
0060
01C0
0700
3C00
0000
ENDCHAR
STARTCHAR 30F4
ENCODING 12532
SWIDTH 960 0
DWIDTH 16 0
BBX 16 16 0 -2
BITMAP
0180
0186
019B
018D
3FFC
300C
300C
300C
300C
0018
0018
0030
0060
01C0
0700
0000
ENDCHAR
STARTCHAR 30F5
ENCODING 12533
SWIDTH 960 0
DWIDTH 16 0
BBX 16 16 0 -2
BITMAP
0000
0000
0000
0000
0300
0300
0300
3FF0
0330
0330
0330
0630
0630
0C30
18E0
0000
ENDCHAR
STARTCHAR 30F6
ENCODING 12534
SWIDTH 960 0
DWIDTH 16 0
BBX 16 16 0 -2
BITMAP
0000
0000
0000
0000
0600
0600
0600
0FFC
0C60
1860
30C0
00C0
0180
0300
0E00
0000
ENDCHAR
STARTCHAR 30FB
ENCODING 12539
SWIDTH 960 0
DWIDTH 16 0
BBX 16 16 0 -2
BITMAP
0000
0000
0000
0000
0000
0000
0000
0380
0380
0000
0000
0000
0000
0000
0000
0000
ENDCHAR
STARTCHAR 30FC
ENCODING 12540
SWIDTH 960 0
DWIDTH 16 0
BBX 16 16 0 -2
BITMAP
0000
0000
0000
0000
0000
0000
C000
7FFC
0000
0000
0000
0000
0000
0000
0000
0000
ENDCHAR
STARTCHAR 30FD
ENCODING 12541
SWIDTH 960 0
DWIDTH 16 0
BBX 16 16 0 -2
BITMAP
0000
0000
0000
0000
0000
1C00
0700
0180
00C0
0060
0030
0000
0000
0000
0000
0000
ENDCHAR
STARTCHAR 30FE
ENCODING 12542
SWIDTH 960 0
DWIDTH 16 0
BBX 16 16 0 -2
BITMAP
0000
0000
0060
01B0
00D0
1CC0
0700
0180
00C0
0060
0030
0000
0000
0000
0000
0000
ENDCHAR
STARTCHAR 4E00
ENCODING 19968
SWIDTH 960 0
DWIDTH 16 0
BBX 16 16 0 -2
BITMAP
0000
0000
0000
0000
0000
0000
0006
FFFF
0000
0000
0000
0000
0000
0000
0000
0000
ENDCHAR
STARTCHAR 4E01
ENCODING 19969
SWIDTH 960 0
DWIDTH 16 0
BBX 16 16 0 -2
BITMAP
0000
0000
FFFF
0180
0180
0180
0180
0180
0180
0180
0180
0180
0180
0180
0180
0380
ENDCHAR
STARTCHAR 4E03
ENCODING 19971
SWIDTH 960 0
DWIDTH 16 0
BBX 16 16 0 -2
BITMAP
0C00
0C00
0C00
0C00
0C0E
0CF8
0F80
FC00
0C00
0C00
0C00
0C0C
0C0C
060C
03FC
0000
ENDCHAR
STARTCHAR 4E07
ENCODING 19975
SWIDTH 960 0
DWIDTH 16 0
BBX 16 16 0 -2
BITMAP
0000
FFFE
0300
0300
0300
03F8
0318
0318
0618
0618
0618
0C18
0C18
1818
3030
60E0
ENDCHAR
STARTCHAR 4E08
ENCODING 19976
SWIDTH 960 0
DWIDTH 16 0
BBX 16 16 0 -2
BITMAP
00C0
00C0
00C0
7FFF
00C0
0CC0
0CC0
06C0
0680
0380
0180
0340
0660
0C30
381C
E007
ENDCHAR
STARTCHAR 4E09
ENCODING 19977
SWIDTH 960 0
DWIDTH 16 0
BBX 16 16 0 -2
BITMAP
0000
3FFC
0000
0000
0000
0000
0000
1FF8
0000
0000
0000
0000
0000
FFFF
0000
0000
ENDCHAR
STARTCHAR 4E0A
ENCODING 19978
SWIDTH 960 0
DWIDTH 16 0
BBX 16 16 0 -2
BITMAP
0180
0180
0180
0180
0180
0180
01FC
0180
0180
0180
0180
0180
0180
0180
FFFF
0000
ENDCHAR
STARTCHAR 4E0B
ENCODING 19979
SWIDTH 960 0
DWIDTH 16 0
BBX 16 16 0 -2
BITMAP
0000
FFFF
0180
0180
0180
01C0
01A0
01B0
0198
0198
0180
0180
0180
0180
0180
0180
ENDCHAR
STARTCHAR 4E0D
ENCODING 19981
SWIDTH 960 0
DWIDTH 16 0
BBX 16 16 0 -2
BITMAP
0000
FFFF
00C0
00C0
0180
01C0
03B0
0698
0D8C
3986
E183
0180
0180
0180
0180
0180
ENDCHAR
STARTCHAR 4E0E
ENCODING 19982
SWIDTH 960 0
DWIDTH 16 0
BBX 16 16 0 -2
BITMAP
0600
0600
07FC
0600
0600
07F0
0030
0030
FFFF
0030
0030
0030
0030
0030
00E0
0380
ENDCHAR
STARTCHAR 4E10
ENCODING 19984
SWIDTH 960 0
DWIDTH 16 0
BBX 16 16 0 -2
BITMAP
0000
FFFF
0180
1980
19FE
1980
1980
1FFC
000C
000C
000C
000C
000C
0018
0018
0070
ENDCHAR
STARTCHAR 4E11
ENCODING 19985
SWIDTH 960 0
DWIDTH 16 0
BBX 16 16 0 -2
BITMAP
0000
3FF0
0630
0630
0630
0630
0630
FFFE
0C30
0C30
0C30
0C30
0C30
0C30
FFFF
0000
ENDCHAR
STARTCHAR 4E14
ENCODING 19988
SWIDTH 960 0
DWIDTH 16 0
BBX 16 16 0 -2
BITMAP
0000
1FF0
1830
1830
1830
1FF0
1830
1830
1830
1FF0
1830
1830
1830
1830
FFFE
0000
ENDCHAR
STARTCHAR 4E15
ENCODING 19989
SWIDTH 960 0
DWIDTH 16 0
BBX 16 16 0 -2
BITMAP
0000
7FFE
00C0
00C0
0180
0380
06B0
0D9C
3986
E183
0180
0180
0180
0000
7FFE
0000
ENDCHAR
STARTCHAR 4E16
ENCODING 19990
SWIDTH 960 0
DWIDTH 16 0
BBX 16 16 0 -2
BITMAP
0000
1998
1998
1998
1998
FFFF
1998
1998
1998
1998
19F8
1800
1800
1800
1FFE
0000
ENDCHAR
STARTCHAR 4E17
ENCODING 19991
SWIDTH 960 0
DWIDTH 16 0
BBX 16 16 0 -2
BITMAP
1998
1998
1998
1998
1998
1998
FFFF
1998
1998
1998
1998
1998
1998
1998
1FF8
0000
ENDCHAR
STARTCHAR 4E18
ENCODING 19992
SWIDTH 960 0
DWIDTH 16 0
BBX 16 16 0 -2
BITMAP
0030
01E0
1F00
1800
1800
1800
1FFC
1860
1860
1860
1860
1860
1860
1860
FFFE
0000
ENDCHAR
STARTCHAR 4E19
ENCODING 19993
SWIDTH 960 0
DWIDTH 16 0
BBX 16 16 0 -2
BITMAP
0000
FFFF
0180
0180
3FFC
318C
318C
334C
366C
3C34
300C
300C
300C
300C
300C
301C
ENDCHAR
STARTCHAR 4E1E
ENCODING 19998
SWIDTH 960 0
DWIDTH 16 0
BBX 16 16 0 -2
BITMAP
0000
3FF8
0030
00E0
0186
7EA6
06AC
0DB8
0D98
198C
3186
6183
C380
0000
FFFE
0000
ENDCHAR
STARTCHAR 4E21
ENCODING 20001
SWIDTH 960 0
DWIDTH 16 0
BBX 16 16 0 -2
BITMAP
0000
FFFF
0180
0180
0180
7FFE
6186
6DB6
6DB6
6DB6
6DB6
6FF6
6C36
6006
6006
600E
ENDCHAR
STARTCHAR 4E26
ENCODING 20006
SWIDTH 960 0
DWIDTH 16 0
BBX 16 16 0 -2
BITMAP
1818
0C18
0630
0660
7FFE
0660
0660
6666
3666
366C
1A6C
1A68
0660
0660
FFFF
0000
ENDCHAR
STARTCHAR 4E2A
ENCODING 20010
SWIDTH 960 0
DWIDTH 16 0
BBX 16 16 0 -2
BITMAP
0180
0180
0340
0340
0660
0C30
1998
318C
6186
C183
0180
0180
0180
0180
0180
0180
ENDCHAR
STARTCHAR 4E2D
ENCODING 20013
SWIDTH 960 0
DWIDTH 16 0
BBX 16 16 0 -2
BITMAP
0180
0180
0180
7FFE
6186
6186
6186
6186
6186
7FFE
0180
0180
0180
0180
0180
0180
ENDCHAR
STARTCHAR 4E31
ENCODING 20017
SWIDTH 960 0
DWIDTH 16 0
BBX 16 16 0 -2
BITMAP
0660
0660
6666
6666
6666
6666
6666
6666
6666
6666
7E7E
0660
0C60
0C60
1860
3060
ENDCHAR
STARTCHAR 4E32
ENCODING 20018
SWIDTH 960 0
DWIDTH 16 0
BBX 16 16 0 -2
BITMAP
0180
0180
3FFC
318C
318C
3FFC
0180
0180
7FFE
6186
6186
7FFE
0180
0180
0180
0180
ENDCHAR
STARTCHAR 4E36
ENCODING 20022
SWIDTH 960 0
DWIDTH 16 0
BBX 16 16 0 -2
BITMAP
0000
0000
0000
1C00
0700
0180
00C0
0060
0060
0030
0030
0000
0000
0000
0000
0000
ENDCHAR
STARTCHAR 4E38
ENCODING 20024
SWIDTH 960 0
DWIDTH 16 0
BBX 16 16 0 -2
BITMAP
0600
0600
0600
0600
FFF0
0630
0630
1A30
0E30
0630
0D30
0DB0
19B6
3036
6036
C01E
ENDCHAR
STARTCHAR 4E39
ENCODING 20025
SWIDTH 960 0
DWIDTH 16 0
BBX 16 16 0 -2
BITMAP
0000
1FF8
1818
1A18
1B18
1998
1998
1818
FFFF
1818
1818
1818
3018
3018
6018
C038
ENDCHAR
STARTCHAR 4E3B
ENCODING 20027
SWIDTH 960 0
DWIDTH 16 0
BBX 16 16 0 -2
BITMAP
0300
0180
0180
7FFE
0180
0180
0180
0180
3FFC
0180
0180
0180
0180
0180
FFFF
0000
ENDCHAR
STARTCHAR 4E3C
ENCODING 20028
SWIDTH 960 0
DWIDTH 16 0
BBX 16 16 0 -2
BITMAP
0C60
0C60
0C60
0C60
7FFC
0C60
0D60
0DA0
0DA0
FFFE
0C60
0C60
0C60
1860
1860
3060
ENDCHAR
STARTCHAR 4E3F
ENCODING 20031
SWIDTH 960 0
DWIDTH 16 0
BBX 16 16 0 -2
BITMAP
00C0
00C0
00C0
00C0
00C0
00C0
00C0
00C0
00C0
00C0
0180
0180
0300
0600
1C00
7000
ENDCHAR
STARTCHAR 4E42
ENCODING 20034
SWIDTH 960 0
DWIDTH 16 0
BBX 16 16 0 -2
BITMAP
0000
0C30
0C30
0C30
0C30
0C30
0660
0660
0340
0340
0180
0340
0660
0C30
381C
E007
ENDCHAR
STARTCHAR 4E43
ENCODING 20035
SWIDTH 960 0
DWIDTH 16 0
BBX 16 16 0 -2
BITMAP
0000
7FF0
0330
0330
0330
0330
033C
060C
060C
0C0C
0C0C
180C
300C
6018
C070
0000
ENDCHAR
STARTCHAR 4E45
ENCODING 20037
SWIDTH 960 0
DWIDTH 16 0
BBX 16 16 0 -2
BITMAP
0300
0300
03F0
0630
0630
0C60
1860
30C0
00C0
01C0
01A0
0360
0630
0C18
380C
E007
ENDCHAR
STARTCHAR 4E4B
ENCODING 20043
SWIDTH 960 0
DWIDTH 16 0
BBX 16 16 0 -2
BITMAP
0180
0180
0180
0180
3FFC
0018
0030
0030
0060
00C0
1980
1B00
1E00
3600
6380
C0FF
ENDCHAR
STARTCHAR 4E4D
ENCODING 20045
SWIDTH 960 0
DWIDTH 16 0
BBX 16 16 0 -2
BITMAP
0C00
0C00
0C00
0FFE
1980
1980
3180
61FC
C180
0180
0180
01FC
0180
0180
0180
0180
ENDCHAR
STARTCHAR 4E4E
ENCODING 20046
SWIDTH 960 0
DWIDTH 16 0
BBX 16 16 0 -2
BITMAP
000C
0078
7FC0
018C
198C
0D98
0DB0
0180
FFFF
0180
0180
0180
0180
0180
0180
0380
ENDCHAR
STARTCHAR 4E4F
ENCODING 20047
SWIDTH 960 0
DWIDTH 16 0
BBX 16 16 0 -2
BITMAP
000C
0078
FFC0
0300
0300
0300
7FF8
0018
0030
0060
18C0
1B80
3E00
3600
6380
C0FF
ENDCHAR
STARTCHAR 4E55
ENCODING 20053
SWIDTH 960 0
DWIDTH 16 0
BBX 16 16 0 -2
BITMAP
000C
0078
1FC0
18C0
1FFF
18C0
18C0
1FFF
18C0
18C0
37FE
34C6
6CC6
CCC6
0CDC
00C0
ENDCHAR
STARTCHAR 4E56
ENCODING 20054
SWIDTH 960 0
DWIDTH 16 0
BBX 16 16 0 -2
BITMAP
0018
00F0
3F80
0180
0180
FFFF
0180
0DB0
0DB7
FDBC
0DB0
0DB3
3DB3
ED9F
0D80
0180
ENDCHAR
STARTCHAR 4E57
ENCODING 20055
SWIDTH 960 0
DWIDTH 16 0
BBX 16 16 0 -2
BITMAP
0030
1FE0
0180
7FFE
1998
1998
FFFF
1998
1998
7FFE
03C0
06A0
0DB0
399C
E187
0180
ENDCHAR
STARTCHAR 4E58
ENCODING 20056
SWIDTH 960 0
DWIDTH 16 0
BBX 16 16 0 -2
BITMAP
0018
00F0
3F80
0180
FFFF
0180
0DB6
FDBC
0DB3
3DB3
EDDF
06A0
0DB0
399C
E187
0180
ENDCHAR
STARTCHAR 4E59
ENCODING 20057
SWIDTH 960 0
DWIDTH 16 0
BBX 16 16 0 -2
BITMAP
0000
3FF8
0030
00E0
0180
0300
0600
0C00
1800
3000
3000
600C
600C
600C
3FFC
0000
ENDCHAR
STARTCHAR 4E5D
ENCODING 20061
SWIDTH 960 0
DWIDTH 16 0
BBX 16 16 0 -2
BITMAP
0000
0600
0600
0600
FFE0
0660
0660
0660
0660
0C60
0C60
0C60
1866
3066
603E
C000
ENDCHAR
STARTCHAR 4E5E
ENCODING 20062
SWIDTH 960 0
DWIDTH 16 0
BBX 16 16 0 -2
BITMAP
0C00
0C00
0C00
1FFE
1800
3000
6FF0
C0C0
0380
0600
0C00
1800
3000
300C
300C
1FFC
ENDCHAR
STARTCHAR 4E5F
ENCODING 20063
SWIDTH 960 0
DWIDTH 16 0
BBX 16 16 0 -2
BITMAP
0180
1980
1980
19B8
19E8
1F98
F998
1998
1998
1998
19B0
1986
1806
0C06
07FE
0000
ENDCHAR
STARTCHAR 4E62
ENCODING 20066
SWIDTH 960 0
DWIDTH 16 0
BBX 16 16 0 -2
BITMAP
18C0
18C0
18C0
6B40
6B40
6B40
6B40
6B40
6B40
6B40
6B40
6B43
7F43
00C3
007F
0000
ENDCHAR
STARTCHAR 4E71
ENCODING 20081
SWIDTH 960 0
DWIDTH 16 0
BBX 16 16 0 -2
BITMAP
0360
0E60
7860
1860
1860
1860
FFA0
1860
1860
1860
7F60
6360
6363
6363
7F63
003F
ENDCHAR
STARTCHAR 4E73
ENCODING 20083
SWIDTH 960 0
DWIDTH 16 0
BBX 16 16 0 -2
BITMAP
01A0
0F60
F9A0
6DA0
3560
3660
7FA0
0360
0660
0C60
0FE0
FC60
0C60
0C63
0C33
1C1F
ENDCHAR
STARTCHAR 4E7E
ENCODING 20094
SWIDTH 960 0
DWIDTH 16 0
BBX 16 16 0 -2
BITMAP
18C0
18C0
FF40
18FF
7EC0
6680
66FC
7F0C
6618
6630
7E60
1860
FFC6
18C6
18C6
187E
ENDCHAR
STARTCHAR 4E80
ENCODING 20096
SWIDTH 960 0
DWIDTH 16 0
BBX 16 16 0 -2
BITMAP
0600
0FF0
1860
3FF8
E998
1FF8
1998
1FF8
0180
3FFC
318C
3FFC
318C
3FFD
0183
00FF
ENDCHAR
STARTCHAR 4E82
ENCODING 20098
SWIDTH 960 0
DWIDTH 16 0
BBX 16 16 0 -2
BITMAP
0330
0E30
FDB0
36D0
66D0
FFD0
3330
1A30
7FD0
6D50
7ED0
60D3
6F53
6D53
66DF
6DC0
ENDCHAR
STARTCHAR 4E85
ENCODING 20101
SWIDTH 960 0
DWIDTH 16 0
BBX 16 16 0 -2
BITMAP
0300
0300
0300
0300
0300
0300
0300
0300
0300
0300
0300
0300
0300
0300
0300
0700
ENDCHAR
STARTCHAR 4E86
ENCODING 20102
SWIDTH 960 0
DWIDTH 16 0
BBX 16 16 0 -2
BITMAP
0000
7FFC
0018
0030
0060
01C0
0180
0180
0180
0180
0180
0180
0180
0180
0180
0380
ENDCHAR
STARTCHAR 4E88
ENCODING 20104
SWIDTH 960 0
DWIDTH 16 0
BBX 16 16 0 -2
BITMAP
0000
3FF8
0030
0E60
0340
0180
FFFE
0186
018C
0198
0180
0180
0180
0180
0180
0380
ENDCHAR
STARTCHAR 4E89
ENCODING 20105
SWIDTH 960 0
DWIDTH 16 0
BBX 16 16 0 -2
BITMAP
0300
03E0
0660
0CC0
3980
3FF8
0198
0198
FFFF
0198
0198
3FF8
0180
0180
0180
0380
ENDCHAR
STARTCHAR 4E8A
ENCODING 20106
SWIDTH 960 0
DWIDTH 16 0
BBX 16 16 0 -2
BITMAP
0180
0180
7FFE
1998
0DB0
0D80
3FFC
018C
018C
FFFF
018C
018C
3FFC
0180
0180
0380
ENDCHAR
STARTCHAR 4E8B
ENCODING 20107
SWIDTH 960 0
DWIDTH 16 0
BBX 16 16 0 -2
BITMAP
0180
0180
FFFF
0180
1FF8
1998
1FF8
0180
3FFC
018C
FFFF
018C
3FFC
0180
0180
0380
ENDCHAR
STARTCHAR 4E8C
ENCODING 20108
SWIDTH 960 0
DWIDTH 16 0
BBX 16 16 0 -2
BITMAP
0000
0000
3FFC
0000
0000
0000
0000
0000
0000
0000
0000
0000
0000
FFFF
0000
0000
ENDCHAR
STARTCHAR 4E8E
ENCODING 20110
SWIDTH 960 0
DWIDTH 16 0
BBX 16 16 0 -2
BITMAP
0000
3FFC
0180
0180
0180
0180
0180
FFFF
0180
0180
0180
0180
0180
0180
0180
0380
ENDCHAR
STARTCHAR 4E91
ENCODING 20113
SWIDTH 960 0
DWIDTH 16 0
BBX 16 16 0 -2
BITMAP
0000
0000
3FF8
0000
0000
0000
FFFE
0300
0300
0660
0630
0C18
19F8
FF0C
000C
000C
ENDCHAR
STARTCHAR 4E92
ENCODING 20114
SWIDTH 960 0
DWIDTH 16 0
BBX 16 16 0 -2
BITMAP
0000
7FFE
0600
0600
0600
07F0
0C30
0C30
0C30
1830
1FE0
0060
0060
0060
FFFF
0000
ENDCHAR
STARTCHAR 4E94
ENCODING 20116
SWIDTH 960 0
DWIDTH 16 0
BBX 16 16 0 -2
BITMAP
0000
7FFE
0180
0180
0180
0180
3FF8
0318
0318
0318
0318
0618
0618
0618
FFFF
0000
ENDCHAR
STARTCHAR 4E95
ENCODING 20117
SWIDTH 960 0
DWIDTH 16 0
BBX 16 16 0 -2
BITMAP
0C60
0C60
0C60
0C60
7FFC
0C60
0C60
0C60
0C60
FFFE
0C60
0C60
0C60
1860
1860
3060
ENDCHAR
STARTCHAR 4E98
ENCODING 20120
SWIDTH 960 0
DWIDTH 16 0
BBX 16 16 0 -2
BITMAP
0000
7FFC
0000
0000
1FF0
1830
1830
1FF0
1830
1830
1830
1FF0
0000
0000
FFFE
0000
ENDCHAR
STARTCHAR 4E99
ENCODING 20121
SWIDTH 960 0
DWIDTH 16 0
BBX 16 16 0 -2
BITMAP
0000
7FFE
0600
0600
07F0
0630
0DB0
0CD0
0C30
1B60
19A0
1860
0060
0060
FFFF
0000
ENDCHAR
STARTCHAR 4E9B
ENCODING 20123
SWIDTH 960 0
DWIDTH 16 0
BBX 16 16 0 -2
BITMAP
0CC0
0CC0
34CC
3778
34C0
34C0
34C6
3746
387E
E000
1FF8
0000
0000
0000
FFFF
0000
ENDCHAR
STARTCHAR 4E9C
ENCODING 20124
SWIDTH 960 0
DWIDTH 16 0
BBX 16 16 0 -2
BITMAP
0000
7FFF
0660
0660
0660
3FFC
366C
366C
366C
366C
3FFC
0660
0660
0660
FFFF
0000
ENDCHAR
STARTCHAR 4E9E
ENCODING 20126
SWIDTH 960 0
DWIDTH 16 0
BBX 16 16 0 -2
BITMAP
0000
FFFF
0660
0660
0660
7E7E
6006
6006
6006
6006
7E7E
0660
0660
0660
FFFF
0000
ENDCHAR
STARTCHAR 4E9F
ENCODING 20127
SWIDTH 960 0
DWIDTH 16 0
BBX 16 16 0 -2
BITMAP
0000
7FFE
0300
0300
07C0
00FE
7EC6
66D4
66DC
7EDC
66D6
01A3
0700
0000
FFFF
0000
ENDCHAR
STARTCHAR 4EA0
ENCODING 20128
SWIDTH 960 0
DWIDTH 16 0
BBX 16 16 0 -2
BITMAP
0000
0000
0000
0180
0180
0180
0180
FFFF
0000
0000
0000
0000
0000
0000
0000
0000
ENDCHAR
STARTCHAR 4EA1
ENCODING 20129
SWIDTH 960 0
DWIDTH 16 0
BBX 16 16 0 -2
BITMAP
0180
0180
0180
FFFF
1800
1800
1800
1800
1800
1800
1800
1800
1800
0C00
07FC
0000
ENDCHAR
STARTCHAR 4EA2
ENCODING 20130
SWIDTH 960 0
DWIDTH 16 0
BBX 16 16 0 -2
BITMAP
0180
0180
0180
FFFE
0000
0000
07E0
0660
0660
0660
0660
0660
0C66
0C66
1866
703E
ENDCHAR
STARTCHAR 4EA4
ENCODING 20132
SWIDTH 960 0
DWIDTH 16 0
BBX 16 16 0 -2
BITMAP
0180
0180
0180
FFFF
0C60
0C30
1868
1A68
366C
634C
0340
0180
0340
0660
1C38
F00F
ENDCHAR
STARTCHAR 4EA5
ENCODING 20133
SWIDTH 960 0
DWIDTH 16 0
BBX 16 16 0 -2
BITMAP
0180
0180
0180
FFFF
0300
0330
3A60
0CC0
0698
0330
0E60
38E0
01B0
0718
1C0C
F00C
ENDCHAR
STARTCHAR 4EA6
ENCODING 20134
SWIDTH 960 0
DWIDTH 16 0
BBX 16 16 0 -2
BITMAP
0180
0180
0180
FFFF
0660
0660
1A68
1A6C
1A6C
3666
6666
C666
0C60
0C60
1860
30E0
ENDCHAR
STARTCHAR 4EA8
ENCODING 20136
SWIDTH 960 0
DWIDTH 16 0
BBX 16 16 0 -2
BITMAP
0180
0180
FFFF
0000
1FF8
1818
1FF8
0000
7FFC
0018
0070
01C0
0180
0180
0180
0380
ENDCHAR
STARTCHAR 4EAB
ENCODING 20139
SWIDTH 960 0
DWIDTH 16 0
BBX 16 16 0 -2
BITMAP
0180
0180
FFFF
0000
1FF8
1818
1FF8
0000
3FF8
0060
00C0
FFFE
0180
0180
0180
0380
ENDCHAR
STARTCHAR 4EAC
ENCODING 20140
SWIDTH 960 0
DWIDTH 16 0
BBX 16 16 0 -2
BITMAP
0180
0180
0180
FFFF
0000
1FF8
1818
1818
1818
1FF8
0180
0DB0
1998
318C
E186
0380
ENDCHAR
STARTCHAR 4EAD
ENCODING 20141
SWIDTH 960 0
DWIDTH 16 0
BBX 16 16 0 -2
BITMAP
0180
0180
FFFF
0000
1FF0
1830
1FF0
0000
FFFE
C006
DFF6
0180
0180
0180
0180
0380
ENDCHAR
STARTCHAR 4EAE
ENCODING 20142
SWIDTH 960 0
DWIDTH 16 0
BBX 16 16 0 -2
BITMAP
0180
0180
FFFF
0000
1FF8
1818
1FF8
0000
FFFE
C006
C6C6
06C0
06C0
0CC3
3863
E03F
ENDCHAR
STARTCHAR 4EB0
ENCODING 20144
SWIDTH 960 0
DWIDTH 16 0
BBX 16 16 0 -2
BITMAP
0180
0180
FFFF
0000
1FF0
1830
1830
1FF0
1830
1FF0
0180
0DA0
19B8
318C
E186
0380
ENDCHAR
STARTCHAR 4EB3
ENCODING 20147
SWIDTH 960 0
DWIDTH 16 0
BBX 16 16 0 -2
BITMAP
0300
FFFE
0000
1FF0
1830
1FF0
0000
FFFE
C036
C3E6
3F00
0300
FFFE
0300
0186
00FE
ENDCHAR
STARTCHAR 4EB6
ENCODING 20150
SWIDTH 960 0
DWIDTH 16 0
BBX 16 16 0 -2
BITMAP
0180
FFFF
0000
3FFC
37EC
366C
37EC
300C
3FFC
0C30
0FF0
0C30
0FF0
0000
FFFF
0000
ENDCHAR
STARTCHAR 4EBA
ENCODING 20154
SWIDTH 960 0
DWIDTH 16 0
BBX 16 16 0 -2
BITMAP
0180
0180
0180
0180
0180
0180
0180
0340
0340
0660
0660
0C30
1818
300C
6006
C003
ENDCHAR
STARTCHAR 4EC0
ENCODING 20160
SWIDTH 960 0
DWIDTH 16 0
BBX 16 16 0 -2
BITMAP
0C30
0C30
0C30
1830
1830
3830
3BFF
6830
D830
1830
1830
1830
1830
1830
1830
1830
ENDCHAR
STARTCHAR 4EC1
ENCODING 20161
SWIDTH 960 0
DWIDTH 16 0
BBX 16 16 0 -2
BITMAP
0C00
0C00
0C00
1BFC
1800
3000
7000
D000
3000
3000
3000
3000
3000
37FF
3000
3000
ENDCHAR
STARTCHAR 4EC2
ENCODING 20162
SWIDTH 960 0
DWIDTH 16 0
BBX 16 16 0 -2
BITMAP
0CC0
0CC0
0CC0
18C0
1BFE
30C6
30C6
70C6
D0C6
30C6
30C6
3186
3186
3306
360C
3438
ENDCHAR
STARTCHAR 4EC4
ENCODING 20164
SWIDTH 960 0
DWIDTH 16 0
BBX 16 16 0 -2
BITMAP
0000
3FFF
3000
30C0
30C0
30C0
30C0
30C0
30C0
30C0
31A0
31A0
6330
6618
DC0C
7007
ENDCHAR
STARTCHAR 4EC6
ENCODING 20166
SWIDTH 960 0
DWIDTH 16 0
BBX 16 16 0 -2
BITMAP
0660
0660
0C60
0C60
1860
1860
3870
6868
D86C
1866
1866
1860
1860
1860
1860
1860
ENDCHAR
STARTCHAR 4EC7
ENCODING 20167
SWIDTH 960 0
DWIDTH 16 0
BBX 16 16 0 -2
BITMAP
0D80
0D80
0D80
1980
19F0
1FB0
31B0
71B0
D1B0
31B0
31B0
3336
3336
3636
341E
3800
ENDCHAR
STARTCHAR 4ECA
ENCODING 20170
SWIDTH 960 0
DWIDTH 16 0
BBX 16 16 0 -2
BITMAP
0180
0180
0340
0660
0C30
1818
37EC
E007
0000
1FF0
0030
0060
0060
00C0
0180
0300
ENDCHAR
STARTCHAR 4ECB
ENCODING 20171
SWIDTH 960 0
DWIDTH 16 0
BBX 16 16 0 -2
BITMAP
0180
0180
0340
0660
0C30
381C
EC37
0C30
0C30
0C30
0C30
0C30
1830
1830
3030
6030
ENDCHAR
STARTCHAR 4ECD
ENCODING 20173
SWIDTH 960 0
DWIDTH 16 0
BBX 16 16 0 -2
BITMAP
0C00
0FF8
0D98
1998
1998
3198
319E
7186
D186
3186
3186
3306
3306
3606
340C
3838
ENDCHAR
STARTCHAR 4ECE
ENCODING 20174
SWIDTH 960 0
DWIDTH 16 0
BBX 16 16 0 -2
BITMAP
0C30
0C30
0C30
0C30
0C30
0C30
0C30
0C30
0E30
1A38
1B68
1B68
31CC
30CC
6186
C303
ENDCHAR
STARTCHAR 4ECF
ENCODING 20175
SWIDTH 960 0
DWIDTH 16 0
BBX 16 16 0 -2
BITMAP
0C60
0C60
0C60
1860
1860
3060
30C0
70C0
D0D0
30D8
318C
318C
3186
337E
37C3
3003
ENDCHAR
STARTCHAR 4ED4
ENCODING 20180
SWIDTH 960 0
DWIDTH 16 0
BBX 16 16 0 -2
BITMAP
0C00
0DFC
0C0C
1818
1830
3060
7060
D7FF
3060
3060
3060
3060
3060
3060
3060
30E0
ENDCHAR
STARTCHAR 4ED5
ENCODING 20181
SWIDTH 960 0
DWIDTH 16 0
BBX 16 16 0 -2
BITMAP
0C60
0C60
0C60
1860
1860
3060
37FF
7060
D060
3060
3060
3060
3060
3060
37FE
3000
ENDCHAR
STARTCHAR 4ED6
ENCODING 20182
SWIDTH 960 0
DWIDTH 16 0
BBX 16 16 0 -2
BITMAP
0C30
0C30
0DB0
19B6
19BE
39F6
3BB6
69B6
D9B6
19B6
19BC
19B0
1983
1983
18C3
187F
ENDCHAR
STARTCHAR 4ED7
ENCODING 20183
SWIDTH 960 0
DWIDTH 16 0
BBX 16 16 0 -2
BITMAP
0C60
0C60
0C60
1860
1BFF
3060
3360
7360
D1A0
31A0
30C0
30C0
31A0
3330
361C
3C07
ENDCHAR
STARTCHAR 4ED8
ENCODING 20184
SWIDTH 960 0
DWIDTH 16 0
BBX 16 16 0 -2
BITMAP
0618
0618
0618
0C18
0DFF
1818
1A18
3B18
6998
D998
1998
1818
1818
1818
1818
1838
ENDCHAR
STARTCHAR 4ED9
ENCODING 20185
SWIDTH 960 0
DWIDTH 16 0
BBX 16 16 0 -2
BITMAP
0C60
0C60
0C60
1860
1A66
3666
3666
7666
D666
3666
3666
3666
3666
3666
37FE
3000
ENDCHAR
STARTCHAR 4EDD
ENCODING 20189
SWIDTH 960 0
DWIDTH 16 0
BBX 16 16 0 -2
BITMAP
0180
0180
0340
0660
0C30
381C
E007
0000
1FFC
0180
0180
0180
0180
0180
7FFE
0000
ENDCHAR
STARTCHAR 4EDE
ENCODING 20190
SWIDTH 960 0
DWIDTH 16 0
BBX 16 16 0 -2
BITMAP
0C00
0FFE
0CC6
18C6
18C6
3346
3346
7346
D6C6
34C6
30C6
3186
3186
3306
360C
3438
ENDCHAR
STARTCHAR 4EDF
ENCODING 20191
SWIDTH 960 0
DWIDTH 16 0
BBX 16 16 0 -2
BITMAP
0C0C
0C38
0DE0
1860
1860
3060
3060
77FF
D060
3060
3060
3060
3060
3060
3060
3060
ENDCHAR
STARTCHAR 4EE3
ENCODING 20195
SWIDTH 960 0
DWIDTH 16 0
BBX 16 16 0 -2
BITMAP
0C68
0C6C
0C66
1860
1860
387F
3BE0
6860
D830
1830
1830
1818
181B
180D
1807
1803
ENDCHAR
STARTCHAR 4EE4
ENCODING 20196
SWIDTH 960 0
DWIDTH 16 0
BBX 16 16 0 -2
BITMAP
0180
0180
0340
0660
0C30
381C
EFF7
0000
0000
7FFC
018C
018C
018C
01B8
0180
0180
ENDCHAR
STARTCHAR 4EE5
ENCODING 20197
SWIDTH 960 0
DWIDTH 16 0
BBX 16 16 0 -2
BITMAP
0000
3018
3018
3018
3618
3318
3198
3198
3018
3018
3038
3334
3666
38C6
E183
0703
ENDCHAR
STARTCHAR 4EED
ENCODING 20205
SWIDTH 960 0
DWIDTH 16 0
BBX 16 16 0 -2
BITMAP
0C00
0FFC
0CCC
18CC
18CC
30CC
36CC
734C
D1CC
30F4
30DF
318C
318C
330C
3618
3470
ENDCHAR
STARTCHAR 4EEE
ENCODING 20206
SWIDTH 960 0
DWIDTH 16 0
BBX 16 16 0 -2
BITMAP
0C00
0DFF
0D00
1B00
1B00
33FC
338C
734C
D358
3368
3670
3630
3468
34CC
3B86
3603
ENDCHAR
STARTCHAR 4EF0
ENCODING 20208
SWIDTH 960 0
DWIDTH 16 0
BBX 16 16 0 -2
BITMAP
0CC0
0D80
0F7E
1A66
1A66
3666
3666
7666
D666
3666
36E6
37A6
366C
3060
3060
3060
ENDCHAR
STARTCHAR 4EF2
ENCODING 20210
SWIDTH 960 0
DWIDTH 16 0
BBX 16 16 0 -2
BITMAP
0C60
0C60
0C60
1860
1BFE
3A66
3A66
6A66
DA66
1BFE
1860
1860
1860
1860
1860
1860
ENDCHAR
STARTCHAR 4EF6
ENCODING 20214
SWIDTH 960 0
DWIDTH 16 0
BBX 16 16 0 -2
BITMAP
0C60
0D60
0D60
1B60
1BFE
3660
3660
7460
D060
37FF
3060
3060
3060
3060
3060
3060
ENDCHAR
STARTCHAR 4EF7
ENCODING 20215
SWIDTH 960 0
DWIDTH 16 0
BBX 16 16 0 -2
BITMAP
0C60
0C60
0CD0
18D0
1998
339C
369A
759B
D198
3198
3198
3198
3318
3318
3618
3418
ENDCHAR
STARTCHAR 4EFB
ENCODING 20219
SWIDTH 960 0
DWIDTH 16 0
BBX 16 16 0 -2
BITMAP
0C0C
0C38
0CE0
1BA0
1860
3860
3860
6FFF
D860
1860
1860
1860
1860
1BFE
1800
1800
ENDCHAR
STARTCHAR 4F01
ENCODING 20225
SWIDTH 960 0
DWIDTH 16 0
BBX 16 16 0 -2
BITMAP
0180
0180
0340
0660
0C30
399C
E187
0180
19FC
1980
1980
1980
1980
1980
FFFF
0000
ENDCHAR
STARTCHAR 4F09
ENCODING 20233
SWIDTH 960 0
DWIDTH 16 0
BBX 16 16 0 -2
BITMAP
0C60
0C60
0C60
1BFF
1800
3000
31F0
71B0
D1B0
31B0
31B0
3330
3330
3636
3436
381E
ENDCHAR
STARTCHAR 4F0A
ENCODING 20234
SWIDTH 960 0
DWIDTH 16 0
BBX 16 16 0 -2
BITMAP
0C00
0DFC
0C6C
186C
186C
3FFF
386C
686C
D86C
1BFC
1860
1860
18C0
18C0
1980
1B00
ENDCHAR
STARTCHAR 4F0D
ENCODING 20237
SWIDTH 960 0
DWIDTH 16 0
BBX 16 16 0 -2
BITMAP
0C00
0FFE
0CC0
18C0
18C0
30C0
37F8
70D8
D0D8
30D8
3198
3198
3198
3198
37FF
3000
ENDCHAR
STARTCHAR 4F0E
ENCODING 20238
SWIDTH 960 0
DWIDTH 16 0
BBX 16 16 0 -2
BITMAP
0C60
0C60
0C60
1FFF
1860
3860
3860
6BFC
D98C
18D8
18D8
1870
1870
18D8
198C
1B07
ENDCHAR
STARTCHAR 4F0F
ENCODING 20239
SWIDTH 960 0
DWIDTH 16 0
BBX 16 16 0 -2
BITMAP
0CC0
0CD8
0CCC
18CC
18C0
37FF
30C0
70C0
D0C0
30E0
31A0
31B0
3318
360C
3406
3803
ENDCHAR
STARTCHAR 4F10
ENCODING 20240
SWIDTH 960 0
DWIDTH 16 0
BBX 16 16 0 -2
BITMAP
0D98
0D8C
0D8C
1980
1FFF
318C
318C
70D8
D0D8
30D0
3060
30D0
33B6
361A
300E
3006
ENDCHAR
STARTCHAR 4F11
ENCODING 20241
SWIDTH 960 0
DWIDTH 16 0
BBX 16 16 0 -2
BITMAP
18C0
18C0
18C0
18C0
37FE
31E0
31E0
7350
D350
36D8
36CC
34C6
38C3
30C0
30C0
30C0
ENDCHAR
STARTCHAR 4F1A
ENCODING 20250
SWIDTH 960 0
DWIDTH 16 0
BBX 16 16 0 -2
BITMAP
0180
0180
0340
0660
0C30
381C
EFF7
0000
0000
7FFE
0300
0360
0630
0CE8
7F8C
000C
ENDCHAR
STARTCHAR 4F1C
ENCODING 20252
SWIDTH 960 0
DWIDTH 16 0
BBX 16 16 0 -2
BITMAP
0CC0
0CC0
0FF8
18D8
1998
319B
331B
760F
D460
3060
37FF
3060
3060
3060
3060
3060
ENDCHAR
STARTCHAR 4F1D
ENCODING 20253
SWIDTH 960 0
DWIDTH 16 0
BBX 16 16 0 -2
BITMAP
0C00
0C00
0DFC
1800
1800
3000
37FF
70C0
D0C0
30D0
3198
318C
330C
337E
37C6
3006
ENDCHAR
STARTCHAR 4F2F
ENCODING 20271
SWIDTH 960 0
DWIDTH 16 0
BBX 16 16 0 -2
BITMAP
0C60
0C60
0CC0
1BFC
1B0C
330C
330C
730C
D3FC
330C
330C
330C
330C
330C
33FC
3000
ENDCHAR
STARTCHAR 4F30
ENCODING 20272
SWIDTH 960 0
DWIDTH 16 0
BBX 16 16 0 -2
BITMAP
0C60
0C60
0C60
1860
1FFF
3060
3060
7060
D060
33FC
330C
330C
330C
330C
33FC
3000
ENDCHAR
STARTCHAR 4F34
ENCODING 20276
SWIDTH 960 0
DWIDTH 16 0
BBX 16 16 0 -2
BITMAP
0C60
0C6C
0D6C
19AC
19A8
3860
3BFE
6860
D860
1860
1FFF
1860
1860
1860
1860
1860
ENDCHAR
STARTCHAR 4F36
ENCODING 20278
SWIDTH 960 0
DWIDTH 16 0
BBX 16 16 0 -2
BITMAP
0C60
0C60
0CD0
1998
1B0C
36FA
3403
7000
D7FC
30CC
30CC
30CC
30CC
30D8
30C0
30C0
ENDCHAR
STARTCHAR 4F38
ENCODING 20280
SWIDTH 960 0
DWIDTH 16 0
BBX 16 16 0 -2
BITMAP
0C60
0C60
0C60
1BFE
1A66
3666
3666
77FE
D666
3666
37FE
3060
3060
3060
3060
3060
ENDCHAR
STARTCHAR 4F3A
ENCODING 20282
SWIDTH 960 0
DWIDTH 16 0
BBX 16 16 0 -2
BITMAP
0C00
0FFE
0C06
1806
1BFA
3006
3006
73F6
D336
3336
3336
33F6
3006
3006
3006
300E
ENDCHAR
STARTCHAR 4F3C
ENCODING 20284
SWIDTH 960 0
DWIDTH 16 0
BBX 16 16 0 -2
BITMAP
0C0C
0D0C
0D0C
1B8C
1B4C
336C
336C
730C
D30C
330C
330C
335C
339A
3736
3C63
30C3
ENDCHAR
STARTCHAR 4F3D
ENCODING 20285
SWIDTH 960 0
DWIDTH 16 0
BBX 16 16 0 -2
BITMAP
1A00
1A00
1A3E
3636
3FD6
36D6
76D6
76D6
D6D6
36D6
36D6
36D6
34D6
34DE
3B80
3000
ENDCHAR
STARTCHAR 4F43
ENCODING 20291
SWIDTH 960 0
DWIDTH 16 0
BBX 16 16 0 -2
BITMAP
0C00
0DFE
0D66
1B66
1B66
3366
3366
73FE
D366
3366
3366
3366
3366
3366
33FE
3000
ENDCHAR
STARTCHAR 4F46
ENCODING 20294
SWIDTH 960 0
DWIDTH 16 0
BBX 16 16 0 -2
BITMAP
0C00
0DFC
0D0C
1B0C
1B0C
3B0C
3BFC
6B0C
DB0C
1B0C
1B0C
1BFC
1800
1800
1FFF
1800
ENDCHAR
STARTCHAR 4F47
ENCODING 20295
SWIDTH 960 0
DWIDTH 16 0
BBX 16 16 0 -2
BITMAP
0C60
0C60
0FFE
1A06
1A06
3000
37FF
7060
D060
3060
3060
3060
3060
3060
3060
30E0
ENDCHAR
STARTCHAR 4F4D
ENCODING 20301
SWIDTH 960 0
DWIDTH 16 0
BBX 16 16 0 -2
BITMAP
0C60
0C60
0C60
1860
1BFE
380C
380C
6B0C
D998
1998
1998
19B0
19B0
1860
1FFF
1800
ENDCHAR
STARTCHAR 4F4E
ENCODING 20302
SWIDTH 960 0
DWIDTH 16 0
BBX 16 16 0 -2
BITMAP
0C0C
0C38
0DF0
1B30
1B30
3330
33FF
7330
D330
3318
3318
33D8
360C
300D
37F7
3003
ENDCHAR
STARTCHAR 4F4F
ENCODING 20303
SWIDTH 960 0
DWIDTH 16 0
BBX 16 16 0 -2
BITMAP
0CC0
0C60
0C60
1BFE
1860
3060
3060
7060
D7FE
3060
3060
3060
3060
3060
37FF
3000
ENDCHAR
STARTCHAR 4F50
ENCODING 20304
SWIDTH 960 0
DWIDTH 16 0
BBX 16 16 0 -2
BITMAP
0CC0
0CC0
0CC0
1BFF
18C0
30C0
3180
7180
D3FE
3360
3660
3460
3060
3060
37FF
3000
ENDCHAR
STARTCHAR 4F51
ENCODING 20305
SWIDTH 960 0
DWIDTH 16 0
BBX 16 16 0 -2
BITMAP
0CC0
0CC0
0CC0
1FFF
18C0
30C0
3180
7180
D3FC
338C
368C
358C
318C
318C
31FC
3000
ENDCHAR
STARTCHAR 4F53
ENCODING 20307
SWIDTH 960 0
DWIDTH 16 0
BBX 16 16 0 -2
BITMAP
1860
1860
1860
1860
37FF
30F0
30F0
71A8
D1A8
336C
3666
35FD
3060
3060
3060
3060
ENDCHAR
STARTCHAR 4F55
ENCODING 20309
SWIDTH 960 0
DWIDTH 16 0
BBX 16 16 0 -2
BITMAP
0C00
0C00
0FFF
180C
180C
37EC
366C
766C
D66C
366C
37EC
300C
300C
300C
300C
301C
ENDCHAR
STARTCHAR 4F57
ENCODING 20311
SWIDTH 960 0
DWIDTH 16 0
BBX 16 16 0 -2
BITMAP
0C60
0C60
0C60
1BFE
1A06
3686
3180
718C
D1B8
31E0
3180
3180
3180
3186
30C6
307E
ENDCHAR
STARTCHAR 4F59
ENCODING 20313
SWIDTH 960 0
DWIDTH 16 0
BBX 16 16 0 -2
BITMAP
0180
0180
0340
0660
0C30
381C
EFFB
0180
0180
7FFE
0180
0DB0
0D98
198C
318C
0380
ENDCHAR
STARTCHAR 4F5A
ENCODING 20314
SWIDTH 960 0
DWIDTH 16 0
BBX 16 16 0 -2
BITMAP
0C60
0D60
0D60
1B60
1BFE
3660
3660
7460
D7FF
3070
30D0
30D8
3198
330C
3606
3403
ENDCHAR
STARTCHAR 4F5B
ENCODING 20315
SWIDTH 960 0
DWIDTH 16 0
BBX 16 16 0 -2
BITMAP
0DB0
0DB0
0FFE
19B6
19B6
37FE
36B0
76B0
D7FF
31B3
31B3
31B3
3336
333C
3630
3430
ENDCHAR
STARTCHAR 4F5C
ENCODING 20316
SWIDTH 960 0
DWIDTH 16 0
BBX 16 16 0 -2
BITMAP
0D80
0D80
0D80
19FF
1B60
3B60
3A60
6C7E
D860
1860
1860
187E
1860
1860
1860
1860
ENDCHAR
STARTCHAR 4F5D
ENCODING 20317
SWIDTH 960 0
DWIDTH 16 0
BBX 16 16 0 -2
BITMAP
0D80
0D80
0D80
19FE
1B06
3306
37F6
7536
D336
3336
3336
33F6
3006
3006
300C
3038
ENDCHAR
STARTCHAR 4F5E
ENCODING 20318
SWIDTH 960 0
DWIDTH 16 0
BBX 16 16 0 -2
BITMAP
0C00
0DFC
0C00
1800
1800
37FF
30C0
70C0
D7FF
3198
3198
3330
37F0
3068
31CC
3706
ENDCHAR
STARTCHAR 4F69
ENCODING 20329
SWIDTH 960 0
DWIDTH 16 0
BBX 16 16 0 -2
BITMAP
1800
1BFC
1A0C
1A0C
37FC
36CC
76CC
77F4
D754
3754
3754
3754
3575
354D
38C7
30C3
ENDCHAR
STARTCHAR 4F6F
ENCODING 20335
SWIDTH 960 0
DWIDTH 16 0
BBX 16 16 0 -2
BITMAP
0D8C
0CCC
0CD8
1BFE
1860
3060
3060
73FC
D060
3060
3060
37FF
3060
3060
3060
3060
ENDCHAR
STARTCHAR 4F70
ENCODING 20336
SWIDTH 960 0
DWIDTH 16 0
BBX 16 16 0 -2
BITMAP
0C00
0FFF
0C60
1860
18C0
33FC
330C
730C
D30C
33FC
330C
330C
330C
330C
33FC
3000
ENDCHAR
STARTCHAR 4F73
ENCODING 20339
SWIDTH 960 0
DWIDTH 16 0
BBX 16 16 0 -2
BITMAP
0C60
0C60
0DFC
1860
1860
3860
6BFE
6860
D860
1860
1BFC
1860
1860
1860
1BFE
1800
ENDCHAR
STARTCHAR 4F75
ENCODING 20341
SWIDTH 960 0
DWIDTH 16 0
BBX 16 16 0 -2
BITMAP
0D0C
0D8C
0D98
1BFE
1998
3198
3198
7198
D7FF
3198
3198
3198
3198
3318
3318
3618
ENDCHAR
STARTCHAR 4F76
ENCODING 20342
SWIDTH 960 0
DWIDTH 16 0
BBX 16 16 0 -2
BITMAP
0C60
0C60
0C60
1FFF
1860
3060
3060
77FE
D000
3000
33FC
330C
330C
330C
33FC
3000
ENDCHAR
STARTCHAR 4F7B
ENCODING 20347
SWIDTH 960 0
DWIDTH 16 0
BBX 16 16 0 -2
BITMAP
0DB0
0DB0
0DB6
19B6
1DB4
36B0
36B0
71B8
D1B4
33B6
36B3
3DB0
3330
3333
3633
341F
ENDCHAR
STARTCHAR 4F7C
ENCODING 20348
SWIDTH 960 0
DWIDTH 16 0
BBX 16 16 0 -2
BITMAP
0C60
0C60
0C60
1BFF
1998
318C
331A
769A
D598
30D0
30D0
3060
30D0
3198
330C
3607
ENDCHAR
STARTCHAR 4F7F
ENCODING 20351
SWIDTH 960 0
DWIDTH 16 0
BBX 16 16 0 -2
BITMAP
0C60
0C60
0FFF
1860
1860
37FE
3666
7666
D666
37FE
31A0
30C0
30E0
31B0
371C
3C07
ENDCHAR
STARTCHAR 4F83
ENCODING 20355
SWIDTH 960 0
DWIDTH 16 0
BBX 16 16 0 -2
BITMAP
0C00
0DFC
0D0C
1B0C
1B0C
33FC
3000
736C
D36C
336C
336C
336C
336C
366D
366D
3407
ENDCHAR
STARTCHAR 4F86
ENCODING 20358
SWIDTH 960 0
DWIDTH 16 0
BBX 16 16 0 -2
BITMAP
0180
0180
FFFF
1998
1998
1D9C
35B4
36B6
61A0
03C0
06A0
0DB0
399C
E187
0180
0180
ENDCHAR
STARTCHAR 4F88
ENCODING 20360
SWIDTH 960 0
DWIDTH 16 0
BBX 16 16 0 -2
BITMAP
0CC0
0CC0
0CF8
1998
1BB0
36D0
3060
70D0
D3BE
3666
30EC
33B4
3018
3030
30E0
3780
ENDCHAR
STARTCHAR 4F8B
ENCODING 20363
SWIDTH 960 0
DWIDTH 16 0
BBX 16 16 0 -2
BITMAP
1806
1FF6
1B36
3336
3336
33D6
76D6
76D6
D756
35D6
39B6
3186
3306
3306
3606
340E
ENDCHAR
STARTCHAR 4F8D
ENCODING 20365
SWIDTH 960 0
DWIDTH 16 0
BBX 16 16 0 -2
BITMAP
0C60
0C60
0DFE
1860
1860
3060
37FF
7018
D018
37FE
3318
3198
3198
3198
3018
3038
ENDCHAR
STARTCHAR 4F8F
ENCODING 20367
SWIDTH 960 0
DWIDTH 16 0
BBX 16 16 0 -2
BITMAP
0C60
0DA0
0DA0
19FE
1B60
3660
3060
77FF
D0F0
30F0
31A8
3368
366C
3466
3063
3060
ENDCHAR
STARTCHAR 4F91
ENCODING 20369
SWIDTH 960 0
DWIDTH 16 0
BBX 16 16 0 -2
BITMAP
0CC0
0CC0
0FFF
18C0
1980
31FC
338C
738C
D6FC
358C
318C
31FC
318C
318C
318C
319C
ENDCHAR
STARTCHAR 4F96
ENCODING 20374
SWIDTH 960 0
DWIDTH 16 0
BBX 16 16 0 -2
BITMAP
0180
0180
0340
0670
1C1C
77FB
0000
0000
1FFC
1B6C
1B6C
1FFC
1B6C
1B6C
1B6C
1B6C
ENDCHAR
STARTCHAR 4F98
ENCODING 20376
SWIDTH 960 0
DWIDTH 16 0
BBX 16 16 0 -2
BITMAP
0C60
0C60
0FFE
1A06
1A1A
3070
37C0
70C0
D0C0
30FF
37C0
30C0
30C0
30C6
3066
303E
ENDCHAR
STARTCHAR 4F9B
ENCODING 20379
SWIDTH 960 0
DWIDTH 16 0
BBX 16 16 0 -2
BITMAP
0D98
0D98
0D98
1998
1BFE
3998
3998
6998
D998
1FFF
1800
1998
198C
1B0C
1A06
1C06
ENDCHAR
STARTCHAR 4F9D
ENCODING 20381
SWIDTH 960 0
DWIDTH 16 0
BBX 16 16 0 -2
BITMAP
0C60
0C60
0C60
1FFF
19C0
31A6
31A6
736C
D76C
3538
3B30
3318
3318
336C
3386
3603
ENDCHAR
STARTCHAR 4FA0
ENCODING 20384
SWIDTH 960 0
DWIDTH 16 0
BBX 16 16 0 -2
BITMAP
0CC0
0CC0
0FFE
18C0
1AD8
3358
3358
7350
D0C0
3FFF
30E0
31A0
31B0
3318
360C
3C06
ENDCHAR
STARTCHAR 4FA1
ENCODING 20385
SWIDTH 960 0
DWIDTH 16 0
BBX 16 16 0 -2
BITMAP
0C00
0C00
0FFF
18D0
18D0
30D0
37FE
76D6
D6D6
36D6
36D6
36D6
36D6
36D6
37FE
3000
ENDCHAR
STARTCHAR 4FAB
ENCODING 20395
SWIDTH 960 0
DWIDTH 16 0
BBX 16 16 0 -2
BITMAP
0C60
0C60
0DFF
0D00
1B00
31FE
30C0
70C0
D7FF
3198
3198
3330
37F0
3068
31CC
3706
ENDCHAR
STARTCHAR 4FAD
ENCODING 20397
SWIDTH 960 0
DWIDTH 16 0
BBX 16 16 0 -2
BITMAP
0C00
0DFC
0D0C
1B0C
1B0C
33FC
3330
7330
D618
36CC
3466
3833
3380
30E0
3030
3018
ENDCHAR
STARTCHAR 4FAE
ENCODING 20398
SWIDTH 960 0
DWIDTH 16 0
BBX 16 16 0 -2
BITMAP
0D80
0D80
0DFF
1B00
1B00
36FC
35AC
71AC
D7FF
336C
336C
336C
37FF
360C
3018
3070
ENDCHAR
STARTCHAR 4FAF
ENCODING 20399
SWIDTH 960 0
DWIDTH 16 0
BBX 16 16 0 -2
BITMAP
0C00
0DF8
0C18
1818
1FFF
3180
3180
71FC
D360
3660
37FF
3060
30D0
3198
330C
3607
ENDCHAR
STARTCHAR 4FB5
ENCODING 20405
SWIDTH 960 0
DWIDTH 16 0
BBX 16 16 0 -2
BITMAP
0C00
0DFC
0C0C
19FC
180C
33FC
3000
77FF
D403
37FB
3198
30D0
3060
30D0
339C
3607
ENDCHAR
STARTCHAR 4FB6
ENCODING 20406
SWIDTH 960 0
DWIDTH 16 0
BBX 16 16 0 -2
BITMAP
0C00
0DFC
0D0C
1B0C
1B0C
33FC
3060
7060
D0C0
37FE
3606
3606
3606
3606
37FE
3000
ENDCHAR
STARTCHAR 4FBF
ENCODING 20415
SWIDTH 960 0
DWIDTH 16 0
BBX 16 16 0 -2
BITMAP
0C00
0FFF
0C60
1BFE
1B66
3B66
3BFE
6B66
DB66
1BFE
19A0
18C0
18E0
19B0
1B1C
1C07
ENDCHAR
STARTCHAR 4FC2
ENCODING 20418
SWIDTH 960 0
DWIDTH 16 0
BBX 16 16 0 -2
BITMAP
0C0E
0C78
0FC0
18D8
1998
3730
31A0
70D8
D18C
37FE
3066
3368
336C
3666
3466
3060
ENDCHAR
STARTCHAR 4FC3
ENCODING 20419
SWIDTH 960 0
DWIDTH 16 0
BBX 16 16 0 -2
BITMAP
0C00
0DFE
0D06
1B06
1B06
3306
33FE
7060
D060
3360
337E
3360
36A0
36E0
3470
381F
ENDCHAR
STARTCHAR 4FC4
ENCODING 20420
SWIDTH 960 0
DWIDTH 16 0
BBX 16 16 0 -2
BITMAP
0CD0
0DB4
0F36
1B36
1B30
3FFF
3330
7336
D356
33B4
3718
333A
336A
334E
338E
3706
ENDCHAR
STARTCHAR 4FCA
ENCODING 20426
SWIDTH 960 0
DWIDTH 16 0
BBX 16 16 0 -2
BITMAP
0CC0
0CD0
0D9C
1BFA
19B0
31B3
331F
7680
D5F8
3198
3398
36D0
3460
30D0
339C
3607
ENDCHAR
STARTCHAR 4FCE
ENCODING 20430
SWIDTH 960 0
DWIDTH 16 0
BBX 16 16 0 -2
BITMAP
1800
18FC
18CC
34CC
36CC
637C
C0CC
18CC
18CC
18FC
34CC
36CC
634C
C0CC
07FF
0000
ENDCHAR
STARTCHAR 4FD0
ENCODING 20432
SWIDTH 960 0
DWIDTH 16 0
BBX 16 16 0 -2
BITMAP
18C6
1BB6
1F36
3336
3336
3FD6
7336
7336
D7B6
3756
3556
3536
3B06
3306
3306
330E
ENDCHAR
STARTCHAR 4FD1
ENCODING 20433
SWIDTH 960 0
DWIDTH 16 0
BBX 16 16 0 -2
BITMAP
0C00
0FFC
0C18
19D0
1860
37FE
3666
7666
D7FE
3666
3666
37FE
3666
3666
3666
366E
ENDCHAR
STARTCHAR 4FD4
ENCODING 20436
SWIDTH 960 0
DWIDTH 16 0
BBX 16 16 0 -2
BITMAP
0C00
0DFC
0D0C
1B0C
1BFC
330C
33FC
730C
D30C
33FC
30D0
30D0
31B0
3333
3633
3C1F
ENDCHAR
STARTCHAR 4FD7
ENCODING 20439
SWIDTH 960 0
DWIDTH 16 0
BBX 16 16 0 -2
BITMAP
0D98
0D8C
0D8C
1B66
1A66
30D0
30D0
7198
D30C
37FE
350D
330C
330C
330C
33FC
3000
ENDCHAR
STARTCHAR 4FD8
ENCODING 20440
SWIDTH 960 0
DWIDTH 16 0
BBX 16 16 0 -2
BITMAP
0C0C
0C78
0FCC
1B66
1B66
3603
35FD
7018
D030
3060
37FF
3060
3060
3060
3060
30E0
ENDCHAR
STARTCHAR 4FDA
ENCODING 20442
SWIDTH 960 0
DWIDTH 16 0
BBX 16 16 0 -2
BITMAP
0C00
0DFC
0D6C
1B6C
1BFC
336C
336C
73FC
D060
3060
37FE
3060
3060
3060
37FF
3000
ENDCHAR
STARTCHAR 4FDB
ENCODING 20443
SWIDTH 960 0
DWIDTH 16 0
BBX 16 16 0 -2
BITMAP
0CC0
0CF8
0D98
1B30
1B60
37FE
3566
7366
D346
33FE
30D0
30D0
31B0
3333
3633
3C1F
ENDCHAR
STARTCHAR 4FDD
ENCODING 20445
SWIDTH 960 0
DWIDTH 16 0
BBX 16 16 0 -2
BITMAP
0C00
0DFC
0D0C
1B0C
1B0C
33FC
3060
7060
D7FF
30F0
31A8
336C
3666
3463
3060
3060
ENDCHAR
STARTCHAR 4FDF
ENCODING 20447
SWIDTH 960 0
DWIDTH 16 0
BBX 16 16 0 -2
BITMAP
0CC0
0CD0
0CDC
19BA
1BE3
3180
3180
73FE
D360
3660
37FF
30D0
30D8
318C
3706
3C03
ENDCHAR
STARTCHAR 4FE1
ENCODING 20449
SWIDTH 960 0
DWIDTH 16 0
BBX 16 16 0 -2
BITMAP
1800
1BF8
1800
1FFF
3000
37FC
7000
7000
D7FC
3000
37FC
360C
360C
360C
37FC
3000
ENDCHAR
STARTCHAR 4FE3
ENCODING 20451
SWIDTH 960 0
DWIDTH 16 0
BBX 16 16 0 -2
BITMAP
0C00
0DFC
0D0C
1B0C
1B0C
33FC
3000
77FE
D060
3060
37FF
30D0
30D8
318C
3306
3603
ENDCHAR
STARTCHAR 4FE4
ENCODING 20452
SWIDTH 960 0
DWIDTH 16 0
BBX 16 16 0 -2
BITMAP
0D18
0D98
0DB0
1FFE
1866
3066
37FE
7660
D660
37FE
30E6
31A6
3366
3666
346C
3060
ENDCHAR
STARTCHAR 4FE5
ENCODING 20453
SWIDTH 960 0
DWIDTH 16 0
BBX 16 16 0 -2
BITMAP
0C60
0C60
0FFF
1860
1BFC
336C
336C
73FC
D36C
336C
33FC
3060
37FF
3060
3060
3060
ENDCHAR
STARTCHAR 4FEE
ENCODING 20462
SWIDTH 960 0
DWIDTH 16 0
BBX 16 16 0 -2
BITMAP
0CC0
0CC0
0CFF
1998
1B98
36D0
3470
75DC
D737
34EC
35B8
34E6
358C
3438
30E0
3780
ENDCHAR
STARTCHAR 4FEF
ENCODING 20463
SWIDTH 960 0
DWIDTH 16 0
BBX 16 16 0 -2
BITMAP
0C60
0C60
0FFF
1A00
1ACC
36CC
36FF
768C
D6AC
37B4
36B4
368C
358C
358C
398C
319C
ENDCHAR
STARTCHAR 4FF3
ENCODING 20467
SWIDTH 960 0
DWIDTH 16 0
BBX 16 16 0 -2
BITMAP
0DB0
0DB0
0DB0
1FBE
19B0
31B0
31B0
77BE
D1B0
31B0
37B0
3DBF
3330
3330
3630
3430
ENDCHAR
STARTCHAR 4FF5
ENCODING 20469
SWIDTH 960 0
DWIDTH 16 0
BBX 16 16 0 -2
BITMAP
0C60
0C60
0FFE
1860
1BFE
3060
3060
77FF
D1A0
336C
3734
3538
3318
330C
33C6
3603
ENDCHAR
STARTCHAR 4FF6
ENCODING 20470
SWIDTH 960 0
DWIDTH 16 0
BBX 16 16 0 -2
BITMAP
1B00
1B7E
1B06
3BE6
3336
7336
7FF4
D334
3334
3598
3558
355C
3B34
3366
3746
3183
ENDCHAR
STARTCHAR 4FF8
ENCODING 20472
SWIDTH 960 0
DWIDTH 16 0
BBX 16 16 0 -2
BITMAP
0C60
0C60
0FFE
1860
1BFE
30D0
37FF
7198
D36C
3667
33FC
3060
37FF
3060
3060
3060
ENDCHAR
STARTCHAR 4FFA
ENCODING 20474
SWIDTH 960 0
DWIDTH 16 0
BBX 16 16 0 -2
BITMAP
0CC0
0CC0
0FFF
19A0
19D0
3358
37FC
76DA
DADB
37F8
36D8
36D8
37F8
30C6
30C6
307E
ENDCHAR
STARTCHAR 4FFE
ENCODING 20478
SWIDTH 960 0
DWIDTH 16 0
BBX 16 16 0 -2
BITMAP
0C60
0CC0
0FFC
1A6C
1A6C
37FC
366C
766C
D7FC
31B0
3330
37FF
3030
3030
3030
3030
ENDCHAR
STARTCHAR 5005
ENCODING 20485
SWIDTH 960 0
DWIDTH 16 0
BBX 16 16 0 -2
BITMAP
0C60
0C60
0FFF
1B18
1B18
339C
36D6
7460
D060
37FF
3060
3060
3060
3060
3060
3060
ENDCHAR
STARTCHAR 5006
ENCODING 20486
SWIDTH 960 0
DWIDTH 16 0
BBX 16 16 0 -2
BITMAP
1800
1FFF
1860
1860
37FE
3666
7666
77FE
D6EE
36AA
36AA
3776
3666
3666
3666
366E
ENDCHAR
STARTCHAR 5009
ENCODING 20489
SWIDTH 960 0
DWIDTH 16 0
BBX 16 16 0 -2
BITMAP
0180
0180
0340
0660
0FF0
381C
EFF7
0C30
0FF0
0C30
0FF0
1800
1FF8
3418
6FF8
0000
ENDCHAR
STARTCHAR 500B
ENCODING 20491
SWIDTH 960 0
DWIDTH 16 0
BBX 16 16 0 -2
BITMAP
0C00
0FFE
0E66
1A66
1A66
37FE
3666
7666
D6FA
369A
369A
36FA
3606
3606
37FE
3000
ENDCHAR
STARTCHAR 500D
ENCODING 20493
SWIDTH 960 0
DWIDTH 16 0
BBX 16 16 0 -2
BITMAP
0C60
0C60
0FFE
1B0C
198C
3198
3198
77FF
D000
3000
33FC
330C
330C
330C
33FC
3000
ENDCHAR
STARTCHAR 500F
ENCODING 20495
SWIDTH 960 0
DWIDTH 16 0
BBX 16 16 0 -2
BITMAP
0C60
0C7C
0CCC
1998
1B50
3470
35DC
7707
D468
346C
346C
37FF
3470
30D8
338C
3607
ENDCHAR
STARTCHAR 5011
ENCODING 20497
SWIDTH 960 0
DWIDTH 16 0
BBX 16 16 0 -2
BITMAP
1800
1BDE
1AD6
1BDE
36D6
36D6
77DE
7606
D606
3606
3606
3606
3606
3606
3606
360E
ENDCHAR
STARTCHAR 5012
ENCODING 20498
SWIDTH 960 0
DWIDTH 16 0
BBX 16 16 0 -2
BITMAP
1806
1FFA
1B1A
335A
336A
36EA
77BA
7DBA
D19A
37EA
319A
319A
31B6
33C6
3606
300E
ENDCHAR
STARTCHAR 5014
ENCODING 20500
SWIDTH 960 0
DWIDTH 16 0
BBX 16 16 0 -2
BITMAP
0C00
0FFE
0E06
1A06
1BFE
3630
36B6
76B6
D6B6
36FE
3630
36B6
35B6
35B6
39FE
3000
ENDCHAR
STARTCHAR 5016
ENCODING 20502
SWIDTH 960 0
DWIDTH 16 0
BBX 16 16 0 -2
BITMAP
0C60
0C60
0DFE
1860
1860
37FF
3318
7198
D1B0
37FE
3060
3060
37FE
3060
3060
3060
ENDCHAR
STARTCHAR 5019
ENCODING 20505
SWIDTH 960 0
DWIDTH 16 0
BBX 16 16 0 -2
BITMAP
1800
1BF8
1818
3418
37FF
3580
7580
75FE
D560
3660
37FF
3470
34D0
3598
330C
3607
ENDCHAR
STARTCHAR 501A
ENCODING 20506
SWIDTH 960 0
DWIDTH 16 0
BBX 16 16 0 -2
BITMAP
0C60
0C60
0FFE
18D0
1998
370C
3000
77FF
D00C
37EC
366C
366C
37EC
300C
300C
301C
ENDCHAR
STARTCHAR 501F
ENCODING 20511
SWIDTH 960 0
DWIDTH 16 0
BBX 16 16 0 -2
BITMAP
0D98
0D98
0D98
1BFE
1998
3198
37FF
7000
D3FC
330C
330C
33FC
330C
330C
33FC
3000
ENDCHAR
STARTCHAR 5021
ENCODING 20513
SWIDTH 960 0
DWIDTH 16 0
BBX 16 16 0 -2
BITMAP
0C00
0DFC
0D0C
1B0C
1BFC
330C
330C
73FC
D000
37FE
3606
37FE
3606
3606
37FE
3000
ENDCHAR
STARTCHAR 5023
ENCODING 20515
SWIDTH 960 0
DWIDTH 16 0
BBX 16 16 0 -2
BITMAP
0D30
0D30
0D30
1FFF
1A36
3636
37E6
76F4
D6D4
36D4
36D8
34D8
34D4
38EC
30C6
3383
ENDCHAR
STARTCHAR 5024
ENCODING 20516
SWIDTH 960 0
DWIDTH 16 0
BBX 16 16 0 -2
BITMAP
0C30
0C30
0FFF
1830
1AFC
368C
368C
76FC
D68C
36FC
368C
368C
36FC
3600
37FF
3000
ENDCHAR
STARTCHAR 5025
ENCODING 20517
SWIDTH 960 0
DWIDTH 16 0
BBX 16 16 0 -2
BITMAP
0C60
0C60
0FFF
1AD3
1AD3
36D0
31B6
731E
D600
33FC
3060
3060
3060
3060
37FF
3000
ENDCHAR
STARTCHAR 5026
ENCODING 20518
SWIDTH 960 0
DWIDTH 16 0
BBX 16 16 0 -2
BITMAP
0D6C
0DAC
0DA8
1FFE
18D0
30D0
37FF
7198
D30C
36F6
3433
3030
33F0
330C
330C
31FC
ENDCHAR
STARTCHAR 5028
ENCODING 20520
SWIDTH 960 0
DWIDTH 16 0
BBX 16 16 0 -2
BITMAP
0C00
0DFE
0D06
1B06
1BFE
3330
3330
73FF
D330
3330
36FE
3686
3586
3986
31FE
3000
ENDCHAR
STARTCHAR 5029
ENCODING 20521
SWIDTH 960 0
DWIDTH 16 0
BBX 16 16 0 -2
BITMAP
0C60
0C60
0FFE
1860
1BFC
3060
37FF
7000
D3FC
336C
336C
33FC
330C
330C
330C
331C
ENDCHAR
STARTCHAR 502A
ENCODING 20522
SWIDTH 960 0
DWIDTH 16 0
BBX 16 16 0 -2
BITMAP
0C60
0CC0
0FBC
1A0C
1A0C
37BC
360C
760C
D7FC
30D0
30D0
31B0
31B3
3333
3633
341F
ENDCHAR
STARTCHAR 502B
ENCODING 20523
SWIDTH 960 0
DWIDTH 16 0
BBX 16 16 0 -2
BITMAP
0C60
0CE0
0CD0
1998
1B0C
36FB
3000
7000
D7FE
36D6
36D6
37FE
36D6
36D6
36D6
36D6
ENDCHAR
STARTCHAR 502C
ENCODING 20524
SWIDTH 960 0
DWIDTH 16 0
BBX 16 16 0 -2
BITMAP
0C60
0C60
0C7F
1860
1BFC
330C
330C
73FC
D30C
330C
33FC
3060
37FF
3060
3060
3060
ENDCHAR
STARTCHAR 502D
ENCODING 20525
SWIDTH 960 0
DWIDTH 16 0
BBX 16 16 0 -2
BITMAP
0C18
0C70
0DE0
1860
1FFF
30F0
33AC
7667
D0E0
37FF
30D8
3198
33D0
30F0
3398
360C
ENDCHAR
STARTCHAR 5036
ENCODING 20534
SWIDTH 960 0
DWIDTH 16 0
BBX 16 16 0 -2
BITMAP
0C00
0DFC
0D0C
1B0C
1BFC
330C
330C
73FC
D30C
330C
33FC
3000
37FF
31B8
330C
3606
ENDCHAR
STARTCHAR 5039
ENCODING 20537
SWIDTH 960 0
DWIDTH 16 0
BBX 16 16 0 -2
BITMAP
0C60
0C60
0CD0
1998
1B0C
3BFE
3C63
6BFC
DB6C
1B6C
1BFC
1870
18D0
1998
1B0C
1E07
ENDCHAR
STARTCHAR 5043
ENCODING 20547
SWIDTH 960 0
DWIDTH 16 0
BBX 16 16 0 -2
BITMAP
1800
1BFF
1A00
36FE
36C6
76FE
76C6
D6FE
3630
37FF
366C
36F8
3634
36E6
37FF
3600
ENDCHAR
STARTCHAR 5047
ENCODING 20551
SWIDTH 960 0
DWIDTH 16 0
BBX 16 16 0 -2
BITMAP
0C00
0FDE
0EC6
1AC6
1AC6
37DE
3600
76FE
D7AC
366C
3634
37B8
3618
3634
3666
36C3
ENDCHAR
STARTCHAR 5048
ENCODING 20552
SWIDTH 960 0
DWIDTH 16 0
BBX 16 16 0 -2
BITMAP
0C00
0DFC
0D0C
1BFC
1B0C
330C
33FC
7180
D3FE
3666
3D76
3356
3386
33FA
3006
303C
ENDCHAR
STARTCHAR 5049
ENCODING 20553
SWIDTH 960 0
DWIDTH 16 0
BBX 16 16 0 -2
BITMAP
0C60
0DFC
0CCC
18CC
1FFF
3000
33FC
730C
D3FC
3030
33FE
3330
3330
37FF
3030
3030
ENDCHAR
STARTCHAR 504F
ENCODING 20559
SWIDTH 960 0
DWIDTH 16 0
BBX 16 16 0 -2
BITMAP
0C00
0FFE
0C00
1BFC
1A0C
360C
37FC
7600
D7FE
36D6
36D6
37FE
3AD6
36D6
36D6
360E
ENDCHAR
STARTCHAR 5050
ENCODING 20560
SWIDTH 960 0
DWIDTH 16 0
BBX 16 16 0 -2
BITMAP
0C60
0FFF
0CD8
1870
19DC
37FF
3618
7630
D6E6
378C
3618
3673
35C6
341C
3870
33C0
ENDCHAR
STARTCHAR 5055
ENCODING 20565
SWIDTH 960 0
DWIDTH 16 0
BBX 16 16 0 -2
BITMAP
0D30
0D76
0DDC
1B30
1B30
3373
33DF
7660
D0C0
33FC
330C
33FC
330C
330C
33FC
3000
ENDCHAR
STARTCHAR 5056
ENCODING 20566
SWIDTH 960 0
DWIDTH 16 0
BBX 16 16 0 -2
BITMAP
0CC0
0CCC
0FFC
18D8
18D8
30D0
37FF
70D8
D18C
31FC
338C
36FC
358C
318C
31FC
3000
ENDCHAR
STARTCHAR 505A
ENCODING 20570
SWIDTH 960 0
DWIDTH 16 0
BBX 16 16 0 -2
BITMAP
1B30
1B30
1B30
1FDF
336C
336C
734C
7334
D7D4
34D4
34D8
34D8
37D4
306C
30C6
3383
ENDCHAR
STARTCHAR 505C
ENCODING 20572
SWIDTH 960 0
DWIDTH 16 0
BBX 16 16 0 -2
BITMAP
0C60
0C60
0FFF
1800
1BFC
330C
33FC
7000
37FF
3403
35FD
3060
3060
3060
3060
30E0
ENDCHAR
STARTCHAR 5065
ENCODING 20581
SWIDTH 960 0
DWIDTH 16 0
BBX 16 16 0 -2
BITMAP
1818
1FBE
199A
1B1A
337F
361A
779A
71BE
D698
36BE
3698
337F
3318
3698
34E0
383F
ENDCHAR
STARTCHAR 506C
ENCODING 20588
SWIDTH 960 0
DWIDTH 16 0
BBX 16 16 0 -2
BITMAP
0D80
0D80
0DFE
1B6A
1B6A
36EA
34DA
71B6
D366
301C
36A0
36B6
36B3
358D
38CD
307C
ENDCHAR
STARTCHAR 5072
ENCODING 20594
SWIDTH 960 0
DWIDTH 16 0
BBX 16 16 0 -2
BITMAP
0C00
0DFE
0D66
1B66
1BFE
3366
3366
7366
D3FE
3060
31B0
36B6
3683
368D
358C
30FC
ENDCHAR
STARTCHAR 5074
ENCODING 20596
SWIDTH 960 0
DWIDTH 16 0
BBX 16 16 0 -2
BITMAP
1806
1FD6
1CD6
34D6
37D6
74D6
74D6
D4D6
37D6
34D6
34D6
37D6
3686
36C6
34C6
380E
ENDCHAR
STARTCHAR 5075
ENCODING 20597
SWIDTH 960 0
DWIDTH 16 0
BBX 16 16 0 -2
BITMAP
0C60
0C60
0C7F
1860
1BFC
3B0C
3B0C
6BFC
DB0C
1BFC
1B0C
1B0C
1BFC
19B8
1B0C
1E06
ENDCHAR
STARTCHAR 5076
ENCODING 20598
SWIDTH 960 0
DWIDTH 16 0
BBX 16 16 0 -2
BITMAP
0C00
0FFC
0E6C
1A6C
1BFC
366C
366C
77FC
D060
37FE
3476
346A
3476
35CE
3406
340E
ENDCHAR
STARTCHAR 5078
ENCODING 20600
SWIDTH 960 0
DWIDTH 16 0
BBX 16 16 0 -2
BITMAP
0DE0
0C60
0CD0
1998
1B0C
3DFB
3000
77D6
D6D6
3756
36EC
376C
36EC
36D6
36D6
36D6
ENDCHAR
STARTCHAR 507D
ENCODING 20605
SWIDTH 960 0
DWIDTH 16 0
BBX 16 16 0 -2
BITMAP
1A60
1B60
1B60
1BF8
30D8
30D8
31FC
718C
D30C
33FE
3636
355A
3AAA
36A6
3406
301C
ENDCHAR
STARTCHAR 5080
ENCODING 20608
SWIDTH 960 0
DWIDTH 16 0
BBX 16 16 0 -2
BITMAP
0C60
0CC0
0FFC
1ACC
1ACC
37FC
36CC
76CC
D7FC
31AC
31AC
336A
337E
3663
3433
381F
ENDCHAR
STARTCHAR 5085
ENCODING 20613
SWIDTH 960 0
DWIDTH 16 0
BBX 16 16 0 -2
BITMAP
0C6C
0C66
0FFF
1860
1BFC
366C
37FC
766C
D7FC
366C
3018
37FF
3318
3198
3198
3038
ENDCHAR
STARTCHAR 508D
ENCODING 20621
SWIDTH 960 0
DWIDTH 16 0
BBX 16 16 0 -2
BITMAP
0C60
0C60
0FFE
1998
18D0
37FE
3606
7666
D060
37FE
30C0
30FC
30CC
318C
330C
3638
ENDCHAR
STARTCHAR 5091
ENCODING 20625
SWIDTH 960 0
DWIDTH 16 0
BBX 16 16 0 -2
BITMAP
0D0C
0DCC
0D7F
1B54
1AD4
35B4
31BF
730C
D66C
3060
37FF
30E8
31AC
3366
3663
3060
ENDCHAR
STARTCHAR 5098
ENCODING 20632
SWIDTH 960 0
DWIDTH 16 0
BBX 16 16 0 -2
BITMAP
0180
0180
0340
0E70
399C
E99B
1998
35B4
6AAA
1998
35B4
66A6
FFFF
0180
0180
0180
ENDCHAR
STARTCHAR 5099
ENCODING 20633
SWIDTH 960 0
DWIDTH 16 0
BBX 16 16 0 -2
BITMAP
0D98
0D98
0FFE
1998
1998
37FF
3600
76FE
D6B6
36FE
36B6
36B6
35FE
35B6
39B6
318E
ENDCHAR
STARTCHAR 509A
ENCODING 20634
SWIDTH 960 0
DWIDTH 16 0
BBX 16 16 0 -2
BITMAP
1B30
1B30
1B30
3FDF
3034
36AC
76AC
74D4
DAB4
36B4
3318
3398
36DC
3634
3466
39C3
ENDCHAR
STARTCHAR 50AC
ENCODING 20652
SWIDTH 960 0
DWIDTH 16 0
BBX 16 16 0 -2
BITMAP
0C60
0D66
0D66
1BFE
1998
31B0
33FE
7330
D730
35FE
3330
33FE
3330
3330
33FF
3000
ENDCHAR
STARTCHAR 50AD
ENCODING 20653
SWIDTH 960 0
DWIDTH 16 0
BBX 16 16 0 -2
BITMAP
0C60
0FFF
0E30
1AFE
1A36
37FF
3636
76FE
D630
36FE
36B6
35FE
35B6
39FE
31B6
31B6
ENDCHAR
STARTCHAR 50B2
ENCODING 20658
SWIDTH 960 0
DWIDTH 16 0
BBX 16 16 0 -2
BITMAP
1B30
1B30
1FD0
1B3F
3334
37EC
734C
7334
DFF4
3334
33D8
3358
36D4
36D4
34E6
3383
ENDCHAR
STARTCHAR 50B3
ENCODING 20659
SWIDTH 960 0
DWIDTH 16 0
BBX 16 16 0 -2
BITMAP
0C60
0C60
0FFF
1860
1BFC
366C
37FC
766C
D7FC
306E
37FB
3018
37FE
3318
3198
3038
ENDCHAR
STARTCHAR 50B4
ENCODING 20660
SWIDTH 960 0
DWIDTH 16 0
BBX 16 16 0 -2
BITMAP
0C00
0FFE
0E00
1AF8
1AD8
36D8
36F8
7600
D6EE
36AA
36AA
36AA
36EE
3600
37FF
3000
ENDCHAR
STARTCHAR 50B5
ENCODING 20661
SWIDTH 960 0
DWIDTH 16 0
BBX 16 16 0 -2
BITMAP
0C60
0FFE
0C60
1BFC
1860
3FFF
3000
73FC
D30C
33FC
330C
33FC
330C
33FC
319C
3707
ENDCHAR
STARTCHAR 50B7
ENCODING 20663
SWIDTH 960 0
DWIDTH 16 0
BBX 16 16 0 -2
BITMAP
0D80
0DFE
0D00
1BF8
1A98
35F8
3198
71F8
D000
37FF
3180
33FE
36DA
33B6
3666
31DC
ENDCHAR
STARTCHAR 50BE
ENCODING 20670
SWIDTH 960 0
DWIDTH 16 0
BBX 16 16 0 -2
BITMAP
1800
1BFF
1830
3460
34FE
3546
76C6
D4FE
34C6
34FE
3546
3546
377E
3034
3066
31C3
ENDCHAR
STARTCHAR 50C2
ENCODING 20674
SWIDTH 960 0
DWIDTH 16 0
BBX 16 16 0 -2
BITMAP
0C60
0DFE
0D66
1FFF
1B66
33FE
3060
73FE
D366
33FE
3060
37FF
30CC
31F8
3074
33C6
ENDCHAR
STARTCHAR 50C5
ENCODING 20677
SWIDTH 960 0
DWIDTH 16 0
BBX 16 16 0 -2
BITMAP
0D98
0D98
0FFF
1998
1BFE
3666
3666
77FE
D060
33FC
3060
33FC
3060
3060
37FF
3000
ENDCHAR
STARTCHAR 50C9
ENCODING 20681
SWIDTH 960 0
DWIDTH 16 0
BBX 16 16 0 -2
BITMAP
0180
0180
0340
0660
0C30
3BEC
E007
3F7C
334C
334C
3F7C
0C30
0E38
1B6C
3346
E180
ENDCHAR
STARTCHAR 50CA
ENCODING 20682
SWIDTH 960 0
DWIDTH 16 0
BBX 16 16 0 -2
BITMAP
1800
1FFF
19B0
1BFC
36B4
36B4
77FC
7180
D7FF
3318
37F4
3537
3BF0
330C
330C
31FC
ENDCHAR
STARTCHAR 50CD
ENCODING 20685
SWIDTH 960 0
DWIDTH 16 0
BBX 16 16 0 -2
BITMAP
19D8
1F18
1B18
1FE8
333E
37EA
756A
77EA
D56A
37EA
331A
37DA
3376
33D6
3E66
30DC
ENDCHAR
STARTCHAR 50CF
ENCODING 20687
SWIDTH 960 0
DWIDTH 16 0
BBX 16 16 0 -2
BITMAP
0CC0
0CF8
0D98
1B30
1DFE
3366
3366
73FE
D1CC
376C
31D8
3778
30D4
33B6
3633
30E0
ENDCHAR
STARTCHAR 50D1
ENCODING 20689
SWIDTH 960 0
DWIDTH 16 0
BBX 16 16 0 -2
BITMAP
0C1C
0DF0
0CC0
1FFF
1998
33FC
369B
71F8
D000
37FE
3606
36FA
369A
36FA
3606
360E
ENDCHAR
STARTCHAR 50D5
ENCODING 20693
SWIDTH 960 0
DWIDTH 16 0
BBX 16 16 0 -2
BITMAP
0CD0
0ED6
0D54
18D0
1FFF
3318
31B0
77FE
D060
37FC
3060
37FF
30D0
3198
370C
3C07
ENDCHAR
STARTCHAR 50D6
ENCODING 20694
SWIDTH 960 0
DWIDTH 16 0
BBX 16 16 0 -2
BITMAP
0C60
0FFF
0C60
1BFC
1800
37FC
360C
77FC
D318
31B0
3FFF
3000
37FC
360C
37FC
3000
ENDCHAR
STARTCHAR 50DA
ENCODING 20698
SWIDTH 960 0
DWIDTH 16 0
BBX 16 16 0 -2
BITMAP
0C60
0C60
0FFF
18D0
1A9A
330C
37FE
750D
D3FC
330C
33FC
3068
336C
3666
3466
30E0
ENDCHAR
STARTCHAR 50DE
ENCODING 20702
SWIDTH 960 0
DWIDTH 16 0
BBX 16 16 0 -2
BITMAP
1838
1BE0
1B58
1ACC
37F4
3630
7630
77FC
D60C
360C
37FF
346D
35B5
3AD3
3346
331C
ENDCHAR
STARTCHAR 50E3
ENCODING 20707
SWIDTH 960 0
DWIDTH 16 0
BBX 16 16 0 -2
BITMAP
1B18
1B18
1FDE
1B18
37FF
3318
769C
76D6
D463
3BFC
330C
33FC
330C
330C
33FC
3000
ENDCHAR
STARTCHAR 50E5
ENCODING 20709
SWIDTH 960 0
DWIDTH 16 0
BBX 16 16 0 -2
BITMAP
0C60
0DFC
0C60
1BFE
1800
330C
37DF
730C
D3CC
363F
3000
37FF
30D0
31B3
3733
3C1F
ENDCHAR
STARTCHAR 50E7
ENCODING 20711
SWIDTH 960 0
DWIDTH 16 0
BBX 16 16 0 -2
BITMAP
0D0C
0D98
0FFE
1A66
1BFE
3666
3666
77FE
D000
33FC
330C
33FC
330C
330C
33FC
3000
ENDCHAR
STARTCHAR 50ED
ENCODING 20717
SWIDTH 960 0
DWIDTH 16 0
BBX 16 16 0 -2
BITMAP
198C
1FDE
1AB4
1AB4
37FF
33AC
76DD
76B7
D460
33FC
330C
33FC
330C
330C
33FC
3000
ENDCHAR
STARTCHAR 50EE
ENCODING 20718
SWIDTH 960 0
DWIDTH 16 0
BBX 16 16 0 -2
BITMAP
0C60
0C60
0FFE
1998
1FFF
3000
33FC
736C
D3FC
336C
33FC
3060
37FE
3060
37FF
3000
ENDCHAR
STARTCHAR 50F5
ENCODING 20725
SWIDTH 960 0
DWIDTH 16 0
BBX 16 16 0 -2
BITMAP
0C00
0FFF
0C00
1BFC
1B6C
33FC
336C
77FF
D000
33FC
336C
33FC
336C
33FC
37FF
3000
ENDCHAR
STARTCHAR 50F9
ENCODING 20729
SWIDTH 960 0
DWIDTH 16 0
BBX 16 16 0 -2
BITMAP
0C00
0FFF
0DB0
1BFE
1AB6
37FE
3000
73FC
D30C
33FC
330C
33FC
330C
33FC
319C
3706
ENDCHAR
STARTCHAR 50FB
ENCODING 20731
SWIDTH 960 0
DWIDTH 16 0
BBX 16 16 0 -2
BITMAP
1818
1BD8
1AFF
36C6
36E6
37D4
7634
76FF
D618
37D8
36FF
3AD8
36D8
37D8
36D8
3618
ENDCHAR
STARTCHAR 5100
ENCODING 20736
SWIDTH 960 0
DWIDTH 16 0
BBX 16 16 0 -2
BITMAP
1B18
19B0
3BFE
3060
33F8
7060
77FF
D0D8
37B4
3330
37FF
3336
33DC
371A
3336
3766
ENDCHAR
STARTCHAR 5101
ENCODING 20737
SWIDTH 960 0
DWIDTH 16 0
BBX 16 16 0 -2
BITMAP
0D98
0DB0
0DFF
1B30
1BFE
3530
33FE
7330
D3FF
3000
37DE
36D6
36D6
36F6
3606
360E
ENDCHAR
STARTCHAR 5102
ENCODING 20738
SWIDTH 960 0
DWIDTH 16 0
BBX 16 16 0 -2
BITMAP
0CD0
0DFC
0D54
1BFC
1B54
33FC
3000
77FF
D600
36FC
3600
37FF
36AC
35B8
39EC
3707
ENDCHAR
STARTCHAR 5104
ENCODING 20740
SWIDTH 960 0
DWIDTH 16 0
BBX 16 16 0 -2
BITMAP
0C60
0C60
0FFE
1B0C
1998
37FF
3000
73FC
D30C
33FC
330C
33FC
36A6
36B3
358D
30FC
ENDCHAR
STARTCHAR 5109
ENCODING 20745
SWIDTH 960 0
DWIDTH 16 0
BBX 16 16 0 -2
BITMAP
0C60
0C60
0CD0
1998
1B0C
36FB
3000
77DE
D6D6
36D6
37DE
3318
3318
339C
36D6
3463
ENDCHAR
STARTCHAR 5112
ENCODING 20754
SWIDTH 960 0
DWIDTH 16 0
BBX 16 16 0 -2
BITMAP
0C00
0FFE
0C60
1FFF
1C63
35AD
3463
73AC
D000
37FE
3060
37FE
36D6
36D6
36D6
360E
ENDCHAR
STARTCHAR 5114
ENCODING 20756
SWIDTH 960 0
DWIDTH 16 0
BBX 16 16 0 -2
BITMAP
0C60
0FFE
0C60
1BFC
1800
37FF
3066
77F8
D000
37FF
300C
37FF
35AC
35B4
378C
301C
ENDCHAR
STARTCHAR 5115
ENCODING 20757
SWIDTH 960 0
DWIDTH 16 0
BBX 16 16 0 -2
BITMAP
0C60
0C60
0FFF
18D3
1FAE
36AA
36AA
75AD
D000
330C
33FC
330C
33FC
330C
360C
340C
ENDCHAR
STARTCHAR 5116
ENCODING 20758
SWIDTH 960 0
DWIDTH 16 0
BBX 16 16 0 -2
BITMAP
1818
1FD8
1D18
353F
37D0
74E0
77DF
D500
37C0
3000
37FE
36D6
36D6
36D6
3FFF
3000
ENDCHAR
STARTCHAR 5118
ENCODING 20760
SWIDTH 960 0
DWIDTH 16 0
BBX 16 16 0 -2
BITMAP
0C60
0DFC
0C6C
1BFF
186C
33FC
3060
77FF
D6AC
36D6
3406
37FC
36B4
36B4
3FFF
3000
ENDCHAR
STARTCHAR 511A
ENCODING 20762
SWIDTH 960 0
DWIDTH 16 0
BBX 16 16 0 -2
BITMAP
0D98
0D98
0FFF
1998
1BFE
36D6
37FE
7000
D7FF
3463
34FD
31CC
3768
3030
30E0
3780
ENDCHAR
STARTCHAR 511F
ENCODING 20767
SWIDTH 960 0
DWIDTH 16 0
BBX 16 16 0 -2
BITMAP
0D6C
0DA8
0FFE
1A06
1AFA
3198
31F8
73FC
D30C
33FC
330C
33FC
330C
33FC
31DC
3706
ENDCHAR
STARTCHAR 5121
ENCODING 20769
SWIDTH 960 0
DWIDTH 16 0
BBX 16 16 0 -2
BITMAP
0C00
0DFC
0D6C
1BFC
1B6C
336C
33FC
7000
D7DF
3555
3555
37DF
3555
3555
37DF
3000
ENDCHAR
STARTCHAR 512A
ENCODING 20778
SWIDTH 960 0
DWIDTH 16 0
BBX 16 16 0 -2
BITMAP
0C00
0FFF
0C60
1BFC
1B0C
33FC
330C
77FF
D5AD
36B6
36FD
359B
3750
3070
31DC
3707
ENDCHAR
STARTCHAR 5132
ENCODING 20786
SWIDTH 960 0
DWIDTH 16 0
BBX 16 16 0 -2
BITMAP
1818
1B98
187E
3FDA
301C
379C
70FF
7030
D7BE
30E6
37A6
35BE
35A6
35A6
37BE
3000
ENDCHAR
STARTCHAR 5137
ENCODING 20791
SWIDTH 960 0
DWIDTH 16 0
BBX 16 16 0 -2
BITMAP
1BDF
1800
1FDF
1CD3
3555
3060
77FF
76D0
D7FE
36D6
37FE
3730
35FE
3530
3BD3
371F
ENDCHAR
STARTCHAR 513A
ENCODING 20794
SWIDTH 960 0
DWIDTH 16 0
BBX 16 16 0 -2
BITMAP
1A9A
1FEA
1AB4
1BBF
3374
37D4
7554
77DF
D334
37D4
333F
37D4
36B4
36D4
34DF
3800
ENDCHAR
STARTCHAR 513B
ENCODING 20795
SWIDTH 960 0
DWIDTH 16 0
BBX 16 16 0 -2
BITMAP
0D6C
0DA8
0FFE
1A9A
1AFA
3000
33FC
736C
D3B4
33FC
3060
37FE
3060
37FF
36B6
34DB
ENDCHAR
STARTCHAR 513C
ENCODING 20796
SWIDTH 960 0
DWIDTH 16 0
BBX 16 16 0 -2
BITMAP
1800
1BDE
1AD6
1BDE
3000
37FF
7418
77E8
D59F
37F6
355A
35DA
35CC
356C
3BD6
30E3
ENDCHAR
STARTCHAR 513F
ENCODING 20799
SWIDTH 960 0
DWIDTH 16 0
BBX 16 16 0 -2
BITMAP
0660
0660
0660
0660
0660
0660
0660
0660
0660
0660
0660
0C63
0C63
1833
301F
E000
ENDCHAR
STARTCHAR 5140
ENCODING 20800
SWIDTH 960 0
DWIDTH 16 0
BBX 16 16 0 -2
BITMAP
0000
FFFF
0660
0660
0660
0660
0660
0660
0660
0660
0660
0C60
0C63
1833
301F
E000
ENDCHAR
STARTCHAR 5141
ENCODING 20801
SWIDTH 960 0
DWIDTH 16 0
BBX 16 16 0 -2
BITMAP
0300
0300
0340
0660
0638
0DF4
FF46
06C0
06C0
06C0
0CC0
0CC0
18C0
18C6
3066
603E
ENDCHAR
STARTCHAR 5143
ENCODING 20803
SWIDTH 960 0
DWIDTH 16 0
BBX 16 16 0 -2
BITMAP
0000
1FF8
0000
0000
0000
0000
FFFF
0660
0660
0660
0660
0C60
0C60
1863
3033
601F
ENDCHAR
STARTCHAR 5144
ENCODING 20804
SWIDTH 960 0
DWIDTH 16 0
BBX 16 16 0 -2
BITMAP
0000
1FF8
1818
1818
1818
1818
1818
1FF8
06C0
06C0
06C0
0CC0
0CC6
18C6
3066
603E
ENDCHAR
STARTCHAR 5145
ENCODING 20805
SWIDTH 960 0
DWIDTH 16 0
BBX 16 16 0 -2
BITMAP
0180
0180
FFFF
0300
0360
0638
0CF4
3FA6
0360
0360
0360
0660
0666
0C66
1866
703E
ENDCHAR
STARTCHAR 5146
ENCODING 20806
SWIDTH 960 0
DWIDTH 16 0
BBX 16 16 0 -2
BITMAP
06C0
06C0
06CC
66CC
36D8
1AD0
06C0
06C0
0EF0
3ADC
E6C6
0CC0
0CC0
18C3
3063
E03F
ENDCHAR
STARTCHAR 5147
ENCODING 20807
SWIDTH 960 0
DWIDTH 16 0
BBX 16 16 0 -2
BITMAP
0060
3068
36D8
3358
3198
3358
3668
3C68
3018
3FF8
06C0
06C0
0CC0
18C6
3066
E03E
ENDCHAR
STARTCHAR 5148
ENCODING 20808
SWIDTH 960 0
DWIDTH 16 0
BBX 16 16 0 -2
BITMAP
0180
0D80
0D80
0FFC
1980
1980
3180
FFFF
0360
0360
0360
0660
0660
0C63
1833
701F
ENDCHAR
STARTCHAR 5149
ENCODING 20809
SWIDTH 960 0
DWIDTH 16 0
BBX 16 16 0 -2
BITMAP
0180
0180
1998
0D98
0DB0
0DA0
0180
FFFF
0360
0360
0360
0660
0660
0C63
1833
701F
ENDCHAR
STARTCHAR 514B
ENCODING 20811
SWIDTH 960 0
DWIDTH 16 0
BBX 16 16 0 -2
BITMAP
0300
0300
FFFE
0300
0300
3FF0
3030
3030
3030
3FF0
06C0
06C0
06C0
0CC6
3866
E03E
ENDCHAR
STARTCHAR 514C
ENCODING 20812
SWIDTH 960 0
DWIDTH 16 0
BBX 16 16 0 -2
BITMAP
03E0
0C60
0C60
1830
1FF0
3838
6834
D837
1830
1FF0
06C0
06C0
06C0
0CC3
3863
E03F
ENDCHAR
STARTCHAR 514D
ENCODING 20813
SWIDTH 960 0
DWIDTH 16 0
BBX 16 16 0 -2
BITMAP
0300
03E0
0660
0CC0
1980
7FFC
198C
198C
198C
1FFC
0360
0360
0660
0C63
3833
E01F
ENDCHAR
STARTCHAR 514E
ENCODING 20814
SWIDTH 960 0
DWIDTH 16 0
BBX 16 16 0 -2
BITMAP
0018
0070
7FC0
0300
0300
3FF8
3318
3318
3318
3FF8
06D0
06D8
06D8
0CC6
38C6
E07E
ENDCHAR
STARTCHAR 5150
ENCODING 20816
SWIDTH 960 0
DWIDTH 16 0
BBX 16 16 0 -2
BITMAP
3000
33FC
330C
330C
330C
33FC
330C
330C
330C
33FC
36C0
06C0
06C0
0CC3
38C3
E07F
ENDCHAR
STARTCHAR 5152
ENCODING 20818
SWIDTH 960 0
DWIDTH 16 0
BBX 16 16 0 -2
BITMAP
0300
0600
3DFC
300C
300C
3EFC
300C
300C
300C
3FFC
06C0
06C0
06C3
0CC3
3863
E03F
ENDCHAR
STARTCHAR 5154
ENCODING 20820
SWIDTH 960 0
DWIDTH 16 0
BBX 16 16 0 -2
BITMAP
0300
03E0
0660
0CC0
3980
FFF8
3198
3198
3318
3FF8
0350
06D8
06D8
0CC3
3863
E03F
ENDCHAR
STARTCHAR 515A
ENCODING 20826
SWIDTH 960 0
DWIDTH 16 0
BBX 16 16 0 -2
BITMAP
0180
1998
0D98
0DB0
FFFE
C006
DFF6
D836
1830
1FF0
06C0
06C0
06C6
0CC6
3866
E03E
ENDCHAR
STARTCHAR 515C
ENCODING 20828
SWIDTH 960 0
DWIDTH 16 0
BBX 16 16 0 -2
BITMAP
0D80
1B00
77DC
66CC
66CC
67CC
66CC
66CC
7BDC
0000
06C0
06C0
06C6
0CC6
38C6
E07E
ENDCHAR
STARTCHAR 5162
ENCODING 20834
SWIDTH 960 0
DWIDTH 16 0
BBX 16 16 0 -2
BITMAP
1830
1830
FFFF
1830
1830
7EFC
66CC
66CC
66CC
7EFC
3468
3468
3558
6EDB
6D9B
C30F
ENDCHAR
STARTCHAR 5165
ENCODING 20837
SWIDTH 960 0
DWIDTH 16 0
BBX 16 16 0 -2
BITMAP
0780
0180
0180
0180
0180
0180
0180
0340
0340
0660
0660
0C30
1818
300C
6006
C003
ENDCHAR
STARTCHAR 5168
ENCODING 20840
SWIDTH 960 0
DWIDTH 16 0
BBX 16 16 0 -2
BITMAP
0180
0180
0340
0660
0C30
381C
EFFB
0180
0180
0180
3FF8
0180
0180
0180
FFFF
0000
ENDCHAR
STARTCHAR 5169
ENCODING 20841
SWIDTH 960 0
DWIDTH 16 0
BBX 16 16 0 -2
BITMAP
0000
FFFF
0180
0180
7FFE
6186
6186
6DB6
6DB6
6DB6
6AAA
6AAA
73CE
6186
6186
618E
ENDCHAR
STARTCHAR 516A
ENCODING 20842
SWIDTH 960 0
DWIDTH 16 0
BBX 16 16 0 -2
BITMAP
0180
0340
0660
0C30
381C
EFF7
0000
7E66
6666
6ACC
6E98
6730
6A98
6ECC
6666
6E66
ENDCHAR
STARTCHAR 516B
ENCODING 20843
SWIDTH 960 0
DWIDTH 16 0
BBX 16 16 0 -2
BITMAP
0000
07E0
0060
0060
0C60
0C60
0C60
0C60
0C30
0C30
0C30
1818
1818
300C
6006
C003
ENDCHAR
STARTCHAR 516C
ENCODING 20844
SWIDTH 960 0
DWIDTH 16 0
BBX 16 16 0 -2
BITMAP
03E0
0C60
0C60
0C30
1830
1818
330C
6306
C303
0340
0660
0630
0C18
0DF8
7E0C
000C
ENDCHAR
STARTCHAR 516D
ENCODING 20845
SWIDTH 960 0
DWIDTH 16 0
BBX 16 16 0 -2
BITMAP
0180
0180
0180
0180
FFFF
0000
0000
0000
0C60
0C30
0C18
1818
180C
300C
600C
0000
ENDCHAR
STARTCHAR 516E
ENCODING 20846
SWIDTH 960 0
DWIDTH 16 0
BBX 16 16 0 -2
BITMAP
01E0
0660
0630
0C30
1FF8
330C
6306
C603
0FF8
0C18
0018
0018
0018
0030
0030
00E0
ENDCHAR
STARTCHAR 5171
ENCODING 20849
SWIDTH 960 0
DWIDTH 16 0
BBX 16 16 0 -2
BITMAP
0C60
0C60
0C60
0C60
7FFC
0C60
0C60
0C60
0C60
FFFF
0000
0C60
0C30
1818
300C
600C
ENDCHAR
STARTCHAR 5175
ENCODING 20853
SWIDTH 960 0
DWIDTH 16 0
BBX 16 16 0 -2
BITMAP
0030
01E0
0F00
0C00
0FFE
0C30
0C30
0C30
0C30
0C30
FFFF
0000
0660
0C38
180C
7006
ENDCHAR
STARTCHAR 5176
ENCODING 20854
SWIDTH 960 0
DWIDTH 16 0
BBX 16 16 0 -2
BITMAP
0C30
0C30
7FFE
0C30
0C30
0FF0
0C30
0C30
0FF0
0C30
0C30
FFFF
0000
0670
1C1C
7006
ENDCHAR
STARTCHAR 5177
ENCODING 20855
SWIDTH 960 0
DWIDTH 16 0
BBX 16 16 0 -2
BITMAP
0000
1FF0
1830
1830
1FF0
1830
1830
1FF0
1830
1830
1FF0
0000
FFFF
0CE0
3838
E00C
ENDCHAR
STARTCHAR 5178
ENCODING 20856
SWIDTH 960 0
DWIDTH 16 0
BBX 16 16 0 -2
BITMAP
0660
0660
0660
3FFC
366C
366C
366C
3FFC
366C
366C
366C
FFFF
0000
0E70
381C
E006
ENDCHAR
STARTCHAR 517C
ENCODING 20860
SWIDTH 960 0
DWIDTH 16 0
BBX 16 16 0 -2
BITMAP
1830
0C60
FFFE
06C0
3FF8
06D8
06D8
FFFE
06D8
3FF8
06C0
0EE0
1AD0
36D8
E6CE
06C0
ENDCHAR
STARTCHAR 5180
ENCODING 20864
SWIDTH 960 0
DWIDTH 16 0
BBX 16 16 0 -2
BITMAP
0666
FE6C
067B
1E63
F63F
1FF8
1998
1FF8
1998
1FF8
0660
3FFC
0660
FFFF
0E78
F80E
ENDCHAR
STARTCHAR 5182
ENCODING 20866
SWIDTH 960 0
DWIDTH 16 0
BBX 16 16 0 -2
BITMAP
0000
7FFE
6006
6006
6006
6006
6006
6006
6006
6006
6006
6006
6006
6006
6006
600E
ENDCHAR
STARTCHAR 5185
ENCODING 20869
SWIDTH 960 0
DWIDTH 16 0
BBX 16 16 0 -2
BITMAP
0180
0180
0180
7FFE
6186
6186
6346
6346
6666
6C36
681A
6006
6006
6006
6006
600E
ENDCHAR
STARTCHAR 5186
ENCODING 20870
SWIDTH 960 0
DWIDTH 16 0
BBX 16 16 0 -2
BITMAP
0000
7FFC
630C
630C
630C
630C
630C
7FFC
600C
600C
600C
600C
600C
600C
600C
601C
ENDCHAR
STARTCHAR 5189
ENCODING 20873
SWIDTH 960 0
DWIDTH 16 0
BBX 16 16 0 -2
BITMAP
0180
0180
0180
3FFC
318C
318C
3FFC
318C
318C
318C
FFFF
300C
300C
300C
300C
301C
ENDCHAR
STARTCHAR 518A
ENCODING 20874
SWIDTH 960 0
DWIDTH 16 0
BBX 16 16 0 -2
BITMAP
0000
3FFC
366C
366C
366C
366C
366C
FFFF
366C
366C
366C
366C
366C
366C
366C
366C
ENDCHAR
STARTCHAR 518C
ENCODING 20876
SWIDTH 960 0
DWIDTH 16 0
BBX 16 16 0 -2
BITMAP
0000
3E7C
366C
366C
366C
366C
366C
FFFF
366C
366C
366C
366C
36CC
36CC
6E8C
C31C
ENDCHAR
STARTCHAR 518D
ENCODING 20877
SWIDTH 960 0
DWIDTH 16 0
BBX 16 16 0 -2
BITMAP
0000
7FFE
0180
0180
1FF8
1998
1998
1FF8
1998
1998
1998
FFFF
1818
1818
1818
1838
ENDCHAR
STARTCHAR 518F
ENCODING 20879
SWIDTH 960 0
DWIDTH 16 0
BBX 16 16 0 -2
BITMAP
0000
7FFE
6666
6666
6666
666E
6C3E
6806
77E6
6666
6666
6666
67E6
6006
6006
600E
ENDCHAR
STARTCHAR 5190
ENCODING 20880
SWIDTH 960 0
DWIDTH 16 0
BBX 16 16 0 -2
BITMAP
0000
7FFE
6006
6FFA
6006
6FFA
0000
0000
1FF8
1818
1FF8
1818
1FF8
1818
1818
1838
ENDCHAR
STARTCHAR 5191
ENCODING 20881
SWIDTH 960 0
DWIDTH 16 0
BBX 16 16 0 -2
BITMAP
0180
0180
7FFE
6186
7FFE
6186
7FFE
0000
3FFC
300C
37F4
300C
37F4
300C
300C
301C
ENDCHAR
STARTCHAR 5192
ENCODING 20882
SWIDTH 960 0
DWIDTH 16 0
BBX 16 16 0 -2
BITMAP
0000
7FFC
600C
7FFC
600C
7FFC
0000
1FF0
1830
1FF0
1830
1FF0
1830
1830
1FF0
0000
ENDCHAR
STARTCHAR 5193
ENCODING 20883
SWIDTH 960 0
DWIDTH 16 0
BBX 16 16 0 -2
BITMAP
0660
0660
7FFE
0660
3FFC
0660
FFFF
0180
1FF8
1998
1FF8
1998
FFFF
1818
1818
1838
ENDCHAR
STARTCHAR 5195
ENCODING 20885
SWIDTH 960 0
DWIDTH 16 0
BBX 16 16 0 -2
BITMAP
0000
7FFC
600C
6FF4
600C
6FF4
660C
0FC0
3980
FFF0
3330
3330
3FF6
06C6
1CC6
F07E
ENDCHAR
STARTCHAR 5196
ENCODING 20886
SWIDTH 960 0
DWIDTH 16 0
BBX 16 16 0 -2
BITMAP
0000
0000
0000
0000
0000
0000
FFFE
C006
C006
C006
0000
0000
0000
0000
0000
0000
ENDCHAR
STARTCHAR 5197
ENCODING 20887
SWIDTH 960 0
DWIDTH 16 0
BBX 16 16 0 -2
BITMAP
0000
FFFE
C006
C006
C7E6
0660
0660
0660
0660
0660
0C60
0C60
1860
1866
3066
603E
ENDCHAR
STARTCHAR 5199
ENCODING 20889
SWIDTH 960 0
DWIDTH 16 0
BBX 16 16 0 -2
BITMAP
0000
FFFE
C006
CC06
CFF6
0C00
0C00
0FE0
0060
0060
FFFE
0060
0060
0060
00C0
0780
ENDCHAR
STARTCHAR 51A0
ENCODING 20896
SWIDTH 960 0
DWIDTH 16 0
BBX 16 16 0 -2
BITMAP
0000
FFFE
C006
C006
7F18
0018
01FE
FF18
3698
36D8
36D8
3618
3618
663A
6306
C1FE
ENDCHAR
STARTCHAR 51A2
ENCODING 20898
SWIDTH 960 0
DWIDTH 16 0
BBX 16 16 0 -2
BITMAP
0000
FFFE
C006
C006
3FF8
0600
1D18
F358
36D0
1DA0
FBA0
0EB0
1D9C
F187
0180
0700
ENDCHAR
STARTCHAR 51A4
ENCODING 20900
SWIDTH 960 0
DWIDTH 16 0
BBX 16 16 0 -2
BITMAP
0000
FFFE
C306
C7E6
0CC0
3980
FFF8
3318
3318
3FF8
06C0
06D0
0CD8
18C6
3066
E03E
ENDCHAR
STARTCHAR 51A5
ENCODING 20901
SWIDTH 960 0
DWIDTH 16 0
BBX 16 16 0 -2
BITMAP
0000
FFFE
C006
DFF6
1830
1830
1FF0
1830
1830
1FF0
0300
FFFE
0000
0CE0
3838
E00C
ENDCHAR
STARTCHAR 51A6
ENCODING 20902
SWIDTH 960 0
DWIDTH 16 0
BBX 16 16 0 -2
BITMAP
0000
FFFE
C066
C066
7E7C
0060
01F8
FF18
34D8
34D0
3470
34D8
358E
6C06
6606
C3FE
ENDCHAR
STARTCHAR 51A8
ENCODING 20904
SWIDTH 960 0
DWIDTH 16 0
BBX 16 16 0 -2
BITMAP
0000
FFFE
C006
DFFA
0000
1FF0
1830
1FF0
0000
3FF8
3318
3FF8
3318
3318
3FF8
0000
ENDCHAR
STARTCHAR 51A9
ENCODING 20905
SWIDTH 960 0
DWIDTH 16 0
BBX 16 16 0 -2
BITMAP
0000
FFFE
C306
C606
1DF0
1830
1F70
1830
1FF0
0C00
1FFC
306C
EDB4
36D4
36CC
6038
ENDCHAR
STARTCHAR 51AA
ENCODING 20906
SWIDTH 960 0
DWIDTH 16 0
BBX 16 16 0 -2
BITMAP
0000
FFFE
CC66
7FFC
1830
1FF0
1830
1FF0
0600
FFFE
1B30
3FF8
6B34
DB36
1B60
0300
ENDCHAR
STARTCHAR 51AB
ENCODING 20907
SWIDTH 960 0
DWIDTH 16 0
BBX 16 16 0 -2
BITMAP
0000
0600
0300
0180
0180
0000
0000
0060
0060
00C0
0180
0180
0300
0600
0C00
0000
ENDCHAR
STARTCHAR 51AC
ENCODING 20908
SWIDTH 960 0
DWIDTH 16 0
BBX 16 16 0 -2
BITMAP
0300
0300
03F8
0618
0E30
3BA0
00C0
01A0
0730
1D9C
F0C7
0060
0E00
0380
00E0
0030
ENDCHAR
STARTCHAR 51B0
ENCODING 20912
SWIDTH 960 0
DWIDTH 16 0
BBX 16 16 0 -2
BITMAP
00C0
60C0
30C6
30C6
00EC
1F6C
0368
0350
1B50
36D8
36D8
6CCC
6CC6
D8C3
D0C0
01C0
ENDCHAR
STARTCHAR 51B1
ENCODING 20913
SWIDTH 960 0
DWIDTH 16 0
BBX 16 16 0 -2
BITMAP
0000
6FFE
3180
3180
0180
01F8
0198
1B18
1B18
3318
37F0
6630
6030
C030
DFFF
0000
ENDCHAR
STARTCHAR 51B2
ENCODING 20914
SWIDTH 960 0
DWIDTH 16 0
BBX 16 16 0 -2
BITMAP
0060
6060
3060
3060
07FE
0666
0666
1A66
1A66
37FE
3060
6060
6060
C060
C060
0060
ENDCHAR
STARTCHAR 51B3
ENCODING 20915
SWIDTH 960 0
DWIDTH 16 0
BBX 16 16 0 -2
BITMAP
00C0
60C0
30C0
37FC
00CC
00CC
00CC
18CC
1FFF
30E0
30D0
61B0
6198
C30C
C606
1C03
ENDCHAR
STARTCHAR 51B4
ENCODING 20916
SWIDTH 960 0
DWIDTH 16 0
BBX 16 16 0 -2
BITMAP
0000
67FE
3198
1998
1998
0198
0198
1BFF
1868
3068
30D8
6198
6318
C618
DC18
0038
ENDCHAR
STARTCHAR 51B5
ENCODING 20917
SWIDTH 960 0
DWIDTH 16 0
BBX 16 16 0 -2
BITMAP
0000
67FC
360C
360C
060C
060C
060C
1BFC
19B0
31B0
31B0
61B0
6333
C333
C633
0C1F
ENDCHAR
STARTCHAR 51B6
ENCODING 20918
SWIDTH 960 0
DWIDTH 16 0
BBX 16 16 0 -2
BITMAP
00C0
60C0
30C0
19B0
1998
030C
037C
0FC6
1806
1BFC
330C
330C
630C
630C
C3FC
0000
ENDCHAR
STARTCHAR 51B7
ENCODING 20919
SWIDTH 960 0
DWIDTH 16 0
BBX 16 16 0 -2
BITMAP
00C0
60E0
31A0
31B0
3318
03FC
0606
0C03
37FC
30CC
30CC
60CC
60D8
C0C0
C0C0
00C0
ENDCHAR
STARTCHAR 51BD
ENCODING 20925
SWIDTH 960 0
DWIDTH 16 0
BBX 16 16 0 -2
BITMAP
0006
6FF6
3636
3636
0636
07D6
06D6
36D6
3556
35B6
69B6
6306
C306
C606
CC06
380E
ENDCHAR
STARTCHAR 51C4
ENCODING 20932
SWIDTH 960 0
DWIDTH 16 0
BBX 16 16 0 -2
BITMAP
00C0
60C0
37FE
30C0
37F8
00D8
1FFF
00D8
1BF8
3180
3FFF
6198
6330
C7F0
C1D8
1F0C
ENDCHAR
STARTCHAR 51C5
ENCODING 20933
SWIDTH 960 0
DWIDTH 16 0
BBX 16 16 0 -2
BITMAP
0000
6FFE
34C6
34C6
0FFE
0CC6
0CC6
0DF6
35B6
35B6
35B6
6DF6
6C06
CC06
CFFE
0000
ENDCHAR
STARTCHAR 51C6
ENCODING 20934
SWIDTH 960 0
DWIDTH 16 0
BBX 16 16 0 -2
BITMAP
0198
6198
3330
33FE
0730
0730
0D30
03FE
1B30
3330
33FE
6330
6330
C330
C3FF
0000
ENDCHAR
STARTCHAR 51C9
ENCODING 20937
SWIDTH 960 0
DWIDTH 16 0
BBX 16 16 0 -2
BITMAP
0060
6060
3060
37FF
0000
03FC
030C
1B0C
1B0C
33FC
3060
6368
636C
C666
CC66
00E0
ENDCHAR
STARTCHAR 51CB
ENCODING 20939
SWIDTH 960 0
DWIDTH 16 0
BBX 16 16 0 -2
BITMAP
0000
67FE
3666
3666
06FA
0666
0666
1BFE
1A06
36FA
369A
669A
66FA
CC06
CC06
180E
ENDCHAR
STARTCHAR 51CC
ENCODING 20940
SWIDTH 960 0
DWIDTH 16 0
BBX 16 16 0 -2
BITMAP
0060
6060
37FE
3060
0060
0FFF
01B0
19B6
1B5E
36F8
3598
63B0
6ED0
C0E0
C3B8
0E0F
ENDCHAR
STARTCHAR 51CD
ENCODING 20941
SWIDTH 960 0
DWIDTH 16 0
BBX 16 16 0 -2
BITMAP
00C0
60C0
6FFE
30C0
37FC
06CC
07FC
06CC
1ACC
37FC
31E0
6350
66D8
CCCC
D8C6
00C0
ENDCHAR
STARTCHAR 51D6
ENCODING 20950
SWIDTH 960 0
DWIDTH 16 0
BBX 16 16 0 -2
BITMAP
0198
61B0
33FE
3360
07FC
0D60
03FC
1B60
73FE
C180
0180
FFFE
0180
0180
0180
0180
ENDCHAR
STARTCHAR 51DB
ENCODING 20955
SWIDTH 960 0
DWIDTH 16 0
BBX 16 16 0 -2
BITMAP
0060
6FFF
360C
36F4
06B4
06F4
060C
1BFC
1800
37FC
3000
6FFF
6368
C36C
C666
0CE0
ENDCHAR
STARTCHAR 51DC
ENCODING 20956
SWIDTH 960 0
DWIDTH 16 0
BBX 16 16 0 -2
BITMAP
0060
0060
6FFF
6374
3354
3374
030C
03FC
181C
33F0
3060
6FFF
60F0
C3AC
CE67
0060
ENDCHAR
STARTCHAR 51DD
ENCODING 20957
SWIDTH 960 0
DWIDTH 16 0
BBX 16 16 0 -2
BITMAP
0C00
0DBE
6F06
3434
3598
078C
06FF
379A
351C
3368
6FEE
6368
66A8
C6D8
CCDC
1987
ENDCHAR
STARTCHAR 51E0
ENCODING 20960
SWIDTH 960 0
DWIDTH 16 0
BBX 16 16 0 -2
BITMAP
0000
0FE0
0C60
0C60
0C60
0C60
0C60
0C60
0C60
0C60
0C60
1860
1863
3063
603F
C000
ENDCHAR
STARTCHAR 51E1
ENCODING 20961
SWIDTH 960 0
DWIDTH 16 0
BBX 16 16 0 -2
BITMAP
0000
0FE0
0C60
0C60
0C60
0E60
0D60
0DA0
0DA0
0C60
0C60
1860
1866
3066
603E
C000
ENDCHAR
STARTCHAR 51E6
ENCODING 20966
SWIDTH 960 0
DWIDTH 16 0
BBX 16 16 0 -2
BITMAP
1800
187C
186C
1F6C
1B6C
336C
336C
6A6C
6A6C
CCCC
0CCD
1A8D
1B07
3180
60E0
C03F
ENDCHAR
STARTCHAR 51E7
ENCODING 20967
SWIDTH 960 0
DWIDTH 16 0
BBX 16 16 0 -2
BITMAP
0000
3FF8
3018
3318
3318
37E8
3568
3568
3568
3568
3568
3558
350D
630D
6307
C303
ENDCHAR
STARTCHAR 51E9
ENCODING 20969
SWIDTH 960 0
DWIDTH 16 0
BBX 16 16 0 -2
BITMAP
0000
3FF8
3018
3198
3198
37F8
3198
3198
33D8
33D8
36A8
36A8
35B5
698D
6187
C183
ENDCHAR
STARTCHAR 51EA
ENCODING 20970
SWIDTH 960 0
DWIDTH 16 0
BBX 16 16 0 -2
BITMAP
0000
3FF8
3018
3198
3198
3198
3598
3598
35E8
3598
3598
3598
358D
6D8D
7FFB
C003
ENDCHAR
STARTCHAR 51ED
ENCODING 20973
SWIDTH 960 0
DWIDTH 16 0
BBX 16 16 0 -2
BITMAP
0C18
0C70
1BE0
3060
77FF
D060
3060
37FE
3000
0000
0FE0
0C60
0C60
1866
3066
E03E
ENDCHAR
STARTCHAR 51F0
ENCODING 20976
SWIDTH 960 0
DWIDTH 16 0
BBX 16 16 0 -2
BITMAP
0000
3FFC
318C
330C
37F4
3434
37F4
3434
37F4
300C
37F4
318C
37ED
618D
6FFB
C003
ENDCHAR
STARTCHAR 51F1
ENCODING 20977
SWIDTH 960 0
DWIDTH 16 0
BBX 16 16 0 -2
BITMAP
1800
6B7C
6B6C
7F6C
006C
FFAC
006C
7F6C
636C
636C
7F6C
666C
366C
35CD
1ECD
F187
ENDCHAR
STARTCHAR 51F5
ENCODING 20981
SWIDTH 960 0
DWIDTH 16 0
BBX 16 16 0 -2
BITMAP
6006
6006
6006
6006
6006
6006
6006
6006
6006
6006
6006
6006
6006
6006
7FFE
0000
ENDCHAR
STARTCHAR 51F6
ENCODING 20982
SWIDTH 960 0
DWIDTH 16 0
BBX 16 16 0 -2
BITMAP
0000
0030
6036
6036
6E66
63A6
60C6
60E6
61B6
6336
661A
6C1A
6806
6006
7FFE
0000
ENDCHAR
STARTCHAR 51F8
ENCODING 20984
SWIDTH 960 0
DWIDTH 16 0
BBX 16 16 0 -2
BITMAP
0000
07E0
0660
0660
0660
0660
0660
7E7E
6006
6006
6006
6006
6006
7FFE
0000
0000
ENDCHAR
STARTCHAR 51F9
ENCODING 20985
SWIDTH 960 0
DWIDTH 16 0
BBX 16 16 0 -2
BITMAP
0000
7E7E
6666
6666
6666
6666
6666
6666
67E6
6006
6006
6006
6006
7FFE
0000
0000
ENDCHAR
STARTCHAR 51FA
ENCODING 20986
SWIDTH 960 0
DWIDTH 16 0
BBX 16 16 0 -2
BITMAP
0180
0180
318C
318C
318C
318C
3FFC
0180
0180
6186
6186
6186
6186
6186
7FFE
0000
ENDCHAR
STARTCHAR 51FD
ENCODING 20989
SWIDTH 960 0
DWIDTH 16 0
BBX 16 16 0 -2
BITMAP
0000
FFFF
0600
0600
679A
699A
6DD6
66C6
61A6
63A6
6EB6
799A
6706
6006
7FFE
0000
ENDCHAR
STARTCHAR 51FE
ENCODING 20990
SWIDTH 960 0
DWIDTH 16 0
BBX 16 16 0 -2
BITMAP
0000
1FF8
0030
00E0
6186
6EFA
6A9A
6AAA
6AAA
6AB6
6ED6
699A
638E
6006
7FFE
6006
ENDCHAR
STARTCHAR 5200
ENCODING 20992
SWIDTH 960 0
DWIDTH 16 0
BBX 16 16 0 -2
BITMAP
0000
0000
7FFE
0186
0186
0186
0186
0186
0306
0306
0306
0606
0C06
180C
3038
0000
ENDCHAR
STARTCHAR 5203
ENCODING 20995
SWIDTH 960 0
DWIDTH 16 0
BBX 16 16 0 -2
BITMAP
0000
0000
7FFC
018C
018C
018C
1D8C
070C
038C
06CC
066C
0C0C
180C
3018
6070
0000
ENDCHAR
STARTCHAR 5204
ENCODING 20996
SWIDTH 960 0
DWIDTH 16 0
BBX 16 16 0 -2
BITMAP
0000
FFFC
018C
018C
318C
198C
0D8C
070C
030C
038C
06EC
063C
0C0F
180C
3018
60F0
ENDCHAR
STARTCHAR 5206
ENCODING 20998
SWIDTH 960 0
DWIDTH 16 0
BBX 16 16 0 -2
BITMAP
07E0
0060
0C60
0C30
1830
1818
300C
6FF6
C333
0330
0330
0630
0630
0C30
1830
30E0
ENDCHAR
STARTCHAR 5207
ENCODING 20999
SWIDTH 960 0
DWIDTH 16 0
BBX 16 16 0 -2
BITMAP
3000
33FE
3066
3066
3766
3C66
F066
3066
3066
3066
36C6
36C6
1E86
0306
060C
1C38
ENDCHAR
STARTCHAR 5208
ENCODING 21000
SWIDTH 960 0
DWIDTH 16 0
BBX 16 16 0 -2
BITMAP
0306
0366
0366
0366
6366
3366
1A66
0E66
0666
0D66
0D66
1986
1986
3186
6006
C00E
ENDCHAR
STARTCHAR 520A
ENCODING 21002
SWIDTH 960 0
DWIDTH 16 0
BBX 16 16 0 -2
BITMAP
0006
7FA6
0C66
0C66
0C66
0C66
FFE6
0C66
0C66
0C66
0C66
0C06
0C06
0C06
0C06
0C0E
ENDCHAR
STARTCHAR 520B
ENCODING 21003
SWIDTH 960 0
DWIDTH 16 0
BBX 16 16 0 -2
BITMAP
0186
0F66
FC66
0C66
0C66
0C66
FFA6
0C66
0C66
0C66
0C66
1866
1806
3006
6006
C00E
ENDCHAR
STARTCHAR 520E
ENCODING 21006
SWIDTH 960 0
DWIDTH 16 0
BBX 16 16 0 -2
BITMAP
3006
3036
3FB6
35B6
6DB6
6DB6
DBB6
1AB6
36B6
36B6
6DB6
CDB6
1986
3186
6186
070E
ENDCHAR
STARTCHAR 5211
ENCODING 21009
SWIDTH 960 0
DWIDTH 16 0
BBX 16 16 0 -2
BITMAP
0006
7FE6
1B66
1B66
1B66
1B66
FFE6
1B66
1B66
1B66
1B66
1B06
3306
3306
6306
C30E
ENDCHAR
STARTCHAR 5214
ENCODING 21012
SWIDTH 960 0
DWIDTH 16 0
BBX 16 16 0 -2
BITMAP
0C06
0C36
0C36
7FB6
0DB6
0DB6
0DB6
0DB6
FFF6
0C36
0E36
1B06
1B06
3186
60C6
C00E
ENDCHAR
STARTCHAR 5217
ENCODING 21015
SWIDTH 960 0
DWIDTH 16 0
BBX 16 16 0 -2
BITMAP
0006
FFE6
1866
1866
1866
1F66
3366
3366
6B66
CE66
0666
0C06
0C06
1806
3006
600E
ENDCHAR
STARTCHAR 521D
ENCODING 21021
SWIDTH 960 0
DWIDTH 16 0
BBX 16 16 0 -2
BITMAP
1800
1800
1BFE
FE66
0666
0C66
0D66
1B66
1E66
3A66
6B66
DB46
18C6
1986
1B06
1A1C
ENDCHAR
STARTCHAR 5224
ENCODING 21028
SWIDTH 960 0
DWIDTH 16 0
BBX 16 16 0 -2
BITMAP
0C06
0DB6
6DB6
35B6
3536
0C36
FFD6
0C36
0C36
0C36
FFD6
0C36
0C06
0C06
0C06
0C0E
ENDCHAR
STARTCHAR 5225
ENCODING 21029
SWIDTH 960 0
DWIDTH 16 0
BBX 16 16 0 -2
BITMAP
0006
7FA6
61A6
61A6
61A6
7FA6
1866
1866
1FA6
19A6
19A6
1986
3186
3186
6306
CE0E
ENDCHAR
STARTCHAR 5227
ENCODING 21031
SWIDTH 960 0
DWIDTH 16 0
BBX 16 16 0 -2
BITMAP
0C00
0CFE
0C36
7FB6
0C36
0C36
0C36
FFD6
0C36
0C36
1836
1A66
1B66
3746
FD86
019C
ENDCHAR
STARTCHAR 5229
ENCODING 21033
SWIDTH 960 0
DWIDTH 16 0
BBX 16 16 0 -2
BITMAP
0186
0766
7C66
0C66
0C66
0C66
FFA6
1C66
1E66
3566
35A6
6DA6
CC06
0C06
0C06
0C0E
ENDCHAR
STARTCHAR 522A
ENCODING 21034
SWIDTH 960 0
DWIDTH 16 0
BBX 16 16 0 -2
BITMAP
0006
7FB6
6AB6
6AB6
6AB6
6AB6
6AB6
FFD6
6AB6
6AB6
6AB6
6A86
6A86
6A86
6A86
638E
ENDCHAR
STARTCHAR 522E
ENCODING 21038
SWIDTH 960 0
DWIDTH 16 0
BBX 16 16 0 -2
BITMAP
0186
0736
7C36
0C36
0C36
0C36
FFD6
0C36
0C36
0C36
3FB6
3186
3186
3186
3F86
000E
ENDCHAR
STARTCHAR 5230
ENCODING 21040
SWIDTH 960 0
DWIDTH 16 0
BBX 16 16 0 -2
BITMAP
0006
FFE6
1866
1A66
3366
3766
FDA6
0DA6
0C66
7FA6
0C66
0C06
0C06
0F86
F806
000E
ENDCHAR
STARTCHAR 5233
ENCODING 21043
SWIDTH 960 0
DWIDTH 16 0
BBX 16 16 0 -2
BITMAP
0C06
0C36
FFD6
1A36
3336
61B6
DF56
0036
FFD6
1836
1836
3F06
3306
0306
0306
0E0E
ENDCHAR
STARTCHAR 5236
ENCODING 21046
SWIDTH 960 0
DWIDTH 16 0
BBX 16 16 0 -2
BITMAP
0606
3636
3636
3FD6
6636
6636
FFF6
0636
3FD6
36D6
36D6
36D6
36C6
3786
3606
060E
ENDCHAR
STARTCHAR 5237
ENCODING 21047
SWIDTH 960 0
DWIDTH 16 0
BBX 16 16 0 -2
BITMAP
0006
7FB6
61B6
61B6
7FB6
6C36
6C36
7FB6
75B6
75B6
D5B6
D5B6
B586
3586
3406
0C0E
ENDCHAR
STARTCHAR 5238
ENCODING 21048
SWIDTH 960 0
DWIDTH 16 0
BBX 16 16 0 -2
BITMAP
1998
0D98
0DB0
3FFE
0180
0340
FFFF
0660
0C30
3FFC
E337
0330
0630
0630
0C30
38E0
ENDCHAR
STARTCHAR 5239
ENCODING 21049
SWIDTH 960 0
DWIDTH 16 0
BBX 16 16 0 -2
BITMAP
0606
0666
7466
1C66
1A66
3366
6D66
CC66
FFA6
0C66
1E66
3506
6D86
CC06
0C06
0C0E
ENDCHAR
STARTCHAR 523A
ENCODING 21050
SWIDTH 960 0
DWIDTH 16 0
BBX 16 16 0 -2
BITMAP
0C06
0C36
FFD6
0C36
0C36
7FB6
6DB6
6DB6
6DB6
6E36
1D36
35B6
3586
6C06
CC06
0C0E
ENDCHAR
STARTCHAR 523B
ENCODING 21051
SWIDTH 960 0
DWIDTH 16 0
BBX 16 16 0 -2
BITMAP
0C06
0C66
FFE6
0C66
0C66
7B66
1A66
0E66
0DA6
19A6
3366
6706
0D86
18C6
30C6
E00E
ENDCHAR
STARTCHAR 5243
ENCODING 21059
SWIDTH 960 0
DWIDTH 16 0
BBX 16 16 0 -2
BITMAP
3306
1A36
FFB6
0DB6
0DB6
7FB6
6C36
6C36
7FD6
0CD6
1CD6
1CC6
34C6
6D86
CC06
0C0E
ENDCHAR
STARTCHAR 5244
ENCODING 21060
SWIDTH 960 0
DWIDTH 16 0
BBX 16 16 0 -2
BITMAP
0006
FFB6
0036
36D6
36D6
EDB6
6DB6
36D6
0036
FFD6
0C36
0C06
0C06
0D86
3E06
E00E
ENDCHAR
STARTCHAR 5247
ENCODING 21063
SWIDTH 960 0
DWIDTH 16 0
BBX 16 16 0 -2
BITMAP
0006
7F66
6366
6366
7F66
6366
6366
6366
7F66
6366
6366
7F66
3666
3306
6306
C00E
ENDCHAR
STARTCHAR 524A
ENCODING 21066
SWIDTH 960 0
DWIDTH 16 0
BBX 16 16 0 -2
BITMAP
1806
DB66
6B66
6A66
1866
7F66
6366
6366
7F66
6366
6366
7F66
6306
6306
6306
670E
ENDCHAR
STARTCHAR 524B
ENCODING 21067
SWIDTH 960 0
DWIDTH 16 0
BBX 16 16 0 -2
BITMAP
0C0C
0C6C
FFEC
0C6C
0C6C
7FAC
61AC
61AC
61AC
7FAC
1A0C
1A0C
1A1C
3603
6303
C1FF
ENDCHAR
STARTCHAR 524C
ENCODING 21068
SWIDTH 960 0
DWIDTH 16 0
BBX 16 16 0 -2
BITMAP
0C06
0C36
FFD6
0C36
0C36
7FB6
6DB6
6DB6
6DB6
7FB6
1C36
1E06
3506
6D86
CC06
0C0E
ENDCHAR
STARTCHAR 524D
ENCODING 21069
SWIDTH 960 0
DWIDTH 16 0
BBX 16 16 0 -2
BITMAP
1830
0C30
0C60
FFFF
0000
7ECC
66CC
66CC
7ECC
66CC
66CC
7ECC
66CC
660C
660C
6E1C
ENDCHAR
STARTCHAR 524F
ENCODING 21071
SWIDTH 960 0
DWIDTH 16 0
BBX 16 16 0 -2
BITMAP
6300
337E
3636
FFB6
3636
3636
36D6
FFB6
3636
363A
3636
3667
3666
66C6
6686
C71C
ENDCHAR
STARTCHAR 5254
ENCODING 21076
SWIDTH 960 0
DWIDTH 16 0
BBX 16 16 0 -2
BITMAP
0006
3FB6
31B6
3FB6
31B6
31B6
3FB6
1836
1FD6
3556
6D56
DB46
36C6
6CC6
18C6
038E
ENDCHAR
STARTCHAR 5256
ENCODING 21078
SWIDTH 960 0
DWIDTH 16 0
BBX 16 16 0 -2
BITMAP
0C06
0C36
7FD6
31B6
19B6
1B36
1B36
FFF6
0036
0036
3FB6
31B6
3186
3186
3F86
000E
ENDCHAR
STARTCHAR 525B
ENCODING 21083
SWIDTH 960 0
DWIDTH 16 0
BBX 16 16 0 -2
BITMAP
0006
7FD6
60D6
7356
6AD6
60D6
7FD6
6CD6
7556
7556
7556
7F46
7346
60C6
60C6
61CE
ENDCHAR
STARTCHAR 525E
ENCODING 21086
SWIDTH 960 0
DWIDTH 16 0
BBX 16 16 0 -2
BITMAP
0C06
0C36
FFD6
0C36
1A36
7336
0036
FFF6
01B6
7DB6
6DB6
6D86
7D86
0186
0186
038E
ENDCHAR
STARTCHAR 5263
ENCODING 21091
SWIDTH 960 0
DWIDTH 16 0
BBX 16 16 0 -2
BITMAP
0C06
0C36
1A36
1B36
31B6
7F56
CC36
7FB6
6DB6
6DB6
7FB6
0E36
0D06
1986
3186
E00E
ENDCHAR
STARTCHAR 5264
ENCODING 21092
SWIDTH 960 0
DWIDTH 16 0
BBX 16 16 0 -2
BITMAP
0C06
0C36
FFF6
3336
1A36
0E36
3BB6
F1F6
31B6
3FB6
31B6
3F86
3186
6186
6186
C18E
ENDCHAR
STARTCHAR 5265
ENCODING 21093
SWIDTH 960 0
DWIDTH 16 0
BBX 16 16 0 -2
BITMAP
0006
7F36
0336
7F36
0336
0336
FFD6
0C36
CDB6
6F36
6E36
1D06
3586
ECC6
0C06
1C0E
ENDCHAR
STARTCHAR 5269
ENCODING 21097
SWIDTH 960 0
DWIDTH 16 0
BBX 16 16 0 -2
BITMAP
0306
7E36
0C36
FFD6
0C36
3556
F5B6
3536
7556
D5D6
1E36
1D06
3586
6CC6
CC06
0C0E
ENDCHAR
STARTCHAR 526A
ENCODING 21098
SWIDTH 960 0
DWIDTH 16 0
BBX 16 16 0 -2
BITMAP
0C30
0660
FFFF
330C
3D6C
376C
3D6C
376C
336C
371C
0000
FFFE
0306
0606
1C06
F01C
ENDCHAR
STARTCHAR 526F
ENCODING 21103
SWIDTH 960 0
DWIDTH 16 0
BBX 16 16 0 -2
BITMAP
0006
FFD6
0036
3F36
3336
3336
3F36
0036
7FB6
6DB6
6DB6
7FB6
6D86
6D86
7F86
000E
ENDCHAR
STARTCHAR 5270
ENCODING 21104
SWIDTH 960 0
DWIDTH 16 0
BBX 16 16 0 -2
BITMAP
0306
3E36
0C36
7FD6
35B6
35B6
FFF6
35B6
35B6
7FD6
1E36
1D36
3586
6CC6
CC06
0C0E
ENDCHAR
STARTCHAR 5271
ENCODING 21105
SWIDTH 960 0
DWIDTH 16 0
BBX 16 16 0 -2
BITMAP
0C00
0CFE
1A36
3336
7FB6
CCD6
0C36
7FB6
6DB6
6DBA
7FB6
0C37
1A36
3366
6346
C19C
ENDCHAR
STARTCHAR 5272
ENCODING 21106
SWIDTH 960 0
DWIDTH 16 0
BBX 16 16 0 -2
BITMAP
0C06
FFD6
C0D6
CCD6
7FB6
0C36
7FB6
0C36
FFD6
0036
3FB6
31B6
3186
3186
3F86
000E
ENDCHAR
STARTCHAR 5273
ENCODING 21107
SWIDTH 960 0
DWIDTH 16 0
BBX 16 16 0 -2
BITMAP
3306
3336
FFD6
3336
0C36
0C36
1A36
3336
7FB6
C0D6
0036
7F86
6186
6186
7F86
000E
ENDCHAR
STARTCHAR 5274
ENCODING 21108
SWIDTH 960 0
DWIDTH 16 0
BBX 16 16 0 -2
BITMAP
0C06
6DB6
6DB6
7FB6
0036
FFD6
0036
7FB6
61B6
61B6
7FB6
3306
1B06
1AC6
1F06
F00E
ENDCHAR
STARTCHAR 5275
ENCODING 21109
SWIDTH 960 0
DWIDTH 16 0
BBX 16 16 0 -2
BITMAP
0606
0636
0D36
19B6
3F56
6076
DFB6
31B6
3FB6
31B6
3FB6
3036
6F86
6986
DF86
000E
ENDCHAR
STARTCHAR 527D
ENCODING 21117
SWIDTH 960 0
DWIDTH 16 0
BBX 16 16 0 -2
BITMAP
0006
FFF6
1B36
7FD6
6B56
6B56
7FD6
0036
7FD6
0036
FFF6
36B6
36C6
66C6
C606
0E0E
ENDCHAR
STARTCHAR 527F
ENCODING 21119
SWIDTH 960 0
DWIDTH 16 0
BBX 16 16 0 -2
BITMAP
3686
6DB6
ED36
36B6
7FB6
6DB6
7FB6
6DB6
7FB6
0C36
FFD6
1E06
3506
6D86
CCC6
0C0E
ENDCHAR
STARTCHAR 5283
ENCODING 21123
SWIDTH 960 0
DWIDTH 16 0
BBX 16 16 0 -2
BITMAP
0C06
7FB6
0DB6
FFF6
0DB6
7FB6
0C36
3F36
FFD6
6DB6
7FB6
6DB6
7F86
0006
FFC6
000E
ENDCHAR
STARTCHAR 5287
ENCODING 21127
SWIDTH 960 0
DWIDTH 16 0
BBX 16 16 0 -2
BITMAP
0C06
0FB6
0C36
7FD6
6D56
7E36
6DB6
67B6
7FD6
6E36
7AD6
6D46
7B86
6D46
DB66
0E0E
ENDCHAR
STARTCHAR 5288
ENCODING 21128
SWIDTH 960 0
DWIDTH 16 0
BBX 16 16 0 -2
BITMAP
0018
3F18
337F
3366
3F34
31FF
3F18
6B7F
6B18
DF18
0000
FFFE
0186
0706
1C06
F03C
ENDCHAR
STARTCHAR 5289
ENCODING 21129
SWIDTH 960 0
DWIDTH 16 0
BBX 16 16 0 -2
BITMAP
1806
77C6
6356
6B56
7AD6
EDD6
0C36
1B36
31D6
FF36
0C36
FFD6
0D86
6D06
3786
F80E
ENDCHAR
STARTCHAR 528D
ENCODING 21133
SWIDTH 960 0
DWIDTH 16 0
BBX 16 16 0 -2
BITMAP
0C06
0C36
1A36
3336
61B6
DF56
0036
7BB6
6AB6
6AB6
7BB6
3336
3B86
6EC6
6606
CC0E
ENDCHAR
STARTCHAR 5291
ENCODING 21137
SWIDTH 960 0
DWIDTH 16 0
BBX 16 16 0 -2
BITMAP
0C06
0C36
FFF6
1AD6
F5B6
7556
7556
D5B6
0036
31B6
3FB6
3186
3F86
3186
6186
C18E
ENDCHAR
STARTCHAR 5292
ENCODING 21138
SWIDTH 960 0
DWIDTH 16 0
BBX 16 16 0 -2
BITMAP
0C00
0CFE
1A36
3336
61B6
DF36
0076
7BB6
6AD6
6AB6
7BB6
3336
3BA6
6EE6
66C6
CD9C
ENDCHAR
STARTCHAR 5294
ENCODING 21140
SWIDTH 960 0
DWIDTH 16 0
BBX 16 16 0 -2
BITMAP
0C00
0CFE
1A36
3336
61B6
DF36
00D6
7BB6
6AB6
6ABA
7BB7
3336
3BA6
6EE6
66C6
CD9C
ENDCHAR
STARTCHAR 529B
ENCODING 21147
SWIDTH 960 0
DWIDTH 16 0
BBX 16 16 0 -2
BITMAP
0300
0300
0300
0300
FFFC
030C
030C
030C
060C
060C
060C
0C0C
0C0C
180C
3018
6070
ENDCHAR
STARTCHAR 529F
ENCODING 21151
SWIDTH 960 0
DWIDTH 16 0
BBX 16 16 0 -2
BITMAP
0060
0060
0060
FE60
1BFE
1866
1866
1866
1866
1866
1EC6
38C6
E0C6
0186
030C
0638
ENDCHAR
STARTCHAR 52A0
ENCODING 21152
SWIDTH 960 0
DWIDTH 16 0
BBX 16 16 0 -2
BITMAP
1800
1800
187E
1866
FFA6
19A6
19A6
19A6
19A6
19A6
19A6
19A6
31A6
31BE
6180
C700
ENDCHAR
STARTCHAR 52A3
ENCODING 21155
SWIDTH 960 0
DWIDTH 16 0
BBX 16 16 0 -2
BITMAP
0180
0DB0
0D98
198C
31B4
63A6
01C6
0F40
F8C0
00C0
3FFC
018C
030C
060C
1C0C
7038
ENDCHAR
STARTCHAR 52A9
ENCODING 21161
SWIDTH 960 0
DWIDTH 16 0
BBX 16 16 0 -2
BITMAP
0060
7E60
6660
6660
67FE
7E66
6666
6666
7E66
6666
66C6
6746
6EC6
7986
E30C
0638
ENDCHAR
STARTCHAR 52AA
ENCODING 21162
SWIDTH 960 0
DWIDTH 16 0
BBX 16 16 0 -2
BITMAP
0C00
0C00
FFFC
1B4C
1B4C
3368
7E30
0D68
398E
E180
3FF8
0198
0318
0618
1C18
7070
ENDCHAR
STARTCHAR 52AB
ENCODING 21163
SWIDTH 960 0
DWIDTH 16 0
BBX 16 16 0 -2
BITMAP
0C30
0C30
0C30
7FB0
0CFE
0C36
0C36
0C36
FFB6
0C36
0C36
1A66
1B66
3766
FDC6
019C
ENDCHAR
STARTCHAR 52AC
ENCODING 21164
SWIDTH 960 0
DWIDTH 16 0
BBX 16 16 0 -2
BITMAP
1830
1830
1830
3FB0
31FE
61B6
7EB6
D6B6
36B6
36B6
36B6
3EA6
01A6
01A6
0346
0E9C
ENDCHAR
STARTCHAR 52AD
ENCODING 21165
SWIDTH 960 0
DWIDTH 16 0
BBX 16 16 0 -2
BITMAP
0030
FFB0
19B0
19B0
19FE
31B6
61B6
C736
0036
7F36
6336
6366
6366
6366
7F46
019C
ENDCHAR
STARTCHAR 52B1
ENCODING 21169
SWIDTH 960 0
DWIDTH 16 0
BBX 16 16 0 -2
BITMAP
0030
3FD0
3030
3030
3FFE
3436
3436
37B6
35B6
35B6
35B6
35B6
69A6
69A6
D346
0E9C
ENDCHAR
STARTCHAR 52B4
ENCODING 21172
SWIDTH 960 0
DWIDTH 16 0
BBX 16 16 0 -2
BITMAP
330C
198C
1998
19B0
FFFE
C006
C306
0300
7FF8
0318
0318
0618
0618
0C18
3818
E070
ENDCHAR
STARTCHAR 52B5
ENCODING 21173
SWIDTH 960 0
DWIDTH 16 0
BBX 16 16 0 -2
BITMAP
0DB0
0D98
1998
7FFE
0180
0340
FFFF
0660
0DB0
399C
EFF7
0330
0330
0630
1C30
70E0
ENDCHAR
STARTCHAR 52B9
ENCODING 21177
SWIDTH 960 0
DWIDTH 16 0
BBX 16 16 0 -2
BITMAP
0C30
0C30
0C30
FFB0
36FE
3336
3336
6BB6
6A36
CE36
0666
0D66
1B46
30C6
6186
C31C
ENDCHAR
STARTCHAR 52BC
ENCODING 21180
SWIDTH 960 0
DWIDTH 16 0
BBX 16 16 0 -2
BITMAP
1830
1830
1830
FFB0
19FE
1836
1836
7F36
0036
0036
7F36
6366
6366
6346
7F86
031C
ENDCHAR
STARTCHAR 52BE
ENCODING 21182
SWIDTH 960 0
DWIDTH 16 0
BBX 16 16 0 -2
BITMAP
0C30
0C30
0C30
FFFE
1836
1A36
F636
35B6
1DB6
1B36
3366
6666
0D66
19C6
3186
E31C
ENDCHAR
STARTCHAR 52C1
ENCODING 21185
SWIDTH 960 0
DWIDTH 16 0
BBX 16 16 0 -2
BITMAP
0030
FFB0
0030
3530
357E
6A36
EA36
3536
3536
0036
FF36
1866
1866
1B66
3CC6
E19C
ENDCHAR
STARTCHAR 52C3
ENCODING 21187
SWIDTH 960 0
DWIDTH 16 0
BBX 16 16 0 -2
BITMAP
0C30
0C30
7F30
0C30
0CFE
FFB6
C1B6
DEB6
0636
0C36
0FA6
FC66
0C66
0CC6
0D86
1D1C
ENDCHAR
STARTCHAR 52C5
ENCODING 21189
SWIDTH 960 0
DWIDTH 16 0
BBX 16 16 0 -2
BITMAP
0C30
0C30
FFD0
0C30
0DFE
7FB6
6DB6
6DB6
7FB6
1C36
1E36
3566
35A6
6CC6
CD86
0D1C
ENDCHAR
STARTCHAR 52C7
ENCODING 21191
SWIDTH 960 0
DWIDTH 16 0
BBX 16 16 0 -2
BITMAP
0000
3FF0
0EC0
0380
3FF8
3318
3FF8
3318
3318
3FF8
0300
FFFC
030C
060C
1C0C
F078
ENDCHAR
STARTCHAR 52C9
ENCODING 21193
SWIDTH 960 0
DWIDTH 16 0
BBX 16 16 0 -2
BITMAP
1830
1830
3E30
3630
6C30
FFFE
6DB6
6DB6
6DB6
7FB6
1A66
1A66
36CC
36BB
6303
C1FF
ENDCHAR
STARTCHAR 52CD
ENCODING 21197
SWIDTH 960 0
DWIDTH 16 0
BBX 16 16 0 -2
BITMAP
0C30
0C30
0C30
FFB0
00FE
3F36
3336
3336
3336
3F36
0C66
3666
3566
6D46
CD86
1D1C
ENDCHAR
STARTCHAR 52D2
ENCODING 21202
SWIDTH 960 0
DWIDTH 16 0
BBX 16 16 0 -2
BITMAP
3630
3630
FF30
3630
36FE
3E36
1836
7F36
6B36
6B36
7F36
1866
FFA6
18C6
1986
1B3C
ENDCHAR
STARTCHAR 52D5
ENCODING 21205
SWIDTH 960 0
DWIDTH 16 0
BBX 16 16 0 -2
BITMAP
03B0
3E30
0C30
FFD0
0CFE
3FB6
35B6
3FB6
35B6
35B6
3FB6
0C36
7F66
0DA6
1EC6
F19C
ENDCHAR
STARTCHAR 52D7
ENCODING 21207
SWIDTH 960 0
DWIDTH 16 0
BBX 16 16 0 -2
BITMAP
0000
3FF8
3018
3FF8
3018
3FF8
0030
3F30
33FE
3F36
3336
3F66
33A6
3F46
F186
031C
ENDCHAR
STARTCHAR 52D8
ENCODING 21208
SWIDTH 960 0
DWIDTH 16 0
BBX 16 16 0 -2
BITMAP
3330
3330
FFB0
3330
3F7E
3336
3F36
3336
FFB6
6A36
6A36
6AA6
73A6
6066
7F46
019C
ENDCHAR
STARTCHAR 52D9
ENCODING 21209
SWIDTH 960 0
DWIDTH 16 0
BBX 16 16 0 -2
BITMAP
00C0
7F40
06FF
358C
1B4C
1868
FF30
1AEC
1BA7
3C60
3BFC
686C
686C
D8CC
198C
3B38
ENDCHAR
STARTCHAR 52DD
ENCODING 21213
SWIDTH 960 0
DWIDTH 16 0
BBX 16 16 0 -2
BITMAP
0060
7D6C
6DA8
6C60
6DFE
7C60
6C70
6FFF
6CD8
7DAC
6DFE
6E6D
6C6C
6CCC
6D8C
DD38
ENDCHAR
STARTCHAR 52DE
ENCODING 21214
SWIDTH 960 0
DWIDTH 16 0
BBX 16 16 0 -2
BITMAP
0C30
3554
3554
6A68
334C
6180
FFFE
C306
C306
7FF8
0318
0318
0618
0C18
3818
E070
ENDCHAR
STARTCHAR 52DF
ENCODING 21215
SWIDTH 960 0
DWIDTH 16 0
BBX 16 16 0 -2
BITMAP
0660
FFFF
0660
1FF8
1818
1FF8
1818
1FF8
0300
FFFF
0DB0
3FFC
E337
0630
1C30
70E0
ENDCHAR
STARTCHAR 52E0
ENCODING 21216
SWIDTH 960 0
DWIDTH 16 0
BBX 16 16 0 -2
BITMAP
0030
FFB0
6AB0
DDB0
3BFE
EAB6
1DB6
1A36
3336
EDB6
1A36
75B6
1B66
7666
1CC6
F19C
ENDCHAR
STARTCHAR 52E2
ENCODING 21218
SWIDTH 960 0
DWIDTH 16 0
BBX 16 16 0 -2
BITMAP
0C30
7F30
0C30
FFFC
3534
35D4
7F6C
CDB4
0F5D
FB8D
0307
7FF8
0318
0618
1C18
7070
ENDCHAR
STARTCHAR 52E3
ENCODING 21219
SWIDTH 960 0
DWIDTH 16 0
BBX 16 16 0 -2
BITMAP
0C30
7F30
0C30
7F30
0CFE
FFB6
0036
3F36
3336
3F36
3336
3F36
3366
3F66
3B46
E19C
ENDCHAR
STARTCHAR 52E4
ENCODING 21220
SWIDTH 960 0
DWIDTH 16 0
BBX 16 16 0 -2
BITMAP
3330
3330
FFD0
3330
00FE
7FB6
6DB6
6DB6
7FB6
0C36
7FB6
0C66
7FA6
0C66
0F46
F99C
ENDCHAR
STARTCHAR 52E6
ENCODING 21222
SWIDTH 960 0
DWIDTH 16 0
BBX 16 16 0 -2
BITMAP
36B0
6DB0
ED30
36B0
7FFE
6DB6
7FB6
6DB6
7FB6
0C36
FFD6
1D36
35A6
6C66
CCC6
0D9C
ENDCHAR
STARTCHAR 52E7
ENCODING 21223
SWIDTH 960 0
DWIDTH 16 0
BBX 16 16 0 -2
BITMAP
3030
3030
3FB0
6C30
6CFE
DFB6
1B36
3636
7FB6
D636
3F66
3666
3F66
36C6
3FC6
019C
ENDCHAR
STARTCHAR 52F2
ENCODING 21234
SWIDTH 960 0
DWIDTH 16 0
BBX 16 16 0 -2
BITMAP
0330
7E30
0C30
FFB0
0CFE
7F36
6D36
7F36
6D36
7F66
3E66
0F5C
F800
366C
6336
C333
ENDCHAR
STARTCHAR 52F3
ENCODING 21235
SWIDTH 960 0
DWIDTH 16 0
BBX 16 16 0 -2
BITMAP
0630
7C30
1830
FFB0
18FE
7F36
7B36
6D36
7F36
1836
7F36
1836
FFA6
7566
6AC6
DA9C
ENDCHAR
STARTCHAR 52F5
ENCODING 21237
SWIDTH 960 0
DWIDTH 16 0
BBX 16 16 0 -2
BITMAP
0018
7FD8
6D18
7FD8
6D7E
6F9A
6A9A
6F9A
6A9A
6F9A
661A
7FD6
7556
DEE6
30C6
31DC
ENDCHAR
STARTCHAR 52F8
ENCODING 21240
SWIDTH 960 0
DWIDTH 16 0
BBX 16 16 0 -2
BITMAP
1B30
FFD0
1B30
7BB0
6AFE
7BB6
3636
3436
7FB6
EC36
7F36
6C36
7F66
6C66
7FC6
019C
ENDCHAR
STARTCHAR 52F9
ENCODING 21241
SWIDTH 960 0
DWIDTH 16 0
BBX 16 16 0 -2
BITMAP
1800
1800
1FFE
1806
3006
3006
6006
C006
0006
0006
0006
0006
0006
0006
000C
0078
ENDCHAR
STARTCHAR 52FA
ENCODING 21242
SWIDTH 960 0
DWIDTH 16 0
BBX 16 16 0 -2
BITMAP
0C00
0C00
0C00
0FFE
1806
1806
3006
6706
C186
00C6
00C6
0006
0006
0006
000C
0038
ENDCHAR
STARTCHAR 52FE
ENCODING 21246
SWIDTH 960 0
DWIDTH 16 0
BBX 16 16 0 -2
BITMAP
1800
1800
1800
1FFE
1B06
3306
3306
6306
C6C6
0666
0666
0DF6
3F36
0006
000C
0078
ENDCHAR
STARTCHAR 52FF
ENCODING 21247
SWIDTH 960 0
DWIDTH 16 0
BBX 16 16 0 -2
BITMAP
1800
1800
1800
1FFC
366C
366C
666C
CCCC
0CCC
18CC
318C
618C
030C
060C
0C18
0070
ENDCHAR
STARTCHAR 5301
ENCODING 21249
SWIDTH 960 0
DWIDTH 16 0
BBX 16 16 0 -2
BITMAP
1800
1800
1FFC
198C
398C
358C
6D8C
C68C
030C
038C
036C
063C
0C0F
380C
E018
00F0
ENDCHAR
STARTCHAR 5302
ENCODING 21250
SWIDTH 960 0
DWIDTH 16 0
BBX 16 16 0 -2
BITMAP
1800
1800
1800
1FFE
3406
3406
6C66
CDC6
0F06
0C06
0C36
0C36
07F6
0006
000C
0038
ENDCHAR
STARTCHAR 5305
ENCODING 21253
SWIDTH 960 0
DWIDTH 16 0
BBX 16 16 0 -2
BITMAP
0C00
0C00
0FFC
180C
180C
3FEC
606C
C06C
006C
1FE8
1870
1800
1800
1806
0C06
07FE
ENDCHAR
STARTCHAR 5306
ENCODING 21254
SWIDTH 960 0
DWIDTH 16 0
BBX 16 16 0 -2
BITMAP
1800
1800
1FFE
1B66
3366
3366
6366
DE66
0766
0DC6
38E6
E1B6
0306
0E06
380C
0038
ENDCHAR
STARTCHAR 5308
ENCODING 21256
SWIDTH 960 0
DWIDTH 16 0
BBX 16 16 0 -2
BITMAP
1800
1800
1FFE
1806
3066
3666
6B5A
D9DA
19DA
19AA
1B6A
1A1A
1FFA
0006
000C
0038
ENDCHAR
STARTCHAR 530D
ENCODING 21261
SWIDTH 960 0
DWIDTH 16 0
BBX 16 16 0 -2
BITMAP
1800
1800
1FFE
18C6
3366
3FFA
6306
DFF6
3336
3FF6
3336
3FF6
3336
3336
3374
0038
ENDCHAR
STARTCHAR 530F
ENCODING 21263
SWIDTH 960 0
DWIDTH 16 0
BBX 16 16 0 -2
BITMAP
1860
1860
FF7E
3466
36C6
637A
FEDA
00DA
FF7A
30C6
30C6
7EDC
66C0
06C3
0663
1C3F
ENDCHAR
STARTCHAR 5310
ENCODING 21264
SWIDTH 960 0
DWIDTH 16 0
BBX 16 16 0 -2
BITMAP
1800
1800
1FFE
3006
3FF6
6006
DFE6
1866
1FE6
0006
3FF6
3336
3FF6
3336
3FF4
0038
ENDCHAR
STARTCHAR 5315
ENCODING 21269
SWIDTH 960 0
DWIDTH 16 0
BBX 16 16 0 -2
BITMAP
1800
1800
1800
180C
1818
1830
18E0
1B80
1E00
7800
1800
1800
1806
1806
0C06
07FE
ENDCHAR
STARTCHAR 5316
ENCODING 21270
SWIDTH 960 0
DWIDTH 16 0
BBX 16 16 0 -2
BITMAP
06C0
06C0
06C6
0CC6
0CCC
18CC
18D8
38D0
68E0
D8C0
18C0
18C0
18C3
18C3
1863
183F
ENDCHAR
STARTCHAR 5317
ENCODING 21271
SWIDTH 960 0
DWIDTH 16 0
BBX 16 16 0 -2
BITMAP
0CC0
0CC0
0CC0
0CCC
0CCC
FCD8
0CD0
0CE0
0CC0
0CC0
1CC0
34C6
ECC6
0C66
0C3E
0C00
ENDCHAR
STARTCHAR 5319
ENCODING 21273
SWIDTH 960 0
DWIDTH 16 0
BBX 16 16 0 -2
BITMAP
0060
3F60
3360
3F66
336C
3378
3F60
0060
FFA0
3466
3466
37A6
3C3E
6C00
6700
C1FF
ENDCHAR
STARTCHAR 531A
ENCODING 21274
SWIDTH 960 0
DWIDTH 16 0
BBX 16 16 0 -2
BITMAP
0000
7FFE
6000
6000
6000
6000
6000
6000
6000
6000
6000
6000
6000
6000
7FFE
0000
ENDCHAR
STARTCHAR 531D
ENCODING 21277
SWIDTH 960 0
DWIDTH 16 0
BBX 16 16 0 -2
BITMAP
0000
7FFE
6000
60C0
60C0
6FFC
6CCC
6CCC
6CCC
6CCC
6CD8
6CC0
60C0
60C0
7FFF
0000
ENDCHAR
STARTCHAR 5320
ENCODING 21280
SWIDTH 960 0
DWIDTH 16 0
BBX 16 16 0 -2
BITMAP
0000
7FFE
6018
60F0
6F80
6C00
6FFC
6C60
6C60
6C60
6C60
6860
6860
7060
7FFE
0000
ENDCHAR
STARTCHAR 5321
ENCODING 21281
SWIDTH 960 0
DWIDTH 16 0
BBX 16 16 0 -2
BITMAP
0000
7FFE
6000
6000
6FF8
6180
6180
6FF0
6180
6180
6180
6FFC
6000
6000
7FFE
0000
ENDCHAR
STARTCHAR 5323
ENCODING 21283
SWIDTH 960 0
DWIDTH 16 0
BBX 16 16 0 -2
BITMAP
0000
7FFE
6000
6FFC
6CCC
6CCC
6FFC
6CCC
6CCC
6FFC
60C0
60C0
60C0
60C0
7FFF
0000
ENDCHAR
STARTCHAR 532A
ENCODING 21290
SWIDTH 960 0
DWIDTH 16 0
BBX 16 16 0 -2
BITMAP
0000
7FFE
6360
6360
6F7C
6360
6360
6F7C
6360
67A0
6D7E
6660
6660
6C00
7FFE
0000
ENDCHAR
STARTCHAR 532F
ENCODING 21295
SWIDTH 960 0
DWIDTH 16 0
BBX 16 16 0 -2
BITMAP
0000
7FFF
6800
6D98
61B0
73FE
6B60
67FC
6360
6DFC
6B60
6B60
73FE
6000
7FFF
6000
ENDCHAR
STARTCHAR 5331
ENCODING 21297
SWIDTH 960 0
DWIDTH 16 0
BBX 16 16 0 -2
BITMAP
0000
7FFF
60C0
67FC
66CC
67FC
60C0
6FFF
6318
63F8
6318
63F8
63B8
6E0C
7FFF
6000
ENDCHAR
STARTCHAR 5333
ENCODING 21299
SWIDTH 960 0
DWIDTH 16 0
BBX 16 16 0 -2
BITMAP
0000
7FFF
60C0
61A0
6330
6FEC
7807
6FBC
6DAC
6FBC
6618
671C
6DB6
6860
7FFF
6000
ENDCHAR
STARTCHAR 5338
ENCODING 21304
SWIDTH 960 0
DWIDTH 16 0
BBX 16 16 0 -2
BITMAP
0000
FFFF
3000
3000
3000
3000
3000
3000
3000
3000
3000
3000
3000
1800
0FFE
0000
ENDCHAR
STARTCHAR 5339
ENCODING 21305
SWIDTH 960 0
DWIDTH 16 0
BBX 16 16 0 -2
BITMAP
0000
0000
FFFF
C660
C660
C660
C660
CC60
CC66
D866
D03E
C000
C000
FFFF
0000
0000
ENDCHAR
STARTCHAR 533A
ENCODING 21306
SWIDTH 960 0
DWIDTH 16 0
BBX 16 16 0 -2
BITMAP
0000
7FFE
6018
6018
6018
6030
6E30
63A0
60C0
61A0
6330
6618
6C18
6800
7FFF
0000
ENDCHAR
STARTCHAR 533B
ENCODING 21307
SWIDTH 960 0
DWIDTH 16 0
BBX 16 16 0 -2
BITMAP
0000
7FFE
6300
6300
67FC
6CC0
68C0
7FFE
61A0
61B0
6318
660C
6C0C
6800
7FFE
0000
ENDCHAR
STARTCHAR 533F
ENCODING 21311
SWIDTH 960 0
DWIDTH 16 0
BBX 16 16 0 -2
BITMAP
0000
7FFE
6000
6630
7FFE
66B0
6180
7FFE
6300
67F8
6E18
7A18
67F8
6000
7FFE
0000
ENDCHAR
STARTCHAR 5340
ENCODING 21312
SWIDTH 960 0
DWIDTH 16 0
BBX 16 16 0 -2
BITMAP
0000
FFFF
6000
67F0
6630
6630
67F0
6000
6F7C
6B6C
6B6C
6B6C
6F7C
6000
7FFF
0000
ENDCHAR
STARTCHAR 5341
ENCODING 21313
SWIDTH 960 0
DWIDTH 16 0
BBX 16 16 0 -2
BITMAP
0180
0180
0180
0180
0180
0180
FFFF
0180
0180
0180
0180
0180
0180
0180
0180
0180
ENDCHAR
STARTCHAR 5343
ENCODING 21315
SWIDTH 960 0
DWIDTH 16 0
BBX 16 16 0 -2
BITMAP
0018
0070
3FC0
0180
0180
0180
0180
FFFF
0180
0180
0180
0180
0180
0180
0180
0180
ENDCHAR
STARTCHAR 5345
ENCODING 21317
SWIDTH 960 0
DWIDTH 16 0
BBX 16 16 0 -2
BITMAP
1998
1998
1998
1998
1998
1998
FFFF
1998
1998
1998
1998
1998
3198
3198
6198
C198
ENDCHAR
STARTCHAR 5346
ENCODING 21318
SWIDTH 960 0
DWIDTH 16 0
BBX 16 16 0 -2
BITMAP
0600
0600
FFE0
0660
0660
0C60
1866
3336
E31E
0300
FFFE
0300
0300
0300
0300
0300
ENDCHAR
STARTCHAR 5347
ENCODING 21319
SWIDTH 960 0
DWIDTH 16 0
BBX 16 16 0 -2
BITMAP
0030
01B0
0730
7C30
0C30
0C30
0C30
FFFF
0C30
0C30
0C30
0C30
1830
1830
3030
6030
ENDCHAR
STARTCHAR 5348
ENCODING 21320
SWIDTH 960 0
DWIDTH 16 0
BBX 16 16 0 -2
BITMAP
0C00
0C00
0FFC
1980
1980
3180
6180
0180
FFFF
0180
0180
0180
0180
0180
0180
0180
ENDCHAR
STARTCHAR 5349
ENCODING 21321
SWIDTH 960 0
DWIDTH 16 0
BBX 16 16 0 -2
BITMAP
0180
0180
3FFC
0180
0180
0D98
0C18
0C18
FFFF
0C18
0C18
0C18
1818
1818
3018
6018
ENDCHAR
STARTCHAR 534A
ENCODING 21322
SWIDTH 960 0
DWIDTH 16 0
BBX 16 16 0 -2
BITMAP
0180
018C
318C
1998
0DB0
0D80
7FFE
0180
0180
0180
FFFF
0180
0180
0180
0180
0180
ENDCHAR
STARTCHAR 534D
ENCODING 21325
SWIDTH 960 0
DWIDTH 16 0
BBX 16 16 0 -2
BITMAP
0006
FF86
0186
0186
0186
0186
0186
7FFE
6180
6180
6180
6180
6180
6180
61FF
6000
ENDCHAR
STARTCHAR 5351
ENCODING 21329
SWIDTH 960 0
DWIDTH 16 0
BBX 16 16 0 -2
BITMAP
0180
0300
1FFC
198C
198C
1FFC
198C
198C
1FFC
06C0
0CC0
FFFF
00C0
00C0
00C0
00C0
ENDCHAR
STARTCHAR 5352
ENCODING 21330
SWIDTH 960 0
DWIDTH 16 0
BBX 16 16 0 -2
BITMAP
0180
0180
7FFE
0C30
0C30
0E38
1B6C
31C6
6180
FFFF
0180
0180
0180
0180
0180
0180
ENDCHAR
STARTCHAR 5353
ENCODING 21331
SWIDTH 960 0
DWIDTH 16 0
BBX 16 16 0 -2
BITMAP
0180
0180
01FC
0180
1FF8
1818
1818
1FF8
1818
1818
1FF8
0180
FFFF
0180
0180
0180
ENDCHAR
STARTCHAR 5354
ENCODING 21332
SWIDTH 960 0
DWIDTH 16 0
BBX 16 16 0 -2
BITMAP
30C0
30C0
37FC
30CC
30CC
FD8C
3338
3618
3618
3FFF
36DB
36DB
36DB
34DB
34D3
3BAE
ENDCHAR
STARTCHAR 5357
ENCODING 21335
SWIDTH 960 0
DWIDTH 16 0
BBX 16 16 0 -2
BITMAP
0180
0180
FFFF
0180
0180
3FFC
366C
334C
37F4
318C
318C
3FFC
318C
318C
318C
319C
ENDCHAR
STARTCHAR 5358
ENCODING 21336
SWIDTH 960 0
DWIDTH 16 0
BBX 16 16 0 -2
BITMAP
1B18
0D98
0DB0
1FFC
198C
198C
1FFC
198C
198C
1FFC
0180
0180
FFFF
0180
0180
0180
ENDCHAR
STARTCHAR 535A
ENCODING 21338
SWIDTH 960 0
DWIDTH 16 0
BBX 16 16 0 -2
BITMAP
3068
306C
37FF
3060
33FE
3366
FDFE
3366
33FE
3018
37FF
3318
3198
3198
3018
3038
ENDCHAR
STARTCHAR 535C
ENCODING 21340
SWIDTH 960 0
DWIDTH 16 0
BBX 16 16 0 -2
BITMAP
0600
0600
0600
0600
0600
0780
06C0
0660
0630
0618
0600
0600
0600
0600
0600
0600
ENDCHAR
STARTCHAR 535E
ENCODING 21342
SWIDTH 960 0
DWIDTH 16 0
BBX 16 16 0 -2
BITMAP
0180
0180
FFFF
0180
0180
0180
01C0
01B0
0198
018C
0180
0180
0180
0180
0180
0180
ENDCHAR
STARTCHAR 5360
ENCODING 21344
SWIDTH 960 0
DWIDTH 16 0
BBX 16 16 0 -2
BITMAP
0300
0300
0300
0300
03FF
0300
0300
0300
0300
3FF8
3018
3018
3018
3018
3FF8
0000
ENDCHAR
STARTCHAR 5366
ENCODING 21350
SWIDTH 960 0
DWIDTH 16 0
BBX 16 16 0 -2
BITMAP
0C30
0C30
7FB0
0C30
0C30
0C38
FFD4
0C36
0C36
7FB0
0C30
0C30
0DD0
1E30
F030
0030
ENDCHAR
STARTCHAR 5369
ENCODING 21353
SWIDTH 960 0
DWIDTH 16 0
BBX 16 16 0 -2
BITMAP
0000
1FF0
1830
1830
1830
1830
1830
1830
1830
1830
1830
19E0
1800
1800
1800
1800
ENDCHAR
STARTCHAR 536E
ENCODING 21358
SWIDTH 960 0
DWIDTH 16 0
BBX 16 16 0 -2
BITMAP
0018
00F0
3F80
3000
3000
3FFF
3000
37F8
3618
3618
3618
3678
6606
6606
C306
01FE
ENDCHAR
STARTCHAR 536F
ENCODING 21359
SWIDTH 960 0
DWIDTH 16 0
BBX 16 16 0 -2
BITMAP
0600
1C00
70FC
66CC
66CC
66CC
66CC
66CC
66CC
66CC
7ECC
E6CC
0CD8
0CC0
18C0
30C0
ENDCHAR
STARTCHAR 5370
ENCODING 21360
SWIDTH 960 0
DWIDTH 16 0
BBX 16 16 0 -2
BITMAP
0300
0E00
78FE
60C6
60C6
60C6
7F46
60C6
60C6
60C6
60C6
7F5C
00C0
00C0
00C0
00C0
ENDCHAR
STARTCHAR 5371
ENCODING 21361
SWIDTH 960 0
DWIDTH 16 0
BBX 16 16 0 -2
BITMAP
0C00
0FF0
1860
30C0
7FFE
D000
3000
37F8
3618
3618
3618
3670
6606
6606
C306
01FE
ENDCHAR
STARTCHAR 5373
ENCODING 21363
SWIDTH 960 0
DWIDTH 16 0
BBX 16 16 0 -2
BITMAP
0000
3FBE
31A6
31A6
3FA6
31A6
31A6
31A6
3FA6
3466
3666
3366
36AC
39A0
E060
0060
ENDCHAR
STARTCHAR 5374
ENCODING 21364
SWIDTH 960 0
DWIDTH 16 0
BBX 16 16 0 -2
BITMAP
0C00
0C7E
7FA6
0C66
0C66
0C66
0C66
FFE6
1866
1A66
1B66
3366
37AC
FDA0
01A0
0060
ENDCHAR
STARTCHAR 5375
ENCODING 21365
SWIDTH 960 0
DWIDTH 16 0
BBX 16 16 0 -2
BITMAP
0600
0C00
387E
3366
3366
3366
3B76
356A
356A
3366
3366
3F66
E66C
0660
0C60
1860
ENDCHAR
STARTCHAR 5377
ENCODING 21367
SWIDTH 960 0
DWIDTH 16 0
BBX 16 16 0 -2
BITMAP
0DB0
0D98
1998
7FFE
0180
0340
FFFF
0660
0C30
3FFC
EC37
0C30
0CE0
0C0C
060C
03FC
ENDCHAR
STARTCHAR 5378
ENCODING 21368
SWIDTH 960 0
DWIDTH 16 0
BBX 16 16 0 -2
BITMAP
3000
307E
3FA6
3466
6C66
CC66
FFE6
0C66
6C66
6FA6
6C66
6C66
6FBC
7C60
E060
0060
ENDCHAR
STARTCHAR 537B
ENCODING 21371
SWIDTH 960 0
DWIDTH 16 0
BBX 16 16 0 -2
BITMAP
0C00
1A7E
1B66
31A6
6DA6
DA66
1B66
31A6
31A6
7F66
D366
3366
336C
3360
3F60
0060
ENDCHAR
STARTCHAR 537F
ENCODING 21375
SWIDTH 960 0
DWIDTH 16 0
BBX 16 16 0 -2
BITMAP
0C00
1BDE
76D6
6AD6
6BD6
6AD6
6AD6
6BD6
6A36
6B36
7AB6
EAD6
1BDC
3670
3030
6030
ENDCHAR
STARTCHAR 5382
ENCODING 21378
SWIDTH 960 0
DWIDTH 16 0
BBX 16 16 0 -2
BITMAP
0000
3FFE
3000
3000
3000
3000
3000
3000
3000
3000
3000
3000
6000
6000
C000
0000
ENDCHAR
STARTCHAR 5384
ENCODING 21380
SWIDTH 960 0
DWIDTH 16 0
BBX 16 16 0 -2
BITMAP
0000
3FFF
3000
3000
37F8
3618
3618
3618
3618
3618
3670
3606
6606
6306
C1FE
0000
ENDCHAR
STARTCHAR 5396
ENCODING 21398
SWIDTH 960 0
DWIDTH 16 0
BBX 16 16 0 -2
BITMAP
0000
3FFF
300C
368C
36D8
3636
3FE6
360C
361B
3733
3566
350C
6D18
6B73
DB03
31FF
ENDCHAR
STARTCHAR 5398
ENCODING 21400
SWIDTH 960 0
DWIDTH 16 0
BBX 16 16 0 -2
BITMAP
0000
3FFF
3000
37FC
36CC
37FC
36CC
36CC
37FC
30C0
30C0
37FE
60C0
60C0
DFFF
0000
ENDCHAR
STARTCHAR 539A
ENCODING 21402
SWIDTH 960 0
DWIDTH 16 0
BBX 16 16 0 -2
BITMAP
0000
3FFE
3000
37F8
3618
37F8
3618
37F8
3000
37F8
3060
30C0
6FFF
60C0
C0C0
01C0
ENDCHAR
STARTCHAR 539F
ENCODING 21407
SWIDTH 960 0
DWIDTH 16 0
BBX 16 16 0 -2
BITMAP
0000
3FFF
30C0
3180
37F8
3618
37F8
3618
3618
37F8
30C0
36D8
66CC
6CC6
D8C6
01C0
ENDCHAR
STARTCHAR 53A0
ENCODING 21408
SWIDTH 960 0
DWIDTH 16 0
BBX 16 16 0 -2
BITMAP
0000
3FFF
3000
37C6
34D6
34D6
37D6
34D6
34D6
37D6
34D6
34D6
6FC6
6686
CCC6
180E
ENDCHAR
STARTCHAR 53A5
ENCODING 21413
SWIDTH 960 0
DWIDTH 16 0
BBX 16 16 0 -2
BITMAP
0000
3FFF
34D0
36D0
36B0
3FDF
3363
356A
3558
3558
3558
37D4
6634
666C
CCC6
1983
ENDCHAR
STARTCHAR 53A6
ENCODING 21414
SWIDTH 960 0
DWIDTH 16 0
BBX 16 16 0 -2
BITMAP
0000
3FFF
3000
3FFF
30C0
37FC
360C
37FC
360C
37FC
30C0
31FC
6798
6CF0
C1D8
3F0F
ENDCHAR
STARTCHAR 53A8
ENCODING 21416
SWIDTH 960 0
DWIDTH 16 0
BBX 16 16 0 -2
BITMAP
0000
3FFF
3000
300C
3FCC
300C
37FF
358C
35CC
37AC
306C
358C
668C
676C
C78C
3C1C
ENDCHAR
STARTCHAR 53A9
ENCODING 21417
SWIDTH 960 0
DWIDTH 16 0
BBX 16 16 0 -2
BITMAP
0000
3FFF
3000
37BE
35A8
35A8
37A8
35A8
35FF
3798
3438
3538
6DA8
6DAB
CEDB
398F
ENDCHAR
STARTCHAR 53AD
ENCODING 21421
SWIDTH 960 0
DWIDTH 16 0
BBX 16 16 0 -2
BITMAP
0000
7FFF
6000
6F9A
699B
6F98
69FF
6F98
6018
6F9C
69B4
6FB4
69B4
6FA6
D9C6
DB83
ENDCHAR
STARTCHAR 53AE
ENCODING 21422
SWIDTH 960 0
DWIDTH 16 0
BBX 16 16 0 -2
BITMAP
0000
3FFF
3006
358C
35B8
3FF0
35BF
37B6
35B6
37B6
35B6
35B6
7FE6
6D66
D9C6
3186
ENDCHAR
STARTCHAR 53B0
ENCODING 21424
SWIDTH 960 0
DWIDTH 16 0
BBX 16 16 0 -2
BITMAP
0000
7FFF
6318
6D58
6D58
6B6F
6336
6FD6
68D6
6BEA
6ADA
6ACC
6BCC
68DA
D8D6
19E3
ENDCHAR
STARTCHAR 53B3
ENCODING 21427
SWIDTH 960 0
DWIDTH 16 0
BBX 16 16 0 -2
BITMAP
198C
0CD8
3FFF
3030
37D0
3330
3FDF
35AC
37AC
35D4
37B4
3598
6DD8
6FB4
DDA6
01C3
ENDCHAR
STARTCHAR 53B6
ENCODING 21430
SWIDTH 960 0
DWIDTH 16 0
BBX 16 16 0 -2
BITMAP
0300
0300
0300
0300
0300
0300
0300
0600
0660
0630
0618
0C18
0C7C
1BCC
FE06
0006
ENDCHAR
STARTCHAR 53BB
ENCODING 21435
SWIDTH 960 0
DWIDTH 16 0
BBX 16 16 0 -2
BITMAP
0180
0180
0180
3FFC
0180
0180
0180
0180
FFFF
0300
0360
0630
0618
0DF8
7F0C
000C
ENDCHAR
STARTCHAR 53C2
ENCODING 21442
SWIDTH 960 0
DWIDTH 16 0
BBX 16 16 0 -2
BITMAP
0300
0360
0638
3FEC
0300
FFFF
0660
0CD0
3B9C
EE67
00C0
0398
3E30
00E0
0380
3E00
ENDCHAR
STARTCHAR 53C3
ENCODING 21443
SWIDTH 960 0
DWIDTH 16 0
BBX 16 16 0 -2
BITMAP
0340
0670
3FE8
1818
1D9C
36B6
FD7D
0660
0DB0
3B3C
EE67
39D8
0730
3CE0
0380
3E00
ENDCHAR
STARTCHAR 53C8
ENCODING 21448
SWIDTH 960 0
DWIDTH 16 0
BBX 16 16 0 -2
BITMAP
0000
0000
7FFC
0C0C
0C0C
0C18
0618
0630
0330
01A0
01C0
0340
0660
0C30
381C
E007
ENDCHAR
STARTCHAR 53C9
ENCODING 21449
SWIDTH 960 0
DWIDTH 16 0
BBX 16 16 0 -2
BITMAP
0000
0000
7FF8
1B18
1998
0DB0
0DB0
0660
0660
0340
0180
0340
0660
0C30
381C
E007
ENDCHAR
STARTCHAR 53CA
ENCODING 21450
SWIDTH 960 0
DWIDTH 16 0
BBX 16 16 0 -2
BITMAP
0000
7FE0
0C60
0CC0
0CC0
0EF0
0E30
0D30
0D30
19A0
18E0
18C0
31A0
3330
6618
DC0E
ENDCHAR
STARTCHAR 53CB
ENCODING 21451
SWIDTH 960 0
DWIDTH 16 0
BBX 16 16 0 -2
BITMAP
0300
0300
0300
FFFF
0300
0300
07F0
0630
0730
0D60
0DA0
18C0
31A0
6330
CE1C
3807
ENDCHAR
STARTCHAR 53CC
ENCODING 21452
SWIDTH 960 0
DWIDTH 16 0
BBX 16 16 0 -2
BITMAP
0000
FFFC
060C
06CC
C6CC
66CC
36CC
1C68
0C68
0E30
1A30
1B68
3358
318C
6706
DC03
ENDCHAR
STARTCHAR 53CD
ENCODING 21453
SWIDTH 960 0
DWIDTH 16 0
BBX 16 16 0 -2
BITMAP
0000
3FFE
3000
3000
3000
3FF8
3618
3618
3330
3330
31A0
30C0
31A0
6330
6E1C
D807
ENDCHAR
STARTCHAR 53CE
ENCODING 21454
SWIDTH 960 0
DWIDTH 16 0
BBX 16 16 0 -2
BITMAP
0C00
0C00
6FFC
6D8C
6D8C
6D8C
6D8C
6CD8
6CD8
6C70
6E70
7C68
CCD8
0D8C
0D06
0C03
ENDCHAR
STARTCHAR 53D4
ENCODING 21460
SWIDTH 960 0
DWIDTH 16 0
BBX 16 16 0 -2
BITMAP
0C00
0C00
0DFC
0F4C
0CCC
0C6C
FFAC
0C68
0C68
3538
3530
6DB8
6DA8
CCCC
0D86
1D03
ENDCHAR
STARTCHAR 53D6
ENCODING 21462
SWIDTH 960 0
DWIDTH 16 0
BBX 16 16 0 -2
BITMAP
0000
FF80
337E
3366
3366
3F66
3366
3334
3F34
3338
3318
3334
3F6C
E346
0386
0303
ENDCHAR
STARTCHAR 53D7
ENCODING 21463
SWIDTH 960 0
DWIDTH 16 0
BBX 16 16 0 -2
BITMAP
0018
00F0
FF98
3618
1B30
1B60
FFFE
C006
DFF6
0C30
0660
0340
0180
0760
1C38
F00E
ENDCHAR
STARTCHAR 53D9
ENCODING 21465
SWIDTH 960 0
DWIDTH 16 0
BBX 16 16 0 -2
BITMAP
0C00
0DFC
1A0C
1B0C
318C
7F6C
CC6C
0C68
FFA8
0C38
3530
35B8
6DA8
6CCC
CD86
1D03
ENDCHAR
STARTCHAR 53DB
ENCODING 21467
SWIDTH 960 0
DWIDTH 16 0
BBX 16 16 0 -2
BITMAP
1800
1AFF
DA80
6A80
6D80
19FC
FFAC
19AC
19AC
1EB4
F9B8
1998
3334
336C
66C6
CD83
ENDCHAR
STARTCHAR 53DF
ENCODING 21471
SWIDTH 960 0
DWIDTH 16 0
BBX 16 16 0 -2
BITMAP
0300
0D00
3B78
3318
3318
3D78
3318
3318
3FF8
0300
FFF8
1830
0E60
03C0
1E78
F00F
ENDCHAR
STARTCHAR 53E1
ENCODING 21473
SWIDTH 960 0
DWIDTH 16 0
BBX 16 16 0 -2
BITMAP
1800
1F7C
180C
FFAC
C1AC
7F6C
0D6C
6DAC
DA34
3FB8
7358
DF38
3334
3F6C
33C6
3F03
ENDCHAR
STARTCHAR 53E2
ENCODING 21474
SWIDTH 960 0
DWIDTH 16 0
BBX 16 16 0 -2
BITMAP
1B58
0D50
FFFF
0660
3FFC
0180
1FF8
0180
FFFF
3300
3F7C
336C
3F34
3318
FF74
03C7
ENDCHAR
STARTCHAR 53E3
ENCODING 21475
SWIDTH 960 0
DWIDTH 16 0
BBX 16 16 0 -2
BITMAP
0000
0000
7FFC
600C
600C
600C
600C
600C
600C
600C
600C
600C
600C
7FFC
600C
0000
ENDCHAR
STARTCHAR 53E4
ENCODING 21476
SWIDTH 960 0
DWIDTH 16 0
BBX 16 16 0 -2
BITMAP
0180
0180
0180
FFFF
0180
0180
0180
0180
1FF8
1818
1818
1818
1818
1818
1FF8
0000
ENDCHAR
STARTCHAR 53E5
ENCODING 21477
SWIDTH 960 0
DWIDTH 16 0
BBX 16 16 0 -2
BITMAP
0C00
0C00
0C00
1FFE
1806
3006
6FE6
CC66
0C66
0C66
0C66
0FE6
0006
0006
000C
0038
ENDCHAR
STARTCHAR 53E8
ENCODING 21480
SWIDTH 960 0
DWIDTH 16 0
BBX 16 16 0 -2
BITMAP
0000
03FE
7E66
6666
6666
6666
6666
6666
6666
66C6
66C6
7EC6
0186
0306
060C
0C38
ENDCHAR
STARTCHAR 53E9
ENCODING 21481
SWIDTH 960 0
DWIDTH 16 0
BBX 16 16 0 -2
BITMAP
0000
7EFE
66C6
66C6
66C6
66C6
66C6
66C6
66C6
66C6
66C6
7EDC
00C0
00C0
00C0
00C0
ENDCHAR
STARTCHAR 53EA
ENCODING 21482
SWIDTH 960 0
DWIDTH 16 0
BBX 16 16 0 -2
BITMAP
0000
0000
3FF8
3018
3018
3018
3018
3018
3018
3FF8
0000
0C60
0C30
1818
300C
600C
ENDCHAR
STARTCHAR 53EB
ENCODING 21483
SWIDTH 960 0
DWIDTH 16 0
BBX 16 16 0 -2
BITMAP
000C
000C
7ECC
66CC
66CC
66CC
66CC
66CC
66CC
66CC
66CF
7EFC
07CC
000C
000C
000C
ENDCHAR
STARTCHAR 53EC
ENCODING 21484
SWIDTH 960 0
DWIDTH 16 0
BBX 16 16 0 -2
BITMAP
0000
FFFE
0306
0306
0606
0606
0C06
381C
E000
1FFC
180C
180C
180C
180C
1FFC
0000
ENDCHAR
STARTCHAR 53ED
ENCODING 21485
SWIDTH 960 0
DWIDTH 16 0
BBX 16 16 0 -2
BITMAP
01F8
0018
FC18
CC18
CD98
CD98
CD98
CD98
CD98
CD98
CD98
FD18
030C
060C
0C06
1803
ENDCHAR
STARTCHAR 53EE
ENCODING 21486
SWIDTH 960 0
DWIDTH 16 0
BBX 16 16 0 -2
BITMAP
0000
07FF
FC30
CC30
CC30
CC30
CC30
CC30
CC30
CC30
CC30
FC30
0030
0030
0030
0070
ENDCHAR
STARTCHAR 53EF
ENCODING 21487
SWIDTH 960 0
DWIDTH 16 0
BBX 16 16 0 -2
BITMAP
0000
0000
FFFF
0018
0018
1FD8
18D8
18D8
18D8
18D8
1FD8
0018
0018
0018
0018
0038
ENDCHAR
STARTCHAR 53F0
ENCODING 21488
SWIDTH 960 0
DWIDTH 16 0
BBX 16 16 0 -2
BITMAP
0300
0300
0660
0630
0C18
19FC
FF0C
0006
0006
3FF8
3018
3018
3018
3018
3FF8
0000
ENDCHAR
STARTCHAR 53F1
ENCODING 21489
SWIDTH 960 0
DWIDTH 16 0
BBX 16 16 0 -2
BITMAP
0180
0180
FD80
CD8C
CD98
CDB0
CDA0
CDC0
CF80
CD80
CD80
CD80
FD86
0186
00C6
007E
ENDCHAR
STARTCHAR 53F2
ENCODING 21490
SWIDTH 960 0
DWIDTH 16 0
BBX 16 16 0 -2
BITMAP
0180
0180
0180
3FFC
318C
318C
318C
318C
3FFC
0180
0D80
0700
0380
06E0
1C38
700F
ENDCHAR
STARTCHAR 53F3
ENCODING 21491
SWIDTH 960 0
DWIDTH 16 0
BBX 16 16 0 -2
BITMAP
0300
0300
0300
FFFE
0600
0600
0600
0C00
0FF8
1C18
3418
6C18
CC18
0C18
0FF8
0000
ENDCHAR
STARTCHAR 53F6
ENCODING 21494
SWIDTH 960 0
DWIDTH 16 0
BBX 16 16 0 -2
BITMAP
0030
0030
7E30
6630
6630
6630
67FF
6630
6630
6630
6630
7E30
0030
0030
0030
0030
ENDCHAR
STARTCHAR 53F7
ENCODING 21495
SWIDTH 960 0
DWIDTH 16 0
BBX 16 16 0 -2
BITMAP
0000
1FF0
1830
1830
1830
1FF0
0000
FFFF
0C00
0C00
0FF0
1830
0030
0030
0060
01C0
ENDCHAR
STARTCHAR 53F8
ENCODING 21496
SWIDTH 960 0
DWIDTH 16 0
BBX 16 16 0 -2
BITMAP
0000
FFFC
000C
000C
7FEC
000C
000C
3FCC
30CC
30CC
30CC
3FCC
000C
000C
0018
0070
ENDCHAR
STARTCHAR 53FA
ENCODING 21498
SWIDTH 960 0
DWIDTH 16 0
BBX 16 16 0 -2
BITMAP
01E0
0060
FC60
CC60
CC60
CC60
CC60
CC70
CC70
CCD0
CCD0
FD98
0198
030C
0E06
3803
ENDCHAR
STARTCHAR 5401
ENCODING 21505
SWIDTH 960 0
DWIDTH 16 0
BBX 16 16 0 -2
BITMAP
0000
03FC
FC60
CC60
CC60
CC60
CC60
CFFF
CC60
CC60
CC60
FC60
0060
0060
0060
00E0
ENDCHAR
STARTCHAR 5403
ENCODING 21507
SWIDTH 960 0
DWIDTH 16 0
BBX 16 16 0 -2
BITMAP
0180
0180
F980
DBFF
DB00
DB00
DAFC
DC18
D830
D860
D8C0
F980
0306
0306
0306
01FE
ENDCHAR
STARTCHAR 5404
ENCODING 21508
SWIDTH 960 0
DWIDTH 16 0
BBX 16 16 0 -2
BITMAP
0600
0600
0FF8
0C30
1A60
3340
61C0
0760
0C30
381C
EFFB
1818
1818
1818
1FF8
0000
ENDCHAR
STARTCHAR 5408
ENCODING 21512
SWIDTH 960 0
DWIDTH 16 0
BBX 16 16 0 -2
BITMAP
0180
0180
0340
0660
0C30
381C
EFF7
0000
0000
1FF8
1818
1818
1818
1818
1FF8
0000
ENDCHAR
STARTCHAR 5409
ENCODING 21513
SWIDTH 960 0
DWIDTH 16 0
BBX 16 16 0 -2
BITMAP
0180
0180
0180
FFFF
0180
0180
0180
3FFC
0000
0000
1FF8
1818
1818
1818
1FF8
0000
ENDCHAR
STARTCHAR 540A
ENCODING 21514
SWIDTH 960 0
DWIDTH 16 0
BBX 16 16 0 -2
BITMAP
0000
0FF0
0C30
0C30
0C30
0C30
0FF0
0180
3FFC
318C
318C
318C
318C
31B8
3180
0180
ENDCHAR
STARTCHAR 540B
ENCODING 21515
SWIDTH 960 0
DWIDTH 16 0
BBX 16 16 0 -2
BITMAP
0018
0018
FC18
CC18
CFFF
CC18
CD18
CD98
CCD8
CCD8
CC18
FC18
0018
0018
0018
0038
ENDCHAR
STARTCHAR 540C
ENCODING 21516
SWIDTH 960 0
DWIDTH 16 0
BBX 16 16 0 -2
BITMAP
0000
7FFE
6006
6006
6FFA
6006
6006
6FF6
6C36
6C36
6C36
6FF6
6006
6006
6006
600E
ENDCHAR
STARTCHAR 540D
ENCODING 21517
SWIDTH 960 0
DWIDTH 16 0
BBX 16 16 0 -2
BITMAP
0300
0300
03F8
0618
0C30
1A60
3340
6180
0300
0FFE
3A06
E606
0606
0606
07FE
0000
ENDCHAR
STARTCHAR 540E
ENCODING 21518
SWIDTH 960 0
DWIDTH 16 0
BBX 16 16 0 -2
BITMAP
000C
0078
1FC0
1800
1800
1FFF
1800
1800
1800
1BFC
1A0C
360C
360C
660C
C7FC
0000
ENDCHAR
ENDFONT
